<?xml version="1.0" encoding="UTF-8" standalone="no"?>
<!DOCTYPE svg PUBLIC "-//W3C//DTD SVG 1.1//EN"
 "http://www.w3.org/Graphics/SVG/1.1/DTD/svg11.dtd">
<!-- Generated by graphviz version 2.40.1 (20161225.0304)
 -->
<!-- Title: shift_register Pages: 1 -->
<svg width="1134pt" height="431pt"
 viewBox="0.00 0.00 1134.04 431.35" xmlns="http://www.w3.org/2000/svg" xmlns:xlink="http://www.w3.org/1999/xlink">
<g id="graph0" class="graph" transform="scale(1 1) rotate(0) translate(4 427.3494)">
<title>shift_register</title>
<polygon fill="#ffffff" stroke="transparent" points="-4,4 -4,-427.3494 1130.0367,-427.3494 1130.0367,4 -4,4"/>
<text text-anchor="middle" x="563.0184" y="-7.8" font-family="Times,serif" font-size="14.00" fill="#000000">shift_register</text>
<!-- n5 -->
<g id="node1" class="node">
<title>n5</title>
<polygon fill="none" stroke="#000000" points="51.4728,-188.3494 .0272,-170.3494 51.4728,-152.3494 102.9184,-170.3494 51.4728,-188.3494"/>
<text text-anchor="middle" x="51.4728" y="-166.6494" font-family="Times,serif" font-size="14.00" fill="#000000">DATA</text>
</g>
<!-- x0 -->
<g id="node13" class="node">
<title>x0</title>
<path fill="none" stroke="#000000" d="M201.6612,-315.3494C201.6612,-315.3494 243.6612,-315.3494 243.6612,-315.3494 249.6612,-315.3494 255.6612,-321.3494 255.6612,-327.3494 255.6612,-327.3494 255.6612,-339.3494 255.6612,-339.3494 255.6612,-345.3494 249.6612,-351.3494 243.6612,-351.3494 243.6612,-351.3494 201.6612,-351.3494 201.6612,-351.3494 195.6612,-351.3494 189.6612,-345.3494 189.6612,-339.3494 189.6612,-339.3494 189.6612,-327.3494 189.6612,-327.3494 189.6612,-321.3494 195.6612,-315.3494 201.6612,-315.3494"/>
<text text-anchor="middle" x="222.6612" y="-329.6494" font-family="Times,serif" font-size="14.00" fill="#000000">0:0 &#45; 0:0</text>
</g>
<!-- n5&#45;&gt;x0 -->
<g id="edge18" class="edge">
<title>n5:e&#45;&gt;x0:w</title>
<path fill="none" stroke="#000000" stroke-width="3" d="M102.9456,-170.3494C165.0423,-170.3494 100.7029,-256.426 138.9456,-305.3494 152.5105,-322.7029 161.1391,-330.8568 179.4693,-332.8513"/>
<polygon fill="#000000" stroke="#000000" stroke-width="3" points="179.5023,-336.357 189.6612,-333.3494 179.844,-329.3654 179.5023,-336.357"/>
</g>
<!-- x1 -->
<g id="node16" class="node">
<title>x1</title>
<path fill="none" stroke="#000000" d="M201.6612,-370.3494C201.6612,-370.3494 243.6612,-370.3494 243.6612,-370.3494 249.6612,-370.3494 255.6612,-376.3494 255.6612,-382.3494 255.6612,-382.3494 255.6612,-404.3494 255.6612,-404.3494 255.6612,-410.3494 249.6612,-416.3494 243.6612,-416.3494 243.6612,-416.3494 201.6612,-416.3494 201.6612,-416.3494 195.6612,-416.3494 189.6612,-410.3494 189.6612,-404.3494 189.6612,-404.3494 189.6612,-382.3494 189.6612,-382.3494 189.6612,-376.3494 195.6612,-370.3494 201.6612,-370.3494"/>
<text text-anchor="middle" x="222.6612" y="-401.1494" font-family="Times,serif" font-size="14.00" fill="#000000">0:0 &#45; 7:7</text>
<polyline fill="none" stroke="#000000" points="189.6612,-393.3494 255.6612,-393.3494 "/>
<text text-anchor="middle" x="222.6612" y="-378.1494" font-family="Times,serif" font-size="14.00" fill="#000000">7:1 &#45; 6:0</text>
</g>
<!-- n5&#45;&gt;x1 -->
<g id="edge19" class="edge">
<title>n5:e&#45;&gt;x1:w</title>
<path fill="none" stroke="#000000" stroke-width="3" d="M102.9456,-170.3494C189.3292,-170.3494 83.9106,-294.7666 138.9456,-361.3494 151.9703,-377.1071 161.8716,-380.512 179.2019,-381.1913"/>
<polygon fill="#000000" stroke="#000000" stroke-width="3" points="179.6094,-384.6978 189.6612,-381.3494 179.7153,-377.6986 179.6094,-384.6978"/>
</g>
<!-- c26 -->
<g id="node17" class="node">
<title>c26</title>
<polygon fill="none" stroke="#000000" points="493.7496,-66.8494 493.7496,-135.8494 597.7496,-135.8494 597.7496,-66.8494 493.7496,-66.8494"/>
<text text-anchor="middle" x="507.2496" y="-120.6494" font-family="Times,serif" font-size="14.00" fill="#000000">A</text>
<polyline fill="none" stroke="#000000" points="493.7496,-112.8494 520.7496,-112.8494 "/>
<text text-anchor="middle" x="507.2496" y="-97.6494" font-family="Times,serif" font-size="14.00" fill="#000000">B</text>
<polyline fill="none" stroke="#000000" points="493.7496,-89.8494 520.7496,-89.8494 "/>
<text text-anchor="middle" x="507.2496" y="-74.6494" font-family="Times,serif" font-size="14.00" fill="#000000">S</text>
<polyline fill="none" stroke="#000000" points="520.7496,-66.8494 520.7496,-135.8494 "/>
<text text-anchor="middle" x="545.7496" y="-105.1494" font-family="Times,serif" font-size="14.00" fill="#000000">$239</text>
<text text-anchor="middle" x="545.7496" y="-90.1494" font-family="Times,serif" font-size="14.00" fill="#000000">$mux</text>
<polyline fill="none" stroke="#000000" points="570.7496,-66.8494 570.7496,-135.8494 "/>
<text text-anchor="middle" x="584.2496" y="-97.6494" font-family="Times,serif" font-size="14.00" fill="#000000">Y</text>
</g>
<!-- n5&#45;&gt;c26 -->
<g id="edge17" class="edge">
<title>n5:e&#45;&gt;c26:w</title>
<path fill="none" stroke="#000000" stroke-width="3" d="M102.9456,-170.3494C122.9456,-170.3494 120.1479,-150.1792 138.9456,-143.3494 284.1804,-90.5813 333.7044,-122.8897 483.7209,-124.3023"/>
<polygon fill="#000000" stroke="#000000" stroke-width="3" points="483.7332,-127.8023 493.7496,-124.3494 483.7662,-120.8024 483.7332,-127.8023"/>
</g>
<!-- x2 -->
<g id="node18" class="node">
<title>x2</title>
<path fill="none" stroke="#000000" d="M237.6612,-188.3494C237.6612,-188.3494 207.6612,-188.3494 207.6612,-188.3494 201.6612,-188.3494 195.6612,-182.3494 195.6612,-176.3494 195.6612,-176.3494 195.6612,-164.3494 195.6612,-164.3494 195.6612,-158.3494 201.6612,-152.3494 207.6612,-152.3494 207.6612,-152.3494 237.6612,-152.3494 237.6612,-152.3494 243.6612,-152.3494 249.6612,-158.3494 249.6612,-164.3494 249.6612,-164.3494 249.6612,-176.3494 249.6612,-176.3494 249.6612,-182.3494 243.6612,-188.3494 237.6612,-188.3494"/>
<text text-anchor="middle" x="222.6612" y="-166.6494" font-family="Times,serif" font-size="14.00" fill="#000000">BUF</text>
</g>
<!-- n5&#45;&gt;x2 -->
<g id="edge20" class="edge">
<title>n5:e&#45;&gt;x2:w</title>
<path fill="none" stroke="#000000" stroke-width="3" d="M102.9456,-170.3494C140.4504,-170.3494 152.3537,-170.3494 185.2582,-170.3494"/>
<polygon fill="#000000" stroke="#000000" stroke-width="3" points="185.6613,-173.8495 195.6612,-170.3494 185.6612,-166.8495 185.6613,-173.8495"/>
</g>
<!-- n6 -->
<g id="node2" class="node">
<title>n6</title>
<polygon fill="none" stroke="#000000" points="274.7782,-270.8936 274.7782,-285.8053 244.2488,-296.3494 201.0737,-296.3494 170.5443,-285.8053 170.5443,-270.8936 201.0737,-260.3494 244.2488,-260.3494 274.7782,-270.8936"/>
<text text-anchor="middle" x="222.6612" y="-274.6494" font-family="Times,serif" font-size="14.00" fill="#000000">DATA_in</text>
</g>
<!-- c25 -->
<g id="node15" class="node">
<title>c25</title>
<polygon fill="none" stroke="#000000" points="348.0632,-206.8494 348.0632,-275.8494 452.0632,-275.8494 452.0632,-206.8494 348.0632,-206.8494"/>
<text text-anchor="middle" x="361.5632" y="-260.6494" font-family="Times,serif" font-size="14.00" fill="#000000">A</text>
<polyline fill="none" stroke="#000000" points="348.0632,-252.8494 375.0632,-252.8494 "/>
<text text-anchor="middle" x="361.5632" y="-237.6494" font-family="Times,serif" font-size="14.00" fill="#000000">B</text>
<polyline fill="none" stroke="#000000" points="348.0632,-229.8494 375.0632,-229.8494 "/>
<text text-anchor="middle" x="361.5632" y="-214.6494" font-family="Times,serif" font-size="14.00" fill="#000000">S</text>
<polyline fill="none" stroke="#000000" points="375.0632,-206.8494 375.0632,-275.8494 "/>
<text text-anchor="middle" x="400.0632" y="-245.1494" font-family="Times,serif" font-size="14.00" fill="#000000">$237</text>
<text text-anchor="middle" x="400.0632" y="-230.1494" font-family="Times,serif" font-size="14.00" fill="#000000">$mux</text>
<polyline fill="none" stroke="#000000" points="425.0632,-206.8494 425.0632,-275.8494 "/>
<text text-anchor="middle" x="438.5632" y="-237.6494" font-family="Times,serif" font-size="14.00" fill="#000000">Y</text>
</g>
<!-- n6&#45;&gt;c25 -->
<g id="edge21" class="edge">
<title>n6:e&#45;&gt;c25:w</title>
<path fill="none" stroke="#000000" stroke-width="3" d="M274.6612,-278.3494C307.4842,-278.3494 311.0884,-248.4834 337.9763,-242.4169"/>
<polygon fill="#000000" stroke="#000000" stroke-width="3" points="338.4871,-245.8824 348.0632,-241.3494 337.7504,-238.9213 338.4871,-245.8824"/>
</g>
<!-- n7 -->
<g id="node3" class="node">
<title>n7</title>
<polygon fill="none" stroke="#000000" points="457.9366,-162.8936 457.9366,-177.8053 424.0352,-188.3494 376.0913,-188.3494 342.1898,-177.8053 342.1898,-162.8936 376.0913,-152.3494 424.0352,-152.3494 457.9366,-162.8936"/>
<text text-anchor="middle" x="400.0632" y="-166.6494" font-family="Times,serif" font-size="14.00" fill="#000000">DATA_out</text>
</g>
<!-- n8 -->
<g id="node4" class="node">
<title>n8</title>
<polygon fill="none" stroke="#000000" points="306.593,-216.8936 306.593,-231.8053 257.4269,-242.3494 187.8955,-242.3494 138.7294,-231.8053 138.7294,-216.8936 187.8955,-206.3494 257.4269,-206.3494 306.593,-216.8936"/>
<text text-anchor="middle" x="222.6612" y="-220.6494" font-family="Times,serif" font-size="14.00" fill="#000000">PARALLEL_EN</text>
</g>
<!-- c23 -->
<g id="node12" class="node">
<title>c23</title>
<polygon fill="none" stroke="#000000" points="348.0632,-294.8494 348.0632,-363.8494 452.0632,-363.8494 452.0632,-294.8494 348.0632,-294.8494"/>
<text text-anchor="middle" x="361.5632" y="-348.6494" font-family="Times,serif" font-size="14.00" fill="#000000">A</text>
<polyline fill="none" stroke="#000000" points="348.0632,-340.8494 375.0632,-340.8494 "/>
<text text-anchor="middle" x="361.5632" y="-325.6494" font-family="Times,serif" font-size="14.00" fill="#000000">B</text>
<polyline fill="none" stroke="#000000" points="348.0632,-317.8494 375.0632,-317.8494 "/>
<text text-anchor="middle" x="361.5632" y="-302.6494" font-family="Times,serif" font-size="14.00" fill="#000000">S</text>
<polyline fill="none" stroke="#000000" points="375.0632,-294.8494 375.0632,-363.8494 "/>
<text text-anchor="middle" x="400.0632" y="-333.1494" font-family="Times,serif" font-size="14.00" fill="#000000">$231</text>
<text text-anchor="middle" x="400.0632" y="-318.1494" font-family="Times,serif" font-size="14.00" fill="#000000">$mux</text>
<polyline fill="none" stroke="#000000" points="425.0632,-294.8494 425.0632,-363.8494 "/>
<text text-anchor="middle" x="438.5632" y="-325.6494" font-family="Times,serif" font-size="14.00" fill="#000000">Y</text>
</g>
<!-- n8&#45;&gt;c23 -->
<g id="edge23" class="edge">
<title>n8:e&#45;&gt;c23:w</title>
<path fill="none" stroke="#000000" d="M306.3768,-224.3494C343.2678,-224.3494 314.2358,-291.1158 338.2512,-304.1561"/>
<polygon fill="#000000" stroke="#000000" points="337.5405,-307.5836 348.0632,-306.3494 339.0676,-300.7522 337.5405,-307.5836"/>
</g>
<!-- n8&#45;&gt;c25 -->
<g id="edge24" class="edge">
<title>n8:e&#45;&gt;c25:w</title>
<path fill="none" stroke="#000000" d="M306.3768,-224.3494C321.1467,-224.3494 326.9083,-220.6137 337.8778,-219.0377"/>
<polygon fill="#000000" stroke="#000000" points="338.322,-222.5158 348.0632,-218.3494 337.85,-215.5317 338.322,-222.5158"/>
</g>
<!-- n9 -->
<g id="node5" class="node">
<title>n9</title>
<polygon fill="none" stroke="#000000" points="86.8229,-397.8936 86.8229,-412.8053 66.1153,-423.3494 36.8303,-423.3494 16.1227,-412.8053 16.1227,-397.8936 36.8303,-387.3494 66.1153,-387.3494 86.8229,-397.8936"/>
<text text-anchor="middle" x="51.4728" y="-401.6494" font-family="Times,serif" font-size="14.00" fill="#000000">bit_in</text>
</g>
<!-- n9&#45;&gt;x1 -->
<g id="edge25" class="edge">
<title>n9:e&#45;&gt;x1:w</title>
<path fill="none" stroke="#000000" d="M87.4728,-405.3494C129.3417,-405.3494 142.2621,-405.3494 179.6078,-405.3494"/>
<polygon fill="#000000" stroke="#000000" points="179.6613,-408.8495 189.6612,-405.3494 179.6612,-401.8495 179.6613,-408.8495"/>
</g>
<!-- n10 -->
<g id="node6" class="node">
<title>n10</title>
<polygon fill="none" stroke="#000000" points="1125.8403,-277.8936 1125.8403,-292.8053 1102.0538,-303.3494 1068.4146,-303.3494 1044.6281,-292.8053 1044.6281,-277.8936 1068.4146,-267.3494 1102.0538,-267.3494 1125.8403,-277.8936"/>
<text text-anchor="middle" x="1085.2342" y="-281.6494" font-family="Times,serif" font-size="14.00" fill="#000000">bit_out</text>
</g>
<!-- n11 -->
<g id="node7" class="node">
<title>n11</title>
<polygon fill="none" stroke="#000000" points="854.0906,-303.3494 789.9082,-285.3494 854.0906,-267.3494 918.273,-285.3494 854.0906,-303.3494"/>
<text text-anchor="middle" x="854.0906" y="-281.6494" font-family="Times,serif" font-size="14.00" fill="#000000">bit_out_r</text>
</g>
<!-- n11&#45;&gt;c23 -->
<g id="edge6" class="edge">
<title>n11:e&#45;&gt;c23:w</title>
<path fill="none" stroke="#000000" d="M918.0906,-285.3494C926.0906,-285.3494 923.3676,-297.3367 918.0906,-303.3494 780.3012,-460.3499 660.5111,-350.7651 452.0632,-364.3494 452.0632,-364.3494 383.407,-341.244 357.6609,-332.5794"/>
<polygon fill="#000000" stroke="#000000" points="358.6573,-329.2219 348.0632,-329.3494 356.4245,-335.8563 358.6573,-329.2219"/>
</g>
<!-- c24 -->
<g id="node14" class="node">
<title>c24</title>
<polygon fill="none" stroke="#000000" points="493.7496,-225.8494 493.7496,-294.8494 597.7496,-294.8494 597.7496,-225.8494 493.7496,-225.8494"/>
<text text-anchor="middle" x="507.2496" y="-279.6494" font-family="Times,serif" font-size="14.00" fill="#000000">A</text>
<polyline fill="none" stroke="#000000" points="493.7496,-271.8494 520.7496,-271.8494 "/>
<text text-anchor="middle" x="507.2496" y="-256.6494" font-family="Times,serif" font-size="14.00" fill="#000000">B</text>
<polyline fill="none" stroke="#000000" points="493.7496,-248.8494 520.7496,-248.8494 "/>
<text text-anchor="middle" x="507.2496" y="-233.6494" font-family="Times,serif" font-size="14.00" fill="#000000">S</text>
<polyline fill="none" stroke="#000000" points="520.7496,-225.8494 520.7496,-294.8494 "/>
<text text-anchor="middle" x="545.7496" y="-264.1494" font-family="Times,serif" font-size="14.00" fill="#000000">$233</text>
<text text-anchor="middle" x="545.7496" y="-249.1494" font-family="Times,serif" font-size="14.00" fill="#000000">$mux</text>
<polyline fill="none" stroke="#000000" points="570.7496,-225.8494 570.7496,-294.8494 "/>
<text text-anchor="middle" x="584.2496" y="-256.6494" font-family="Times,serif" font-size="14.00" fill="#000000">Y</text>
</g>
<!-- n11&#45;&gt;c24 -->
<g id="edge7" class="edge">
<title>n11:e&#45;&gt;c24:w</title>
<path fill="none" stroke="#000000" d="M918.0906,-285.3494C918.0906,-285.3494 789.7496,-303.3494 789.7496,-303.3494 756.8517,-302.9049 516.6976,-318.9261 493.7496,-295.3494 493.1684,-294.7523 492.6385,-294.0488 492.1786,-293.2867"/>
<polygon fill="#000000" stroke="#000000" points="495.6451,-293.7733 493.7496,-283.3494 488.731,-292.6802 495.6451,-293.7733"/>
</g>
<!-- x3 -->
<g id="node19" class="node">
<title>x3</title>
<path fill="none" stroke="#000000" d="M996.4316,-303.3494C996.4316,-303.3494 966.4316,-303.3494 966.4316,-303.3494 960.4316,-303.3494 954.4316,-297.3494 954.4316,-291.3494 954.4316,-291.3494 954.4316,-279.3494 954.4316,-279.3494 954.4316,-273.3494 960.4316,-267.3494 966.4316,-267.3494 966.4316,-267.3494 996.4316,-267.3494 996.4316,-267.3494 1002.4316,-267.3494 1008.4316,-273.3494 1008.4316,-279.3494 1008.4316,-279.3494 1008.4316,-291.3494 1008.4316,-291.3494 1008.4316,-297.3494 1002.4316,-303.3494 996.4316,-303.3494"/>
<text text-anchor="middle" x="981.4316" y="-281.6494" font-family="Times,serif" font-size="14.00" fill="#000000">BUF</text>
</g>
<!-- n11&#45;&gt;x3 -->
<g id="edge8" class="edge">
<title>n11:e&#45;&gt;x3:w</title>
<path fill="none" stroke="#000000" d="M918.0906,-285.3494C930.2043,-285.3494 935.504,-285.3494 944.2107,-285.3494"/>
<polygon fill="#000000" stroke="#000000" points="944.4317,-288.8495 954.4316,-285.3494 944.4316,-281.8495 944.4317,-288.8495"/>
</g>
<!-- n12 -->
<g id="node8" class="node">
<title>n12</title>
<polygon fill="none" stroke="#000000" points="572.7496,-175.8936 572.7496,-190.8053 556.9334,-201.3494 534.5658,-201.3494 518.7496,-190.8053 518.7496,-175.8936 534.5658,-165.3494 556.9334,-165.3494 572.7496,-175.8936"/>
<text text-anchor="middle" x="545.7496" y="-179.6494" font-family="Times,serif" font-size="14.00" fill="#000000">clk</text>
</g>
<!-- c17 -->
<g id="node10" class="node">
<title>c17</title>
<polygon fill="none" stroke="#000000" points="633.7496,-90.3494 633.7496,-136.3494 753.7496,-136.3494 753.7496,-90.3494 633.7496,-90.3494"/>
<text text-anchor="middle" x="656.7496" y="-121.1494" font-family="Times,serif" font-size="14.00" fill="#000000">CLK</text>
<polyline fill="none" stroke="#000000" points="633.7496,-113.3494 679.7496,-113.3494 "/>
<text text-anchor="middle" x="656.7496" y="-98.1494" font-family="Times,serif" font-size="14.00" fill="#000000">D</text>
<polyline fill="none" stroke="#000000" points="679.7496,-90.3494 679.7496,-136.3494 "/>
<text text-anchor="middle" x="703.2496" y="-117.1494" font-family="Times,serif" font-size="14.00" fill="#000000">$603</text>
<text text-anchor="middle" x="703.2496" y="-102.1494" font-family="Times,serif" font-size="14.00" fill="#000000">$dff</text>
<polyline fill="none" stroke="#000000" points="726.7496,-90.3494 726.7496,-136.3494 "/>
<text text-anchor="middle" x="740.2496" y="-109.6494" font-family="Times,serif" font-size="14.00" fill="#000000">Q</text>
</g>
<!-- n12&#45;&gt;c17 -->
<g id="edge9" class="edge">
<title>n12:e&#45;&gt;c17:w</title>
<path fill="none" stroke="#000000" d="M572.7496,-183.3494C606.3601,-183.3494 598.6184,-136.5324 623.8292,-127.0227"/>
<polygon fill="#000000" stroke="#000000" points="624.471,-130.464 633.7496,-125.3494 623.3067,-123.5615 624.471,-130.464"/>
</g>
<!-- c18 -->
<g id="node11" class="node">
<title>c18</title>
<polygon fill="none" stroke="#000000" points="633.7496,-210.3494 633.7496,-256.3494 753.7496,-256.3494 753.7496,-210.3494 633.7496,-210.3494"/>
<text text-anchor="middle" x="656.7496" y="-241.1494" font-family="Times,serif" font-size="14.00" fill="#000000">CLK</text>
<polyline fill="none" stroke="#000000" points="633.7496,-233.3494 679.7496,-233.3494 "/>
<text text-anchor="middle" x="656.7496" y="-218.1494" font-family="Times,serif" font-size="14.00" fill="#000000">D</text>
<polyline fill="none" stroke="#000000" points="679.7496,-210.3494 679.7496,-256.3494 "/>
<text text-anchor="middle" x="703.2496" y="-237.1494" font-family="Times,serif" font-size="14.00" fill="#000000">$604</text>
<text text-anchor="middle" x="703.2496" y="-222.1494" font-family="Times,serif" font-size="14.00" fill="#000000">$dff</text>
<polyline fill="none" stroke="#000000" points="726.7496,-210.3494 726.7496,-256.3494 "/>
<text text-anchor="middle" x="740.2496" y="-229.6494" font-family="Times,serif" font-size="14.00" fill="#000000">Q</text>
</g>
<!-- n12&#45;&gt;c18 -->
<g id="edge10" class="edge">
<title>n12:e&#45;&gt;c18:w</title>
<path fill="none" stroke="#000000" d="M572.7496,-183.3494C607.48,-183.3494 597.8397,-233.3952 623.5573,-243.5608"/>
<polygon fill="#000000" stroke="#000000" points="623.2951,-247.0682 633.7496,-245.3494 624.5051,-240.1735 623.2951,-247.0682"/>
</g>
<!-- n13 -->
<g id="node9" class="node">
<title>n13</title>
<polygon fill="none" stroke="#000000" points="437.1347,-70.8936 437.1347,-85.8053 415.4187,-96.3494 384.7077,-96.3494 362.9918,-85.8053 362.9918,-70.8936 384.7077,-60.3494 415.4187,-60.3494 437.1347,-70.8936"/>
<text text-anchor="middle" x="400.0632" y="-74.6494" font-family="Times,serif" font-size="14.00" fill="#000000">enable</text>
</g>
<!-- n13&#45;&gt;c24 -->
<g id="edge11" class="edge">
<title>n13:e&#45;&gt;c24:w</title>
<path fill="none" stroke="#000000" d="M437.0632,-78.3494C508.2768,-78.3494 427.7739,-221.611 483.5788,-236.161"/>
<polygon fill="#000000" stroke="#000000" points="483.4109,-239.6651 493.7496,-237.3494 484.2234,-232.7124 483.4109,-239.6651"/>
</g>
<!-- n13&#45;&gt;c26 -->
<g id="edge12" class="edge">
<title>n13:e&#45;&gt;c26:w</title>
<path fill="none" stroke="#000000" d="M437.0632,-78.3494C458.5174,-78.3494 466.2695,-78.3494 483.6558,-78.3494"/>
<polygon fill="#000000" stroke="#000000" points="483.7496,-81.8495 493.7496,-78.3494 483.7496,-74.8495 483.7496,-81.8495"/>
</g>
<!-- c17&#45;&gt;n5 -->
<g id="edge16" class="edge">
<title>c17:e&#45;&gt;n5:w</title>
<path fill="none" stroke="#000000" stroke-width="3" d="M753.7496,-113.3494C778.2255,-113.3494 801.3442,-244.9345 633.7496,-136.8494 601.1533,-115.8274 629.8883,-79.0646 597.7496,-57.3494 503.6795,6.2111 454.8142,-35.6341 342.3768,-51.3494 249.2651,-64.3636 210.2151,-48.0321 138.9456,-109.3494 109.6964,-134.5143 135.3967,-167.4756 102.9456,-188.3494 102.9456,-188.3494 35.2926,-176.5806 9.3942,-172.0754"/>
<polygon fill="#000000" stroke="#000000" stroke-width="3" points="9.9247,-168.6152 -.5272,-170.3494 8.725,-175.5116 9.9247,-168.6152"/>
</g>
<!-- c18&#45;&gt;n11 -->
<g id="edge5" class="edge">
<title>c18:e&#45;&gt;n11:w</title>
<path fill="none" stroke="#000000" d="M753.7496,-233.3494C777.76,-233.3494 766.7843,-271.0577 780.4082,-282.2523"/>
<polygon fill="#000000" stroke="#000000" points="779.4997,-285.6363 790.0906,-285.3494 781.6324,-278.9691 779.4997,-285.6363"/>
</g>
<!-- c23&#45;&gt;c24 -->
<g id="edge14" class="edge">
<title>c23:e&#45;&gt;c24:w</title>
<path fill="none" stroke="#000000" d="M452.0632,-329.3494C483.8333,-329.3494 463.8668,-275.0968 483.9153,-262.8052"/>
<polygon fill="#000000" stroke="#000000" points="484.8955,-266.168 493.7496,-260.3494 483.1995,-259.3765 484.8955,-266.168"/>
</g>
<!-- x0&#45;&gt;c23 -->
<g id="edge1" class="edge">
<title>x0:e&#45;&gt;c23:w</title>
<path fill="none" stroke="#000000" d="M267.8916,-333.9389C296.0276,-336.7701 307.7387,-348.9509 335.9014,-351.7668"/>
<polygon fill="none" stroke="#000000" points="267.6473,-333.9272 261.4617,-337.6337 255.6612,-333.3494 261.8469,-329.643 267.6473,-333.9272"/>
<polygon fill="none" stroke="#000000" points="336.077,-351.7752 342.2615,-348.0669 348.0632,-352.3494 341.8787,-356.0577 336.077,-351.7752"/>
</g>
<!-- c24&#45;&gt;c18 -->
<g id="edge13" class="edge">
<title>c24:e&#45;&gt;c18:w</title>
<path fill="none" stroke="#000000" d="M597.7496,-260.3494C617.1,-260.3494 613.0551,-234.1058 623.9978,-224.6746"/>
<polygon fill="#000000" stroke="#000000" points="625.4143,-227.8895 633.7496,-221.3494 623.1551,-221.2641 625.4143,-227.8895"/>
</g>
<!-- c25&#45;&gt;c26 -->
<g id="edge15" class="edge">
<title>c25:e&#45;&gt;c26:w</title>
<path fill="none" stroke="#000000" stroke-width="3" d="M452.0632,-241.3494C513.0544,-241.3494 438.9418,-117.7893 483.5727,-102.827"/>
<polygon fill="#000000" stroke="#000000" stroke-width="3" points="484.3563,-106.25 493.7496,-101.3494 483.3505,-99.3226 484.3563,-106.25"/>
</g>
<!-- x1&#45;&gt;c25 -->
<g id="edge2" class="edge">
<title>x1:e&#45;&gt;c25:w</title>
<path fill="none" stroke="#000000" stroke-width="3" d="M267.7949,-392.3258C284.9467,-389.0637 292.0419,-378.1319 306.3768,-361.3494 333.7577,-329.2935 307.7111,-276.5407 336.1674,-266.1559"/>
<polygon fill="none" stroke="#000000" stroke-width="3" points="267.6187,-392.3405 261.9763,-396.8308 255.6612,-393.3494 261.3037,-388.8591 267.6187,-392.3405"/>
<polygon fill="none" stroke="#000000" stroke-width="3" points="336.1992,-266.1511 341.5307,-261.2956 348.0632,-264.3494 342.7318,-269.2049 336.1992,-266.1511"/>
</g>
<!-- c26&#45;&gt;c17 -->
<g id="edge3" class="edge">
<title>c26:e&#45;&gt;c17:w</title>
<path fill="none" stroke="#000000" stroke-width="3" d="M597.7496,-101.3494C609.7496,-101.3494 614.9996,-101.3494 623.6246,-101.3494"/>
<polygon fill="#000000" stroke="#000000" stroke-width="3" points="623.7496,-104.8495 633.7496,-101.3494 623.7496,-97.8495 623.7496,-104.8495"/>
</g>
<!-- x2&#45;&gt;n7 -->
<g id="edge22" class="edge">
<title>x2:e&#45;&gt;n7:w</title>
<path fill="none" stroke="#000000" stroke-width="3" d="M249.6612,-170.3494C287.166,-170.3494 299.0693,-170.3494 331.9738,-170.3494"/>
<polygon fill="#000000" stroke="#000000" stroke-width="3" points="332.3769,-173.8495 342.3768,-170.3494 332.3768,-166.8495 332.3769,-173.8495"/>
</g>
<!-- x3&#45;&gt;n10 -->
<g id="edge4" class="edge">
<title>x3:e&#45;&gt;n10:w</title>
<path fill="none" stroke="#000000" d="M1008.4316,-285.3494C1020.4316,-285.3494 1025.6816,-285.3494 1034.3066,-285.3494"/>
<polygon fill="#000000" stroke="#000000" points="1034.4317,-288.8495 1044.4316,-285.3494 1034.4316,-281.8495 1034.4317,-288.8495"/>
</g>
</g>
</svg>
