<?xml version="1.0" encoding="UTF-8" standalone="no"?>
<!DOCTYPE svg PUBLIC "-//W3C//DTD SVG 1.1//EN"
 "http://www.w3.org/Graphics/SVG/1.1/DTD/svg11.dtd">
<!-- Generated by graphviz version 2.40.1 (20161225.0304)
 -->
<!-- Title: USB3300_parser Pages: 1 -->
<svg width="853pt" height="1525pt"
 viewBox="0.00 0.00 853.42 1525.00" xmlns="http://www.w3.org/2000/svg" xmlns:xlink="http://www.w3.org/1999/xlink">
<g id="graph0" class="graph" transform="scale(1 1) rotate(0) translate(4 1521)">
<title>USB3300_parser</title>
<polygon fill="#ffffff" stroke="transparent" points="-4,4 -4,-1521 849.4169,-1521 849.4169,4 -4,4"/>
<text text-anchor="middle" x="422.7085" y="-7.8" font-family="Times,serif" font-size="14.00" fill="#000000">USB3300_parser</text>
<!-- n1 -->
<g id="node1" class="node">
<title>n1</title>
<polygon fill="none" stroke="#000000" points="112.1372,-1463 7.5689,-1445 112.1372,-1427 216.7055,-1445 112.1372,-1463"/>
<text text-anchor="middle" x="112.1372" y="-1441.3" font-family="Times,serif" font-size="14.00" fill="#000000">BANK1_ADDR</text>
</g>
<!-- c35 -->
<g id="node31" class="node">
<title>c35</title>
<polygon fill="none" stroke="#000000" points="290.7744,-1364 290.7744,-1456 541.7744,-1456 541.7744,-1364 290.7744,-1364"/>
<text text-anchor="middle" x="327.7744" y="-1440.8" font-family="Times,serif" font-size="14.00" fill="#000000">ADDR</text>
<polyline fill="none" stroke="#000000" points="290.7744,-1433 364.7744,-1433 "/>
<text text-anchor="middle" x="327.7744" y="-1417.8" font-family="Times,serif" font-size="14.00" fill="#000000">DATA_in</text>
<polyline fill="none" stroke="#000000" points="290.7744,-1410 364.7744,-1410 "/>
<text text-anchor="middle" x="327.7744" y="-1394.8" font-family="Times,serif" font-size="14.00" fill="#000000">WD</text>
<polyline fill="none" stroke="#000000" points="290.7744,-1387 364.7744,-1387 "/>
<text text-anchor="middle" x="327.7744" y="-1371.8" font-family="Times,serif" font-size="14.00" fill="#000000">clk</text>
<polyline fill="none" stroke="#000000" points="364.7744,-1364 364.7744,-1456 "/>
<text text-anchor="middle" x="412.2744" y="-1413.8" font-family="Times,serif" font-size="14.00" fill="#000000">bank1</text>
<text text-anchor="middle" x="412.2744" y="-1398.8" font-family="Times,serif" font-size="14.00" fill="#000000">REG_BANK</text>
<polyline fill="none" stroke="#000000" points="459.7744,-1364 459.7744,-1456 "/>
<text text-anchor="middle" x="500.7744" y="-1406.3" font-family="Times,serif" font-size="14.00" fill="#000000">DATA_out</text>
</g>
<!-- n1&#45;&gt;c35 -->
<g id="edge2" class="edge">
<title>n1:e&#45;&gt;c35:w</title>
<path fill="none" stroke="#000000" stroke-width="3" d="M217.1372,-1445C245.9603,-1445 255.615,-1445 280.0953,-1445"/>
<polygon fill="#000000" stroke="#000000" stroke-width="3" points="280.2744,-1448.5001 290.2744,-1445 280.2743,-1441.5001 280.2744,-1448.5001"/>
</g>
<!-- n1&#45;&gt;c35 -->
<g id="edge3" class="edge">
<title>n1:e&#45;&gt;c35:w</title>
<path fill="none" stroke="#000000" stroke-width="3" d="M217.1372,-1445C247.4851,-1445 254.7605,-1426.7561 280.0613,-1422.7653"/>
<polygon fill="#000000" stroke="#000000" stroke-width="3" points="280.5639,-1426.2375 290.2744,-1422 280.0408,-1419.2571 280.5639,-1426.2375"/>
</g>
<!-- n2 -->
<g id="node2" class="node">
<title>n2</title>
<polygon fill="none" stroke="#000000" points="112.1372,-1409 22.8204,-1391 112.1372,-1373 201.454,-1391 112.1372,-1409"/>
<text text-anchor="middle" x="112.1372" y="-1387.3" font-family="Times,serif" font-size="14.00" fill="#000000">BANK1_WD</text>
</g>
<!-- n2&#45;&gt;c35 -->
<g id="edge14" class="edge">
<title>n2:e&#45;&gt;c35:w</title>
<path fill="none" stroke="#000000" d="M202.1372,-1391C237.7487,-1391 248.9275,-1396.749 279.9579,-1397.827"/>
<polygon fill="#000000" stroke="#000000" points="280.217,-1401.3317 290.2744,-1398 280.3345,-1394.3327 280.217,-1401.3317"/>
</g>
<!-- n3 -->
<g id="node3" class="node">
<title>n3</title>
<polygon fill="none" stroke="#000000" points="726.8457,-1328 651.6036,-1310 726.8457,-1292 802.0877,-1310 726.8457,-1328"/>
<text text-anchor="middle" x="726.8457" y="-1306.3" font-family="Times,serif" font-size="14.00" fill="#000000">DATA_out</text>
</g>
<!-- n4 -->
<g id="node4" class="node">
<title>n4</title>
<polygon fill="none" stroke="#000000" points="726.8457,-1274 661.8244,-1256 726.8457,-1238 791.8669,-1256 726.8457,-1274"/>
<text text-anchor="middle" x="726.8457" y="-1252.3" font-family="Times,serif" font-size="14.00" fill="#000000">SPI_EoB</text>
</g>
<!-- n5 -->
<g id="node5" class="node">
<title>n5</title>
<polygon fill="none" stroke="#000000" points="783.8114,-1194.5442 783.8114,-1209.4558 750.4417,-1220 703.2497,-1220 669.8799,-1209.4558 669.8799,-1194.5442 703.2497,-1184 750.4417,-1184 783.8114,-1194.5442"/>
<text text-anchor="middle" x="726.8457" y="-1198.3" font-family="Times,serif" font-size="14.00" fill="#000000">SPI_MISO</text>
</g>
<!-- n6 -->
<g id="node6" class="node">
<title>n6</title>
<polygon fill="none" stroke="#000000" points="169.103,-1275.5442 169.103,-1290.4558 135.7332,-1301 88.5412,-1301 55.1714,-1290.4558 55.1714,-1275.5442 88.5412,-1265 135.7332,-1265 169.103,-1275.5442"/>
<text text-anchor="middle" x="112.1372" y="-1279.3" font-family="Times,serif" font-size="14.00" fill="#000000">SPI_MOSI</text>
</g>
<!-- c46 -->
<g id="node35" class="node">
<title>c46</title>
<polygon fill="none" stroke="#000000" points="260.2744,-1094.5 260.2744,-1255.5 572.2744,-1255.5 572.2744,-1094.5 260.2744,-1094.5"/>
<text text-anchor="middle" x="317.2744" y="-1240.3" font-family="Times,serif" font-size="14.00" fill="#000000">DATA_in</text>
<polyline fill="none" stroke="#000000" points="260.2744,-1232.5 374.2744,-1232.5 "/>
<text text-anchor="middle" x="317.2744" y="-1217.3" font-family="Times,serif" font-size="14.00" fill="#000000">MOSI</text>
<polyline fill="none" stroke="#000000" points="260.2744,-1209.5 374.2744,-1209.5 "/>
<text text-anchor="middle" x="317.2744" y="-1194.3" font-family="Times,serif" font-size="14.00" fill="#000000">SCLK</text>
<polyline fill="none" stroke="#000000" points="260.2744,-1186.5 374.2744,-1186.5 "/>
<text text-anchor="middle" x="317.2744" y="-1171.3" font-family="Times,serif" font-size="14.00" fill="#000000">SS</text>
<polyline fill="none" stroke="#000000" points="260.2744,-1163.5 374.2744,-1163.5 "/>
<text text-anchor="middle" x="317.2744" y="-1148.3" font-family="Times,serif" font-size="14.00" fill="#000000">clk</text>
<polyline fill="none" stroke="#000000" points="260.2744,-1140.5 374.2744,-1140.5 "/>
<text text-anchor="middle" x="317.2744" y="-1125.3" font-family="Times,serif" font-size="14.00" fill="#000000">data_out_latched</text>
<polyline fill="none" stroke="#000000" points="260.2744,-1117.5 374.2744,-1117.5 "/>
<text text-anchor="middle" x="317.2744" y="-1102.3" font-family="Times,serif" font-size="14.00" fill="#000000">rst</text>
<polyline fill="none" stroke="#000000" points="374.2744,-1094.5 374.2744,-1255.5 "/>
<text text-anchor="middle" x="419.7744" y="-1178.8" font-family="Times,serif" font-size="14.00" fill="#000000">spi</text>
<text text-anchor="middle" x="419.7744" y="-1163.8" font-family="Times,serif" font-size="14.00" fill="#000000">SPI_COMM</text>
<polyline fill="none" stroke="#000000" points="465.2744,-1094.5 465.2744,-1255.5 "/>
<text text-anchor="middle" x="518.7744" y="-1238.8" font-family="Times,serif" font-size="14.00" fill="#000000">DATA_out</text>
<polyline fill="none" stroke="#000000" points="465.2744,-1229.5 572.2744,-1229.5 "/>
<text text-anchor="middle" x="518.7744" y="-1212.3" font-family="Times,serif" font-size="14.00" fill="#000000">EoB</text>
<polyline fill="none" stroke="#000000" points="465.2744,-1202.5 572.2744,-1202.5 "/>
<text text-anchor="middle" x="518.7744" y="-1185.3" font-family="Times,serif" font-size="14.00" fill="#000000">MISO</text>
<polyline fill="none" stroke="#000000" points="465.2744,-1175.5 572.2744,-1175.5 "/>
<text text-anchor="middle" x="518.7744" y="-1158.3" font-family="Times,serif" font-size="14.00" fill="#000000">data_in_latched</text>
<polyline fill="none" stroke="#000000" points="465.2744,-1148.5 572.2744,-1148.5 "/>
<text text-anchor="middle" x="518.7744" y="-1131.3" font-family="Times,serif" font-size="14.00" fill="#000000">err</text>
<polyline fill="none" stroke="#000000" points="465.2744,-1121.5 572.2744,-1121.5 "/>
<text text-anchor="middle" x="518.7744" y="-1104.3" font-family="Times,serif" font-size="14.00" fill="#000000">status</text>
</g>
<!-- n6&#45;&gt;c46 -->
<g id="edge32" class="edge">
<title>n6:e&#45;&gt;c46:w</title>
<path fill="none" stroke="#000000" d="M169.1372,-1283C196.423,-1283 201.9619,-1271.7057 224.2744,-1256 239.1008,-1245.5636 238.8683,-1228.9809 250.2293,-1223.1293"/>
<polygon fill="#000000" stroke="#000000" points="251.2175,-1226.4976 260.2744,-1221 249.7659,-1219.6498 251.2175,-1226.4976"/>
</g>
<!-- n7 -->
<g id="node7" class="node">
<title>n7</title>
<polygon fill="none" stroke="#000000" points="164.2541,-1221.5442 164.2541,-1236.4558 133.7247,-1247 90.5496,-1247 60.0202,-1236.4558 60.0202,-1221.5442 90.5496,-1211 133.7247,-1211 164.2541,-1221.5442"/>
<text text-anchor="middle" x="112.1372" y="-1225.3" font-family="Times,serif" font-size="14.00" fill="#000000">SPI_SCK</text>
</g>
<!-- n7&#45;&gt;c46 -->
<g id="edge33" class="edge">
<title>n7:e&#45;&gt;c46:w</title>
<path fill="none" stroke="#000000" d="M164.1372,-1229C205.3485,-1229 214.0793,-1202.8773 249.9618,-1198.5916"/>
<polygon fill="#000000" stroke="#000000" points="250.4913,-1202.0671 260.2744,-1198 250.0903,-1195.0785 250.4913,-1202.0671"/>
</g>
<!-- n8 -->
<g id="node8" class="node">
<title>n8</title>
<polygon fill="none" stroke="#000000" points="155.8706,-1167.5442 155.8706,-1182.4558 130.2521,-1193 94.0222,-1193 68.4038,-1182.4558 68.4038,-1167.5442 94.0222,-1157 130.2521,-1157 155.8706,-1167.5442"/>
<text text-anchor="middle" x="112.1372" y="-1171.3" font-family="Times,serif" font-size="14.00" fill="#000000">SPI_SS</text>
</g>
<!-- n8&#45;&gt;c46 -->
<g id="edge34" class="edge">
<title>n8:e&#45;&gt;c46:w</title>
<path fill="none" stroke="#000000" d="M156.1372,-1175C198.8045,-1175 211.9714,-1175 250.0292,-1175"/>
<polygon fill="#000000" stroke="#000000" points="250.2744,-1178.5001 260.2744,-1175 250.2743,-1171.5001 250.2744,-1178.5001"/>
</g>
<!-- n9 -->
<g id="node9" class="node">
<title>n9</title>
<polygon fill="none" stroke="#000000" points="726.8457,-1112 671.5464,-1094 726.8457,-1076 782.1449,-1094 726.8457,-1112"/>
<text text-anchor="middle" x="726.8457" y="-1090.3" font-family="Times,serif" font-size="14.00" fill="#000000">SPI_err</text>
</g>
<!-- n10 -->
<g id="node10" class="node">
<title>n10</title>
<polygon fill="none" stroke="#000000" points="726.8457,-1166 623.9544,-1148 726.8457,-1130 829.7369,-1148 726.8457,-1166"/>
<text text-anchor="middle" x="726.8457" y="-1144.3" font-family="Times,serif" font-size="14.00" fill="#000000">SPI_out_latched</text>
</g>
<!-- n11 -->
<g id="node11" class="node">
<title>n11</title>
<polygon fill="none" stroke="#000000" points="726.8457,-1058 656.2947,-1040 726.8457,-1022 797.3966,-1040 726.8457,-1058"/>
<text text-anchor="middle" x="726.8457" y="-1036.3" font-family="Times,serif" font-size="14.00" fill="#000000">SPI_status</text>
</g>
<!-- n12 -->
<g id="node12" class="node">
<title>n12</title>
<polygon fill="none" stroke="#000000" points="112.1372,-221 -.1374,-203 112.1372,-185 224.4117,-203 112.1372,-221"/>
<text text-anchor="middle" x="112.1372" y="-199.3" font-family="Times,serif" font-size="14.00" fill="#000000">UART_DATA_in</text>
</g>
<!-- c55 -->
<g id="node36" class="node">
<title>c55</title>
<polygon fill="none" stroke="#000000" points="314.2744,-91.5 314.2744,-206.5 518.2744,-206.5 518.2744,-91.5 314.2744,-91.5"/>
<text text-anchor="middle" x="351.2744" y="-188.8" font-family="Times,serif" font-size="14.00" fill="#000000">I_DATA</text>
<polyline fill="none" stroke="#000000" points="314.2744,-178.5 388.2744,-178.5 "/>
<text text-anchor="middle" x="351.2744" y="-160.3" font-family="Times,serif" font-size="14.00" fill="#000000">Rx</text>
<polyline fill="none" stroke="#000000" points="314.2744,-149.5 388.2744,-149.5 "/>
<text text-anchor="middle" x="351.2744" y="-131.3" font-family="Times,serif" font-size="14.00" fill="#000000">clk</text>
<polyline fill="none" stroke="#000000" points="314.2744,-120.5 388.2744,-120.5 "/>
<text text-anchor="middle" x="351.2744" y="-102.3" font-family="Times,serif" font-size="14.00" fill="#000000">send_data</text>
<polyline fill="none" stroke="#000000" points="388.2744,-91.5 388.2744,-206.5 "/>
<text text-anchor="middle" x="416.2744" y="-152.8" font-family="Times,serif" font-size="14.00" fill="#000000">uart</text>
<text text-anchor="middle" x="416.2744" y="-137.8" font-family="Times,serif" font-size="14.00" fill="#000000">UART</text>
<polyline fill="none" stroke="#000000" points="444.2744,-91.5 444.2744,-206.5 "/>
<text text-anchor="middle" x="481.2744" y="-191.3" font-family="Times,serif" font-size="14.00" fill="#000000">NrD</text>
<polyline fill="none" stroke="#000000" points="444.2744,-183.5 518.2744,-183.5 "/>
<text text-anchor="middle" x="481.2744" y="-168.3" font-family="Times,serif" font-size="14.00" fill="#000000">O_DATA</text>
<polyline fill="none" stroke="#000000" points="444.2744,-160.5 518.2744,-160.5 "/>
<text text-anchor="middle" x="481.2744" y="-145.3" font-family="Times,serif" font-size="14.00" fill="#000000">TiP</text>
<polyline fill="none" stroke="#000000" points="444.2744,-137.5 518.2744,-137.5 "/>
<text text-anchor="middle" x="481.2744" y="-122.3" font-family="Times,serif" font-size="14.00" fill="#000000">Tx</text>
<polyline fill="none" stroke="#000000" points="444.2744,-114.5 518.2744,-114.5 "/>
<text text-anchor="middle" x="481.2744" y="-99.3" font-family="Times,serif" font-size="14.00" fill="#000000">clk_baud</text>
</g>
<!-- n12&#45;&gt;c55 -->
<g id="edge6" class="edge">
<title>n12:e&#45;&gt;c55:w</title>
<path fill="none" stroke="#000000" d="M224.1372,-203C260.8226,-203 272.0079,-194.7162 304.1112,-193.2277"/>
<polygon fill="#000000" stroke="#000000" points="304.3553,-196.7232 314.2744,-193 304.1985,-189.7249 304.3553,-196.7232"/>
</g>
<!-- n13 -->
<g id="node13" class="node">
<title>n13</title>
<polygon fill="none" stroke="#000000" points="726.8457,-221 608.203,-203 726.8457,-185 845.4883,-203 726.8457,-221"/>
<text text-anchor="middle" x="726.8457" y="-199.3" font-family="Times,serif" font-size="14.00" fill="#000000">UART_DATA_out</text>
</g>
<!-- n14 -->
<g id="node14" class="node">
<title>n14</title>
<polygon fill="none" stroke="#000000" points="726.8457,-275 645.2352,-257 726.8457,-239 808.4561,-257 726.8457,-275"/>
<text text-anchor="middle" x="726.8457" y="-253.3" font-family="Times,serif" font-size="14.00" fill="#000000">UART_NrD</text>
</g>
<!-- n15 -->
<g id="node15" class="node">
<title>n15</title>
<polygon fill="none" stroke="#000000" points="171.3241,-141.5442 171.3241,-156.4558 136.6532,-167 87.6212,-167 52.9503,-156.4558 52.9503,-141.5442 87.6212,-131 136.6532,-131 171.3241,-141.5442"/>
<text text-anchor="middle" x="112.1372" y="-145.3" font-family="Times,serif" font-size="14.00" fill="#000000">UART_RX</text>
</g>
<!-- n15&#45;&gt;c55 -->
<g id="edge9" class="edge">
<title>n15:e&#45;&gt;c55:w</title>
<path fill="none" stroke="#000000" d="M171.1372,-149C231.604,-149 248.5004,-162.4042 304.2016,-163.8703"/>
<polygon fill="#000000" stroke="#000000" points="304.2301,-167.3709 314.2744,-164 304.3203,-160.3715 304.2301,-167.3709"/>
</g>
<!-- n16 -->
<g id="node16" class="node">
<title>n16</title>
<polygon fill="none" stroke="#000000" points="785.1256,-87.5442 785.1256,-102.4558 750.986,-113 702.7053,-113 668.5657,-102.4558 668.5657,-87.5442 702.7053,-77 750.986,-77 785.1256,-87.5442"/>
<text text-anchor="middle" x="726.8457" y="-91.3" font-family="Times,serif" font-size="14.00" fill="#000000">UART_TX</text>
</g>
<!-- n17 -->
<g id="node17" class="node">
<title>n17</title>
<polygon fill="none" stroke="#000000" points="726.8457,-167 648.5887,-149 726.8457,-131 805.1026,-149 726.8457,-167"/>
<text text-anchor="middle" x="726.8457" y="-145.3" font-family="Times,serif" font-size="14.00" fill="#000000">UART_TiP</text>
</g>
<!-- n18 -->
<g id="node18" class="node">
<title>n18</title>
<polygon fill="none" stroke="#000000" points="726.8457,-59 642.2207,-41 726.8457,-23 811.4706,-41 726.8457,-59"/>
<text text-anchor="middle" x="726.8457" y="-37.3" font-family="Times,serif" font-size="14.00" fill="#000000">UART_baud</text>
</g>
<!-- n19 -->
<g id="node19" class="node">
<title>n19</title>
<polygon fill="none" stroke="#000000" points="112.1372,-113 29.1883,-95 112.1372,-77 195.0861,-95 112.1372,-113"/>
<text text-anchor="middle" x="112.1372" y="-91.3" font-family="Times,serif" font-size="14.00" fill="#000000">UART_send</text>
</g>
<!-- n19&#45;&gt;c55 -->
<g id="edge13" class="edge">
<title>n19:e&#45;&gt;c55:w</title>
<path fill="none" stroke="#000000" d="M195.1372,-95C244.7811,-95 259.2229,-104.5876 304.1916,-105.8609"/>
<polygon fill="#000000" stroke="#000000" points="304.227,-109.3616 314.2744,-106 304.3236,-102.3623 304.227,-109.3616"/>
</g>
<!-- n20 -->
<g id="node20" class="node">
<title>n20</title>
<polygon fill="none" stroke="#000000" points="793.5097,-617.5442 793.5097,-632.4558 754.4588,-643 699.2325,-643 660.1817,-632.4558 660.1817,-617.5442 699.2325,-607 754.4588,-607 793.5097,-617.5442"/>
<text text-anchor="middle" x="726.8457" y="-621.3" font-family="Times,serif" font-size="14.00" fill="#000000">ULPI_DATA</text>
</g>
<!-- n21 -->
<g id="node21" class="node">
<title>n21</title>
<polygon fill="none" stroke="#000000" points="726.8457,-770 614.5711,-752 726.8457,-734 839.1202,-752 726.8457,-770"/>
<text text-anchor="middle" x="726.8457" y="-748.3" font-family="Times,serif" font-size="14.00" fill="#000000">ULPI_DATA_out</text>
</g>
<!-- n22 -->
<g id="node22" class="node">
<title>n22</title>
<polygon fill="none" stroke="#000000" points="169.103,-897.5442 169.103,-912.4558 135.7332,-923 88.5412,-923 55.1714,-912.4558 55.1714,-897.5442 88.5412,-887 135.7332,-887 169.103,-897.5442"/>
<text text-anchor="middle" x="112.1372" y="-901.3" font-family="Times,serif" font-size="14.00" fill="#000000">ULPI_DIR</text>
</g>
<!-- c65 -->
<g id="node44" class="node">
<title>c65</title>
<polygon fill="none" stroke="#000000" points="269.2744,-593.5 269.2744,-846.5 563.2744,-846.5 563.2744,-593.5 269.2744,-593.5"/>
<text text-anchor="middle" x="326.7744" y="-831.3" font-family="Times,serif" font-size="14.00" fill="#000000">ADDR</text>
<polyline fill="none" stroke="#000000" points="269.2744,-823.5 384.2744,-823.5 "/>
<text text-anchor="middle" x="326.7744" y="-808.3" font-family="Times,serif" font-size="14.00" fill="#000000">DIR</text>
<polyline fill="none" stroke="#000000" points="269.2744,-800.5 384.2744,-800.5 "/>
<text text-anchor="middle" x="326.7744" y="-785.3" font-family="Times,serif" font-size="14.00" fill="#000000">LP</text>
<polyline fill="none" stroke="#000000" points="269.2744,-777.5 384.2744,-777.5 "/>
<text text-anchor="middle" x="326.7744" y="-762.3" font-family="Times,serif" font-size="14.00" fill="#000000">NXT</text>
<polyline fill="none" stroke="#000000" points="269.2744,-754.5 384.2744,-754.5 "/>
<text text-anchor="middle" x="326.7744" y="-739.3" font-family="Times,serif" font-size="14.00" fill="#000000">RD</text>
<polyline fill="none" stroke="#000000" points="269.2744,-731.5 384.2744,-731.5 "/>
<text text-anchor="middle" x="326.7744" y="-716.3" font-family="Times,serif" font-size="14.00" fill="#000000">REG_DATA_IN</text>
<polyline fill="none" stroke="#000000" points="269.2744,-708.5 384.2744,-708.5 "/>
<text text-anchor="middle" x="326.7744" y="-693.3" font-family="Times,serif" font-size="14.00" fill="#000000">TD</text>
<polyline fill="none" stroke="#000000" points="269.2744,-685.5 384.2744,-685.5 "/>
<text text-anchor="middle" x="326.7744" y="-670.3" font-family="Times,serif" font-size="14.00" fill="#000000">WD</text>
<polyline fill="none" stroke="#000000" points="269.2744,-662.5 384.2744,-662.5 "/>
<text text-anchor="middle" x="326.7744" y="-647.3" font-family="Times,serif" font-size="14.00" fill="#000000">clk_ext</text>
<polyline fill="none" stroke="#000000" points="269.2744,-639.5 384.2744,-639.5 "/>
<text text-anchor="middle" x="326.7744" y="-624.3" font-family="Times,serif" font-size="14.00" fill="#000000">clk_int</text>
<polyline fill="none" stroke="#000000" points="269.2744,-616.5 384.2744,-616.5 "/>
<text text-anchor="middle" x="326.7744" y="-601.3" font-family="Times,serif" font-size="14.00" fill="#000000">rst</text>
<polyline fill="none" stroke="#000000" points="384.2744,-593.5 384.2744,-846.5 "/>
<text text-anchor="middle" x="408.7744" y="-723.8" font-family="Times,serif" font-size="14.00" fill="#000000">ulpi</text>
<text text-anchor="middle" x="408.7744" y="-708.8" font-family="Times,serif" font-size="14.00" fill="#000000">ULPI</text>
<polyline fill="none" stroke="#000000" points="433.2744,-593.5 433.2744,-846.5 "/>
<text text-anchor="middle" x="498.2744" y="-811.3" font-family="Times,serif" font-size="14.00" fill="#000000">BUSY</text>
<polyline fill="none" stroke="#000000" points="433.2744,-783.5 563.2744,-783.5 "/>
<text text-anchor="middle" x="498.2744" y="-748.3" font-family="Times,serif" font-size="14.00" fill="#000000">REG_DATA_OUT</text>
<polyline fill="none" stroke="#000000" points="433.2744,-720.5 563.2744,-720.5 "/>
<text text-anchor="middle" x="498.2744" y="-685.3" font-family="Times,serif" font-size="14.00" fill="#000000">STP</text>
<polyline fill="none" stroke="#000000" points="433.2744,-657.5 563.2744,-657.5 "/>
<text text-anchor="middle" x="498.2744" y="-621.8" font-family="Times,serif" font-size="14.00" fill="#000000">ULPI_DATA</text>
</g>
<!-- n22&#45;&gt;c65 -->
<g id="edge17" class="edge">
<title>n22:e&#45;&gt;c65:w</title>
<path fill="none" stroke="#000000" d="M169.1372,-905C196.423,-905 203.6508,-895.8658 224.2744,-878 248.0687,-857.3874 237.1327,-821.4361 259.1022,-813.5554"/>
<polygon fill="#000000" stroke="#000000" points="259.9183,-816.9714 269.2744,-812 258.8602,-810.0518 259.9183,-816.9714"/>
</g>
<!-- n23 -->
<g id="node23" class="node">
<title>n23</title>
<polygon fill="none" stroke="#000000" points="172.6379,-789.5442 172.6379,-804.4558 137.1974,-815 87.077,-815 51.6365,-804.4558 51.6365,-789.5442 87.077,-779 137.1974,-779 172.6379,-789.5442"/>
<text text-anchor="middle" x="112.1372" y="-793.3" font-family="Times,serif" font-size="14.00" fill="#000000">ULPI_NXT</text>
</g>
<!-- n23&#45;&gt;c65 -->
<g id="edge18" class="edge">
<title>n23:e&#45;&gt;c65:w</title>
<path fill="none" stroke="#000000" d="M173.1372,-797C214.3485,-797 223.0793,-770.8773 258.9618,-766.5916"/>
<polygon fill="#000000" stroke="#000000" points="259.4913,-770.0671 269.2744,-766 259.0903,-763.0785 259.4913,-770.0671"/>
</g>
<!-- n24 -->
<g id="node24" class="node">
<title>n24</title>
<polygon fill="none" stroke="#000000" points="170.4171,-1491.5442 170.4171,-1506.4558 136.2775,-1517 87.9968,-1517 53.8572,-1506.4558 53.8572,-1491.5442 87.9968,-1481 136.2775,-1481 170.4171,-1491.5442"/>
<text text-anchor="middle" x="112.1372" y="-1495.3" font-family="Times,serif" font-size="14.00" fill="#000000">ULPI_RST</text>
</g>
<!-- n25 -->
<g id="node25" class="node">
<title>n25</title>
<polygon fill="none" stroke="#000000" points="784.719,-681.5442 784.719,-696.4558 750.8176,-707 702.8737,-707 668.9723,-696.4558 668.9723,-681.5442 702.8737,-671 750.8176,-671 784.719,-681.5442"/>
<text text-anchor="middle" x="726.8457" y="-685.3" font-family="Times,serif" font-size="14.00" fill="#000000">ULPI_STP</text>
</g>
<!-- n26 -->
<g id="node26" class="node">
<title>n26</title>
<polygon fill="none" stroke="#000000" points="726.8457,-833 649.4267,-815 726.8457,-797 804.2646,-815 726.8457,-833"/>
<text text-anchor="middle" x="726.8457" y="-811.3" font-family="Times,serif" font-size="14.00" fill="#000000">ULPI_busy</text>
</g>
<!-- n27 -->
<g id="node27" class="node">
<title>n27</title>
<polygon fill="none" stroke="#000000" points="112.1372,-1031 57.6756,-1013 112.1372,-995 166.5987,-1013 112.1372,-1031"/>
<text text-anchor="middle" x="112.1372" y="-1009.3" font-family="Times,serif" font-size="14.00" fill="#000000">clk_ctrl</text>
</g>
<!-- n27&#45;&gt;c35 -->
<g id="edge21" class="edge">
<title>n27:e&#45;&gt;c35:w</title>
<path fill="none" stroke="#000000" d="M166.1372,-1013C285.6967,-1013 235.0642,-1148.1286 260.2744,-1265 270.1665,-1310.8587 244.0233,-1366.085 280.2963,-1374.03"/>
<polygon fill="#000000" stroke="#000000" points="279.9826,-1377.5159 290.2744,-1375 280.66,-1370.5488 279.9826,-1377.5159"/>
</g>
<!-- n27&#45;&gt;c46 -->
<g id="edge22" class="edge">
<title>n27:e&#45;&gt;c46:w</title>
<path fill="none" stroke="#000000" d="M166.1372,-1013C194.6265,-1013 205.4139,-1018.6476 224.2744,-1040 256.3196,-1076.2793 215.0728,-1141.3772 250.2606,-1150.8403"/>
<polygon fill="#000000" stroke="#000000" points="249.9381,-1154.3262 260.2744,-1152 250.7435,-1147.3727 249.9381,-1154.3262"/>
</g>
<!-- n27&#45;&gt;c65 -->
<g id="edge23" class="edge">
<title>n27:e&#45;&gt;c65:w</title>
<path fill="none" stroke="#000000" d="M166.1372,-1013C194.6265,-1013 207.3804,-1008.9398 224.2744,-986 266.6411,-928.4717 201.1676,-677.2981 259.3114,-652.9066"/>
<polygon fill="#000000" stroke="#000000" points="260.1105,-656.3173 269.2744,-651 258.7947,-649.4421 260.1105,-656.3173"/>
</g>
<!-- c71 -->
<g id="node47" class="node">
<title>c71</title>
<polygon fill="none" stroke="#000000" points="276.2744,-299.5 276.2744,-414.5 556.2744,-414.5 556.2744,-299.5 276.2744,-299.5"/>
<text text-anchor="middle" x="341.2744" y="-399.3" font-family="Times,serif" font-size="14.00" fill="#000000">BYPASS</text>
<polyline fill="none" stroke="#000000" points="276.2744,-391.5 406.2744,-391.5 "/>
<text text-anchor="middle" x="341.2744" y="-376.3" font-family="Times,serif" font-size="14.00" fill="#000000">LOCK</text>
<polyline fill="none" stroke="#000000" points="276.2744,-368.5 406.2744,-368.5 "/>
<text text-anchor="middle" x="341.2744" y="-353.3" font-family="Times,serif" font-size="14.00" fill="#000000">PLLOUTCORE</text>
<polyline fill="none" stroke="#000000" points="276.2744,-345.5 406.2744,-345.5 "/>
<text text-anchor="middle" x="341.2744" y="-330.3" font-family="Times,serif" font-size="14.00" fill="#000000">REFERENCECLK</text>
<polyline fill="none" stroke="#000000" points="276.2744,-322.5 406.2744,-322.5 "/>
<text text-anchor="middle" x="341.2744" y="-307.3" font-family="Times,serif" font-size="14.00" fill="#000000">RESETB</text>
<polyline fill="none" stroke="#000000" points="406.2744,-299.5 406.2744,-414.5 "/>
<text text-anchor="middle" x="471.2744" y="-360.8" font-family="Times,serif" font-size="14.00" fill="#000000">uut</text>
<text text-anchor="middle" x="471.2744" y="-345.8" font-family="Times,serif" font-size="14.00" fill="#000000">SB_PLL40_CORE</text>
<polyline fill="none" stroke="#000000" points="536.2744,-299.5 536.2744,-414.5 "/>
<text text-anchor="middle" x="546.2744" y="-353.3" font-family="Times,serif" font-size="14.00" fill="#000000"> </text>
</g>
<!-- n27&#45;&gt;c71 -->
<g id="edge24" class="edge">
<title>n27:e&#45;&gt;c71:w</title>
<path fill="none" stroke="#000000" d="M166.1372,-1013C194.6265,-1013 207.9713,-1009.3634 224.2744,-986 262.4454,-931.2983 211.6017,-411.5842 266.8937,-360.9613"/>
<polygon fill="#000000" stroke="#000000" points="268.4236,-364.1145 276.2744,-357 265.7005,-357.6659 268.4236,-364.1145"/>
</g>
<!-- n28 -->
<g id="node28" class="node">
<title>n28</title>
<polygon fill="none" stroke="#000000" points="153.6493,-519.5442 153.6493,-534.4558 129.3321,-545 94.9423,-545 70.6251,-534.4558 70.6251,-519.5442 94.9423,-509 129.3321,-509 153.6493,-519.5442"/>
<text text-anchor="middle" x="112.1372" y="-523.3" font-family="Times,serif" font-size="14.00" fill="#000000">clk_ext</text>
</g>
<!-- n28&#45;&gt;c65 -->
<g id="edge25" class="edge">
<title>n28:e&#45;&gt;c65:w</title>
<path fill="none" stroke="#000000" d="M154.1372,-527C187.5393,-527 198.6402,-532.5853 224.2744,-554 250.8149,-576.1719 234.9181,-618.2357 259.3305,-626.5512"/>
<polygon fill="#000000" stroke="#000000" points="258.8742,-630.0216 269.2744,-628 259.8835,-623.0948 258.8742,-630.0216"/>
</g>
<!-- n29 -->
<g id="node29" class="node">
<title>n29</title>
<polygon fill="none" stroke="#000000" points="151.4286,-249.5442 151.4286,-264.4558 128.4122,-275 95.8621,-275 72.8457,-264.4558 72.8457,-249.5442 95.8621,-239 128.4122,-239 151.4286,-249.5442"/>
<text text-anchor="middle" x="112.1372" y="-253.3" font-family="Times,serif" font-size="14.00" fill="#000000">clk_int</text>
</g>
<!-- n29&#45;&gt;c55 -->
<g id="edge26" class="edge">
<title>n29:e&#45;&gt;c55:w</title>
<path fill="none" stroke="#000000" d="M151.1372,-257C185.7869,-257 195.3489,-249.0767 224.2744,-230 269.7925,-199.9802 257.9475,-142.7514 304.2124,-135.7151"/>
<polygon fill="#000000" stroke="#000000" points="304.5477,-139.2002 314.2744,-135 304.0514,-132.2178 304.5477,-139.2002"/>
</g>
<!-- n29&#45;&gt;c71 -->
<g id="edge27" class="edge">
<title>n29:e&#45;&gt;c71:w</title>
<path fill="none" stroke="#000000" d="M151.1372,-257C185.7869,-257 194.9121,-265.6027 224.2744,-284 248.1535,-298.9617 245.4595,-326.2474 266.2246,-332.6362"/>
<polygon fill="#000000" stroke="#000000" points="265.8945,-336.1234 276.2744,-334 266.8359,-329.187 265.8945,-336.1234"/>
</g>
<!-- n30 -->
<g id="node30" class="node">
<title>n30</title>
<polygon fill="none" stroke="#000000" points="112.1372,-383 61.5298,-365 112.1372,-347 162.7445,-365 112.1372,-383"/>
<text text-anchor="middle" x="112.1372" y="-361.3" font-family="Times,serif" font-size="14.00" fill="#000000">locked</text>
</g>
<!-- n30&#45;&gt;c71 -->
<g id="edge29" class="edge">
<title>n30:e&#45;&gt;c71:w</title>
<path fill="none" stroke="#000000" d="M163.1372,-365C210.2939,-365 223.7142,-377.9648 266.1267,-379.788"/>
<polygon fill="#000000" stroke="#000000" points="266.2034,-383.2902 276.2744,-380 266.3497,-376.2918 266.2034,-383.2902"/>
</g>
<!-- c35&#45;&gt;n1 -->
<g id="edge1" class="edge">
<title>c35:e&#45;&gt;n1:w</title>
<path fill="none" stroke="#000000" stroke-width="3" d="M542.2744,-1410C562.941,-1410 556.7412,-1441.7412 542.2744,-1456.5 441.0318,-1559.7854 361.5442,-1461.5555 216.9211,-1463 216.9211,-1463 59.1606,-1449.4637 17.2555,-1445.8682"/>
<polygon fill="#000000" stroke="#000000" stroke-width="3" points="17.3998,-1442.3678 7.1372,-1445 16.8013,-1449.3422 17.3998,-1442.3678"/>
</g>
<!-- v0 -->
<g id="node32" class="node">
<title>v0</title>
<ellipse fill="none" stroke="#000000" cx="112.1372" cy="-1337" rx="55.7903" ry="18"/>
<text text-anchor="middle" x="112.1372" y="-1333.3" font-family="Times,serif" font-size="14.00" fill="#000000">8&#39;00000000</text>
</g>
<!-- v0&#45;&gt;c46 -->
<g id="edge36" class="edge">
<title>v0:e&#45;&gt;c46:w</title>
<path fill="none" stroke="#000000" stroke-width="3" d="M168.1372,-1337C195.8228,-1337 204.2045,-1329.0708 224.2744,-1310 245.5632,-1289.771 231.4285,-1254.1174 250.3784,-1245.7791"/>
<polygon fill="#000000" stroke="#000000" stroke-width="3" points="251.0515,-1249.2143 260.2744,-1244 249.8128,-1242.3248 251.0515,-1249.2143"/>
</g>
<!-- v1 -->
<g id="node33" class="node">
<title>v1</title>
<ellipse fill="none" stroke="#000000" cx="112.1372" cy="-1121" rx="27" ry="18"/>
</g>
<!-- v1&#45;&gt;c46 -->
<g id="edge37" class="edge">
<title>v1:e&#45;&gt;c46:w</title>
<path fill="none" stroke="#000000" d="M139.1372,-1121C189.5102,-1121 204.3823,-1127.9728 250.0403,-1128.8989"/>
<polygon fill="#000000" stroke="#000000" points="250.2402,-1132.4009 260.2744,-1129 250.3095,-1125.4012 250.2402,-1132.4009"/>
</g>
<!-- v2 -->
<g id="node34" class="node">
<title>v2</title>
<ellipse fill="none" stroke="#000000" cx="112.1372" cy="-1067" rx="27" ry="18"/>
</g>
<!-- v2&#45;&gt;c46 -->
<g id="edge40" class="edge">
<title>v2:e&#45;&gt;c46:w</title>
<path fill="none" stroke="#000000" d="M139.1372,-1067C178.8332,-1067 186.5245,-1081.7232 224.2744,-1094 236.4286,-1097.9528 241.1502,-1102.806 250.064,-1104.9249"/>
<polygon fill="#000000" stroke="#000000" points="249.9628,-1108.4335 260.2744,-1106 250.6959,-1101.472 249.9628,-1108.4335"/>
</g>
<!-- c46&#45;&gt;n3 -->
<g id="edge28" class="edge">
<title>c46:e&#45;&gt;n3:w</title>
<path fill="none" stroke="#000000" stroke-width="3" d="M572.2744,-1243C596.1919,-1243 589.9254,-1267.6584 608.2744,-1283 622.7479,-1295.1014 627.507,-1305.6762 641.6535,-1308.9538"/>
<polygon fill="#000000" stroke="#000000" stroke-width="3" points="641.5405,-1312.4605 651.8457,-1310 642.2553,-1305.4971 641.5405,-1312.4605"/>
</g>
<!-- c46&#45;&gt;n4 -->
<g id="edge30" class="edge">
<title>c46:e&#45;&gt;n4:w</title>
<path fill="none" stroke="#000000" d="M572.2744,-1216C591.1785,-1216 628.2612,-1246.0806 651.9941,-1254.0707"/>
<polygon fill="#000000" stroke="#000000" points="651.3594,-1257.5128 661.8457,-1256 652.7047,-1250.6433 651.3594,-1257.5128"/>
</g>
<!-- c46&#45;&gt;n5 -->
<g id="edge31" class="edge">
<title>c46:e&#45;&gt;n5:w</title>
<path fill="none" stroke="#000000" d="M572.2744,-1189C612.4339,-1189 624.2179,-1199.9547 659.7221,-1201.7519"/>
<polygon fill="#000000" stroke="#000000" points="659.7629,-1205.2539 669.8457,-1202 659.9344,-1198.256 659.7629,-1205.2539"/>
</g>
<!-- c46&#45;&gt;n9 -->
<g id="edge35" class="edge">
<title>c46:e&#45;&gt;n9:w</title>
<path fill="none" stroke="#000000" d="M572.2744,-1135C582.3696,-1135 637.7975,-1105.8115 662.0592,-1096.6901"/>
<polygon fill="#000000" stroke="#000000" points="663.131,-1100.0254 671.8457,-1094 661.2756,-1093.2758 663.131,-1100.0254"/>
</g>
<!-- c46&#45;&gt;n10 -->
<g id="edge4" class="edge">
<title>c46:e&#45;&gt;n10:w</title>
<path fill="none" stroke="#000000" d="M572.2744,-1162C592.128,-1162 598.23,-1152.2169 613.5714,-1149.0068"/>
<polygon fill="#000000" stroke="#000000" points="614.2347,-1152.4587 623.8457,-1148 613.5519,-1145.4921 614.2347,-1152.4587"/>
</g>
<!-- c46&#45;&gt;n11 -->
<g id="edge5" class="edge">
<title>c46:e&#45;&gt;n11:w</title>
<path fill="none" stroke="#000000" stroke-width="3" d="M572.2744,-1108C596.5241,-1108 589.4679,-1082.309 608.2744,-1067 624.1823,-1054.0505 629.805,-1043.7316 645.7767,-1040.8231"/>
<polygon fill="#000000" stroke="#000000" stroke-width="3" points="646.1641,-1044.3032 655.8457,-1040 645.5937,-1037.3265 646.1641,-1044.3032"/>
</g>
<!-- c55&#45;&gt;n13 -->
<g id="edge7" class="edge">
<title>c55:e&#45;&gt;n13:w</title>
<path fill="none" stroke="#000000" d="M518.2744,-172C556.945,-172 564.7694,-197.9008 598.1384,-202.3525"/>
<polygon fill="#000000" stroke="#000000" points="598.0716,-205.8553 608.2744,-203 598.5179,-198.8695 598.0716,-205.8553"/>
</g>
<!-- c55&#45;&gt;n14 -->
<g id="edge8" class="edge">
<title>c55:e&#45;&gt;n14:w</title>
<path fill="none" stroke="#000000" d="M518.2744,-195C577.3667,-195 581.8623,-250.1755 634.7699,-256.4258"/>
<polygon fill="#000000" stroke="#000000" points="634.6627,-259.9253 644.8457,-257 635.061,-252.9366 634.6627,-259.9253"/>
</g>
<!-- c55&#45;&gt;n16 -->
<g id="edge10" class="edge">
<title>c55:e&#45;&gt;n16:w</title>
<path fill="none" stroke="#000000" d="M518.2744,-126C583.1289,-126 598.9672,-98.0685 658.8435,-95.2317"/>
<polygon fill="#000000" stroke="#000000" points="658.9294,-98.7308 668.8457,-95 658.7672,-91.7326 658.9294,-98.7308"/>
</g>
<!-- c55&#45;&gt;n17 -->
<g id="edge11" class="edge">
<title>c55:e&#45;&gt;n17:w</title>
<path fill="none" stroke="#000000" d="M518.2744,-149C572.7924,-149 588.8976,-149 638.7641,-149"/>
<polygon fill="#000000" stroke="#000000" points="638.8457,-152.5001 648.8457,-149 638.8456,-145.5001 638.8457,-152.5001"/>
</g>
<!-- c55&#45;&gt;n18 -->
<g id="edge12" class="edge">
<title>c55:e&#45;&gt;n18:w</title>
<path fill="none" stroke="#000000" d="M518.2744,-103C576.1198,-103 580.1116,-48.0528 631.6461,-41.6136"/>
<polygon fill="#000000" stroke="#000000" points="632.0739,-45.0943 641.8457,-41 631.6535,-38.107 632.0739,-45.0943"/>
</g>
<!-- v3 -->
<g id="node37" class="node">
<title>v3</title>
<ellipse fill="none" stroke="#000000" cx="112.1372" cy="-959" rx="55.7903" ry="18"/>
<text text-anchor="middle" x="112.1372" y="-955.3" font-family="Times,serif" font-size="14.00" fill="#000000">8&#39;00000000</text>
</g>
<!-- v3&#45;&gt;c65 -->
<g id="edge41" class="edge">
<title>v3:e&#45;&gt;c65:w</title>
<path fill="none" stroke="#000000" stroke-width="3" d="M168.1372,-959C195.8228,-959 204.8345,-951.7127 224.2744,-932 254.9068,-900.9376 227.1728,-845.1652 259.1786,-836.224"/>
<polygon fill="#000000" stroke="#000000" stroke-width="3" points="259.7684,-839.6782 269.2744,-835 258.9258,-832.7291 259.7684,-839.6782"/>
</g>
<!-- v4 -->
<g id="node38" class="node">
<title>v4</title>
<ellipse fill="none" stroke="#000000" cx="112.1372" cy="-851" rx="27" ry="18"/>
</g>
<!-- v4&#45;&gt;c65 -->
<g id="edge42" class="edge">
<title>v4:e&#45;&gt;c65:w</title>
<path fill="none" stroke="#000000" d="M139.1372,-851C178.8332,-851 189.1392,-842.474 224.2744,-824 243.1964,-814.0508 244.1857,-795.9739 259.2524,-790.5677"/>
<polygon fill="#000000" stroke="#000000" points="259.9355,-794.0035 269.2744,-789 258.8536,-787.0877 259.9355,-794.0035"/>
</g>
<!-- v5 -->
<g id="node39" class="node">
<title>v5</title>
<ellipse fill="none" stroke="#000000" cx="112.1372" cy="-743" rx="27" ry="18"/>
</g>
<!-- v5&#45;&gt;c65 -->
<g id="edge43" class="edge">
<title>v5:e&#45;&gt;c65:w</title>
<path fill="none" stroke="#000000" d="M139.1372,-743C193.474,-743 209.5256,-743 259.2263,-743"/>
<polygon fill="#000000" stroke="#000000" points="259.2744,-746.5001 269.2744,-743 259.2743,-739.5001 259.2744,-746.5001"/>
</g>
<!-- v6 -->
<g id="node40" class="node">
<title>v6</title>
<ellipse fill="none" stroke="#000000" cx="112.1372" cy="-689" rx="55.7903" ry="18"/>
<text text-anchor="middle" x="112.1372" y="-685.3" font-family="Times,serif" font-size="14.00" fill="#000000">8&#39;00000000</text>
</g>
<!-- v6&#45;&gt;c65 -->
<g id="edge44" class="edge">
<title>v6:e&#45;&gt;c65:w</title>
<path fill="none" stroke="#000000" stroke-width="3" d="M168.1372,-689C211.4782,-689 220.906,-715.3455 258.9481,-719.4619"/>
<polygon fill="#000000" stroke="#000000" stroke-width="3" points="259.1058,-722.9748 269.2744,-720 259.4701,-715.9843 259.1058,-722.9748"/>
</g>
<!-- v7 -->
<g id="node41" class="node">
<title>v7</title>
<ellipse fill="none" stroke="#000000" cx="112.1372" cy="-635" rx="27" ry="18"/>
</g>
<!-- v7&#45;&gt;c65 -->
<g id="edge45" class="edge">
<title>v7:e&#45;&gt;c65:w</title>
<path fill="none" stroke="#000000" d="M139.1372,-635C178.8332,-635 189.1392,-643.526 224.2744,-662 243.1964,-671.9492 244.1857,-690.0261 259.2524,-695.4323"/>
<polygon fill="#000000" stroke="#000000" points="258.8536,-698.9123 269.2744,-697 259.9355,-691.9965 258.8536,-698.9123"/>
</g>
<!-- v8 -->
<g id="node42" class="node">
<title>v8</title>
<ellipse fill="none" stroke="#000000" cx="112.1372" cy="-581" rx="27" ry="18"/>
</g>
<!-- v8&#45;&gt;c65 -->
<g id="edge46" class="edge">
<title>v8:e&#45;&gt;c65:w</title>
<path fill="none" stroke="#000000" d="M139.1372,-581C178.8332,-581 192.4282,-584.302 224.2744,-608 249.53,-626.7937 237.4638,-664.1518 259.1584,-672.3745"/>
<polygon fill="#000000" stroke="#000000" points="258.8457,-675.8691 269.2744,-674 259.9563,-668.9578 258.8457,-675.8691"/>
</g>
<!-- v9 -->
<g id="node43" class="node">
<title>v9</title>
<ellipse fill="none" stroke="#000000" cx="112.1372" cy="-473" rx="27" ry="18"/>
</g>
<!-- v9&#45;&gt;c65 -->
<g id="edge47" class="edge">
<title>v9:e&#45;&gt;c65:w</title>
<path fill="none" stroke="#000000" d="M139.1372,-473C178.8332,-473 194.8667,-473.3361 224.2744,-500 258.9487,-531.4392 224.787,-594.147 259.0153,-603.7532"/>
<polygon fill="#000000" stroke="#000000" points="258.9251,-607.2679 269.2744,-605 259.7697,-600.319 258.9251,-607.2679"/>
</g>
<!-- c65&#45;&gt;n20 -->
<g id="edge15" class="edge">
<title>c65:e&#45;&gt;n20:w</title>
<path fill="none" stroke="#000000" stroke-width="3" d="M563.2744,-625C602.5065,-625 614.8431,-625 649.4525,-625"/>
<polygon fill="#000000" stroke="#000000" stroke-width="3" points="649.8457,-628.5001 659.8457,-625 649.8456,-621.5001 649.8457,-628.5001"/>
</g>
<!-- c65&#45;&gt;n21 -->
<g id="edge16" class="edge">
<title>c65:e&#45;&gt;n21:w</title>
<path fill="none" stroke="#000000" stroke-width="3" d="M563.2744,-752C582.4345,-752 589.5822,-752 604.8007,-752"/>
<polygon fill="#000000" stroke="#000000" stroke-width="3" points="604.8457,-755.5001 614.8457,-752 604.8456,-748.5001 604.8457,-755.5001"/>
</g>
<!-- c65&#45;&gt;n25 -->
<g id="edge19" class="edge">
<title>c65:e&#45;&gt;n25:w</title>
<path fill="none" stroke="#000000" d="M563.2744,-689C606.5293,-689 619.8775,-689 658.4594,-689"/>
<polygon fill="#000000" stroke="#000000" points="658.8457,-692.5001 668.8457,-689 658.8456,-685.5001 658.8457,-692.5001"/>
</g>
<!-- c65&#45;&gt;n26 -->
<g id="edge20" class="edge">
<title>c65:e&#45;&gt;n26:w</title>
<path fill="none" stroke="#000000" d="M563.2744,-815C597.592,-815 608.6849,-815 638.4665,-815"/>
<polygon fill="#000000" stroke="#000000" points="638.8457,-818.5001 648.8457,-815 638.8456,-811.5001 638.8457,-818.5001"/>
</g>
<!-- v10 -->
<g id="node45" class="node">
<title>v10</title>
<ellipse fill="none" stroke="#000000" cx="112.1372" cy="-419" rx="27" ry="18"/>
<text text-anchor="middle" x="112.1372" y="-415.3" font-family="Times,serif" font-size="14.00" fill="#000000">1&#39;0</text>
</g>
<!-- v10&#45;&gt;c71 -->
<g id="edge38" class="edge">
<title>v10:e&#45;&gt;c71:w</title>
<path fill="none" stroke="#000000" d="M139.1372,-419C196.905,-419 213.0611,-404.8201 265.9526,-403.1584"/>
<polygon fill="#000000" stroke="#000000" points="266.3293,-406.6531 276.2744,-403 266.2218,-399.6539 266.3293,-406.6531"/>
</g>
<!-- v11 -->
<g id="node46" class="node">
<title>v11</title>
<ellipse fill="none" stroke="#000000" cx="112.1372" cy="-311" rx="27" ry="18"/>
<text text-anchor="middle" x="112.1372" y="-307.3" font-family="Times,serif" font-size="14.00" fill="#000000">1&#39;1</text>
</g>
<!-- v11&#45;&gt;c71 -->
<g id="edge39" class="edge">
<title>v11:e&#45;&gt;c71:w</title>
<path fill="none" stroke="#000000" d="M139.1372,-311C196.5158,-311 213.3819,-311 266.013,-311"/>
<polygon fill="#000000" stroke="#000000" points="266.2744,-314.5001 276.2744,-311 266.2743,-307.5001 266.2744,-314.5001"/>
</g>
</g>
</svg>
