<?xml version="1.0" encoding="UTF-8" standalone="no"?>
<!-- Created with Inkscape (http://www.inkscape.org/) -->

<svg
   xmlns:dc="http://purl.org/dc/elements/1.1/"
   xmlns:cc="http://creativecommons.org/ns#"
   xmlns:rdf="http://www.w3.org/1999/02/22-rdf-syntax-ns#"
   xmlns:svg="http://www.w3.org/2000/svg"
   xmlns="http://www.w3.org/2000/svg"
   xmlns:sodipodi="http://sodipodi.sourceforge.net/DTD/sodipodi-0.dtd"
   xmlns:inkscape="http://www.inkscape.org/namespaces/inkscape"
   width="135.84766mm"
   height="97.260834mm"
   viewBox="0 0 135.84765 97.260833"
   version="1.1"
   id="svg8"
   inkscape:version="0.92.4 5da689c313, 2019-01-14"
   sodipodi:docname="USB3300_REG_WRITE.svg">
  <defs
     id="defs2">
    <clipPath
       id="clipPath831"
       clipPathUnits="userSpaceOnUse">
      <path
         style="clip-rule:evenodd"
         inkscape:connector-curvature="0"
         id="path829"
         d="M 81,54 H 549 V 37.26 H 81 Z" />
    </clipPath>
    <clipPath
       id="clipPath837"
       clipPathUnits="userSpaceOnUse">
      <path
         inkscape:connector-curvature="0"
         id="path835"
         d="M 0,792.03 H 612 V 0.03 H 0 Z" />
    </clipPath>
    <clipPath
       id="clipPath859"
       clipPathUnits="userSpaceOnUse">
      <path
         style="clip-rule:evenodd"
         inkscape:connector-curvature="0"
         id="path857"
         d="M 81,743.04 H 549 V 727.62 H 81 Z" />
    </clipPath>
    <clipPath
       id="clipPath865"
       clipPathUnits="userSpaceOnUse">
      <path
         inkscape:connector-curvature="0"
         id="path863"
         d="M 0,792.03 H 612 V 0.03 H 0 Z" />
    </clipPath>
    <clipPath
       id="clipPath925"
       clipPathUnits="userSpaceOnUse">
      <path
         style="clip-rule:evenodd"
         inkscape:connector-curvature="0"
         id="path923"
         d="M 116.46,633 H 513.54 V 345.3 H 116.46 Z" />
    </clipPath>
    <clipPath
       id="clipPath931"
       clipPathUnits="userSpaceOnUse">
      <path
         style="clip-rule:evenodd"
         inkscape:connector-curvature="0"
         id="path929"
         d="M 81,643.02 H 549 V 341.34 H 81 Z" />
    </clipPath>
    <clipPath
       id="clipPath937"
       clipPathUnits="userSpaceOnUse">
      <path
         inkscape:connector-curvature="0"
         id="path935"
         d="M 0,792.03 H 612 V 0.03 H 0 Z" />
    </clipPath>
    <clipPath
       id="clipPath947"
       clipPathUnits="userSpaceOnUse">
      <path
         style="clip-rule:evenodd"
         inkscape:connector-curvature="0"
         id="path945"
         d="M 122.46,627 H 507.54 V 351.3 H 122.46 Z" />
    </clipPath>
    <clipPath
       id="clipPath953"
       clipPathUnits="userSpaceOnUse">
      <path
         style="clip-rule:evenodd"
         inkscape:connector-curvature="0"
         id="path951"
         d="M 116.46,633 H 513.54 V 345.3 H 116.46 Z" />
    </clipPath>
    <clipPath
       id="clipPath959"
       clipPathUnits="userSpaceOnUse">
      <path
         style="clip-rule:evenodd"
         inkscape:connector-curvature="0"
         id="path957"
         d="M 81,643.02 H 549 V 341.34 H 81 Z" />
    </clipPath>
    <clipPath
       id="clipPath965"
       clipPathUnits="userSpaceOnUse">
      <path
         inkscape:connector-curvature="0"
         id="path963"
         d="M 0,792.03 H 612 V 0.03 H 0 Z" />
    </clipPath>
    <clipPath
       id="clipPath947-3"
       clipPathUnits="userSpaceOnUse">
      <path
         style="clip-rule:evenodd"
         inkscape:connector-curvature="0"
         id="path945-6"
         d="M 122.46,627 H 507.54 V 351.3 H 122.46 Z" />
    </clipPath>
    <clipPath
       id="clipPath953-7"
       clipPathUnits="userSpaceOnUse">
      <path
         style="clip-rule:evenodd"
         inkscape:connector-curvature="0"
         id="path951-5"
         d="M 116.46,633 H 513.54 V 345.3 H 116.46 Z" />
    </clipPath>
    <clipPath
       id="clipPath959-3"
       clipPathUnits="userSpaceOnUse">
      <path
         style="clip-rule:evenodd"
         inkscape:connector-curvature="0"
         id="path957-5"
         d="M 81,643.02 H 549 V 341.34 H 81 Z" />
    </clipPath>
    <clipPath
       id="clipPath965-6"
       clipPathUnits="userSpaceOnUse">
      <path
         inkscape:connector-curvature="0"
         id="path963-2"
         d="M 0,792.03 H 612 V 0.03 H 0 Z" />
    </clipPath>
    <clipPath
       id="clipPath925-9"
       clipPathUnits="userSpaceOnUse">
      <path
         style="clip-rule:evenodd"
         inkscape:connector-curvature="0"
         id="path923-1"
         d="M 116.46,633 H 513.54 V 345.3 H 116.46 Z" />
    </clipPath>
    <clipPath
       id="clipPath931-2"
       clipPathUnits="userSpaceOnUse">
      <path
         style="clip-rule:evenodd"
         inkscape:connector-curvature="0"
         id="path929-7"
         d="M 81,643.02 H 549 V 341.34 H 81 Z" />
    </clipPath>
    <clipPath
       id="clipPath937-0"
       clipPathUnits="userSpaceOnUse">
      <path
         inkscape:connector-curvature="0"
         id="path935-9"
         d="M 0,792.03 H 612 V 0.03 H 0 Z" />
    </clipPath>
  </defs>
  <sodipodi:namedview
     id="base"
     pagecolor="#ffffff"
     bordercolor="#666666"
     borderopacity="1.0"
     inkscape:pageopacity="0.0"
     inkscape:pageshadow="2"
     inkscape:zoom="1.1853516"
     inkscape:cx="287.54265"
     inkscape:cy="78.789727"
     inkscape:document-units="mm"
     inkscape:current-layer="g961"
     showgrid="false"
     inkscape:window-width="1920"
     inkscape:window-height="1026"
     inkscape:window-x="0"
     inkscape:window-y="26"
     inkscape:window-maximized="1" />
  <metadata
     id="metadata5">
    <rdf:RDF>
      <cc:Work
         rdf:about="">
        <dc:format>image/svg+xml</dc:format>
        <dc:type
           rdf:resource="http://purl.org/dc/dcmitype/StillImage" />
        <dc:title></dc:title>
      </cc:Work>
    </rdf:RDF>
  </metadata>
  <g
     inkscape:label="Layer 1"
     inkscape:groupmode="layer"
     id="layer1"
     transform="translate(-89.893092,-106.82945)">
    <g
       transform="matrix(0.35277777,0,0,-0.35277777,52.934979,345.43467)"
       inkscape:label="00001783C"
       id="g823">
      <g
         transform="translate(-17.696844,49.361275)"
         id="g919">
        <g
           clip-path="url(#clipPath925-9)"
           id="g921">
          <g
             clip-path="url(#clipPath931-2)"
             id="g927">
            <g
               clip-path="url(#clipPath937-0)"
               id="g933">
              <path
                 inkscape:connector-curvature="0"
                 id="path939"
                 style="fill:#ffffff;fill-opacity:1;fill-rule:nonzero;stroke:none"
                 d="M 122.46,351.3 H 507.54 V 627 H 122.46 Z" />
            </g>
          </g>
        </g>
      </g>
      <g
         transform="translate(-17.696844,49.361275)"
         id="g941">
        <g
           clip-path="url(#clipPath947-3)"
           id="g943">
          <g
             clip-path="url(#clipPath953-7)"
             id="g949">
            <g
               clip-path="url(#clipPath959-3)"
               id="g955">
              <g
                 clip-path="url(#clipPath965-6)"
                 id="g961">
                <g
                   transform="scale(0.91247,-1.0959)"
                   id="g967">
                  <g
                     transform="translate(534.661,-570.419)"
                     id="g969">
                    <path
                       inkscape:connector-curvature="0"
                       id="path971"
                       style="fill:#c0c0c0;fill-opacity:1;fill-rule:nonzero;stroke:#c0c0c0;stroke-width:0.111;stroke-linecap:round;stroke-linejoin:round;stroke-miterlimit:10;stroke-dasharray:none;stroke-opacity:1"
                       d="M 0,0 V 5.53 L -0.131,5.858 -0.329,5.968 -0.723,5.858 -0.789,5.53 V 0 l 0.066,-0.383 0.394,-0.11 0.198,0.11 z m 0,9.526 v 5.694 l -0.131,0.219 -0.198,0.109 -0.394,-0.109 -0.066,-0.219 V 9.526 l 0.066,-0.219 0.394,-0.109 0.198,0.109 z m 0,9.691 v 5.584 l -0.131,0.328 -0.198,0.11 -0.394,-0.11 -0.066,-0.328 v -5.584 l 0.066,-0.329 0.394,-0.109 0.198,0.109 z m 0,9.58 v 5.694 l -0.131,0.219 -0.198,0.11 -0.394,-0.11 -0.066,-0.219 v -5.694 l 0.066,-0.219 0.394,-0.109 0.198,0.109 z m 0,9.691 v 5.584 l -0.131,0.329 -0.198,0.109 -0.394,-0.109 -0.066,-0.329 v -5.584 l 0.066,-0.329 0.394,-0.109 0.198,0.109 z m 0,9.581 v 5.694 l -0.131,0.219 -0.198,0.109 -0.394,-0.109 -0.066,-0.219 v -5.694 l 0.066,-0.219 0.394,-0.11 0.198,0.11 z m 0,9.69 v 5.584 l -0.131,0.329 -0.198,0.109 -0.394,-0.109 -0.066,-0.329 v -5.584 l 0.066,-0.328 0.394,-0.11 0.198,0.11 z m 0,9.581 v 5.694 l -0.131,0.219 -0.198,0.109 -0.394,-0.109 -0.066,-0.219 V 67.34 l 0.066,-0.219 0.394,-0.109 0.198,0.109 z m 0,9.69 v 5.585 l -0.131,0.328 -0.198,0.11 -0.394,-0.11 -0.066,-0.328 V 77.03 l 0.066,-0.328 0.394,-0.11 0.198,0.11 z m 0,9.581 v 5.694 l -0.131,0.219 -0.198,0.11 -0.394,-0.11 -0.066,-0.219 v -5.694 l 0.066,-0.219 0.394,-0.109 0.198,0.109 z m 0,9.691 v 5.584 l -0.131,0.328 -0.198,0.11 -0.394,-0.11 -0.066,-0.328 v -5.584 l 0.066,-0.329 0.394,-0.109 0.198,0.109 z m 0,9.581 v 5.693 l -0.131,0.219 -0.198,0.11 -0.394,-0.11 -0.066,-0.219 v -5.693 l 0.066,-0.219 0.394,-0.11 0.198,0.11 z m 0,9.69 v 5.584 l -0.131,0.329 -0.198,0.109 -0.394,-0.109 -0.066,-0.329 v -5.584 l 0.066,-0.328 0.394,-0.11 0.198,0.11 z m 0,9.581 v 5.694 l -0.131,0.219 -0.198,0.109 -0.394,-0.109 -0.066,-0.219 v -5.694 l 0.066,-0.219 0.394,-0.219 0.198,0.219 z m 0,9.69 v 5.585 l -0.131,0.328 -0.198,0.11 -0.394,-0.11 -0.066,-0.328 v -5.585 l 0.066,-0.328 0.394,-0.11 0.198,0.11 z m 0,9.581 v 5.53 l -0.131,0.383 -0.198,0.109 -0.394,-0.109 -0.066,-0.383 v -5.53 l 0.066,-0.219 0.394,-0.219 0.198,0.219 z m 0,9.581 v 5.639 l -0.131,0.383 -0.198,0.11 -0.394,-0.11 -0.066,-0.383 v -5.639 l 0.066,-0.219 0.394,-0.109 0.198,0.109 z m 0,9.69 v 5.53 l -0.131,0.329 -0.198,0.109 -0.394,-0.109 -0.066,-0.329 v -5.53 l 0.066,-0.328 0.394,-0.11 0.198,0.11 z m 0,9.581 v 5.639 l -0.131,0.219 -0.198,0.11 -0.394,-0.11 -0.066,-0.219 v -5.639 l 0.066,-0.219 0.394,-0.164 0.198,0.164 z m 0,9.691 v 5.529 l -0.131,0.329 -0.198,0.109 -0.394,-0.109 -0.066,-0.329 v -5.529 l 0.066,-0.383 0.394,-0.11 0.198,0.11 z m 0,9.526 v 5.694 l -0.131,0.219 -0.198,0.109 -0.394,-0.109 -0.066,-0.219 v -5.694 l 0.066,-0.219 0.394,-0.11 0.198,0.11 z m 0,9.69 v 5.585 l -0.131,0.328 -0.198,0.11 -0.394,-0.11 -0.066,-0.328 v -5.585 l 0.066,-0.328 0.394,-0.11 0.198,0.11 z m 0,9.581 v 5.694 l -0.131,0.219 -0.198,0.109 -0.394,-0.109 -0.066,-0.219 v -5.694 l 0.066,-0.219 0.394,-0.109 0.198,0.109 z m 0,9.691 v 5.584 l -0.131,0.328 -0.198,0.11 -0.394,-0.11 -0.066,-0.328 v -5.584 l 0.066,-0.329 0.394,-0.109 0.198,0.109 z m 0,9.58 v 5.694 l -0.131,0.219 -0.198,0.11 -0.394,-0.11 -0.066,-0.219 v -5.694 l 0.066,-0.218 0.394,-0.11 0.198,0.11 z m 0,9.691 v 5.584 l -0.131,0.329 -0.198,0.109 -0.394,-0.109 -0.066,-0.329 v -5.584 l 0.066,-0.329 0.394,-0.109 0.198,0.109 z" />
                  </g>
                  <g
                     transform="translate(233.828,-570.419)"
                     id="g973">
                    <path
                       inkscape:connector-curvature="0"
                       id="path975"
                       style="fill:#c0c0c0;fill-opacity:1;fill-rule:nonzero;stroke:#c0c0c0;stroke-width:0.111;stroke-linecap:round;stroke-linejoin:round;stroke-miterlimit:10;stroke-dasharray:none;stroke-opacity:1"
                       d="M 0,0 V 5.53 L -0.066,5.858 -0.329,5.968 -0.658,5.858 -0.789,5.53 V 0 l 0.131,-0.383 0.329,-0.11 0.263,0.11 z m 0,9.526 v 5.694 l -0.066,0.219 -0.263,0.109 -0.329,-0.109 -0.131,-0.219 V 9.526 l 0.131,-0.219 0.329,-0.109 0.263,0.109 z m 0,9.691 v 5.584 l -0.066,0.328 -0.263,0.11 -0.329,-0.11 -0.131,-0.328 v -5.584 l 0.131,-0.329 0.329,-0.109 0.263,0.109 z m 0,9.58 v 5.694 l -0.066,0.219 -0.263,0.11 -0.329,-0.11 -0.131,-0.219 v -5.694 l 0.131,-0.219 0.329,-0.109 0.263,0.109 z m 0,9.691 v 5.584 l -0.066,0.329 -0.263,0.109 -0.329,-0.109 -0.131,-0.329 v -5.584 l 0.131,-0.329 0.329,-0.109 0.263,0.109 z m 0,9.581 v 5.694 l -0.066,0.219 -0.263,0.109 -0.329,-0.109 -0.131,-0.219 v -5.694 l 0.131,-0.219 0.329,-0.11 0.263,0.11 z m 0,9.69 v 5.584 l -0.066,0.329 -0.263,0.109 -0.329,-0.109 -0.131,-0.329 v -5.584 l 0.131,-0.328 0.329,-0.11 0.263,0.11 z m 0,9.581 v 5.694 l -0.066,0.219 -0.263,0.109 -0.329,-0.109 -0.131,-0.219 V 67.34 l 0.131,-0.219 0.329,-0.109 0.263,0.109 z m 0,9.69 v 5.585 l -0.066,0.328 -0.263,0.11 -0.329,-0.11 -0.131,-0.328 V 77.03 l 0.131,-0.328 0.329,-0.11 0.263,0.11 z m 0,9.581 v 5.694 l -0.066,0.219 -0.263,0.11 -0.329,-0.11 -0.131,-0.219 v -5.694 l 0.131,-0.219 0.329,-0.109 0.263,0.109 z m 0,9.691 v 5.584 l -0.066,0.328 -0.263,0.11 -0.329,-0.11 -0.131,-0.328 v -5.584 l 0.131,-0.329 0.329,-0.109 0.263,0.109 z m 0,9.581 v 5.693 l -0.066,0.219 -0.263,0.11 -0.329,-0.11 -0.131,-0.219 v -5.693 l 0.131,-0.219 0.329,-0.11 0.263,0.11 z m 0,9.69 v 5.584 l -0.066,0.329 -0.263,0.109 -0.329,-0.109 -0.131,-0.329 v -5.584 l 0.131,-0.328 0.329,-0.11 0.263,0.11 z m 0,9.581 v 5.694 l -0.066,0.219 -0.263,0.109 -0.329,-0.109 -0.131,-0.219 v -5.694 l 0.131,-0.219 0.329,-0.219 0.263,0.219 z m 0,9.69 v 5.585 l -0.066,0.328 -0.263,0.11 -0.329,-0.11 -0.131,-0.328 v -5.585 l 0.131,-0.328 0.329,-0.11 0.263,0.11 z m 0,9.581 v 5.53 l -0.066,0.383 -0.263,0.109 -0.329,-0.109 -0.131,-0.383 v -5.53 l 0.131,-0.219 0.329,-0.219 0.263,0.219 z m 0,9.581 v 5.639 l -0.066,0.383 -0.263,0.11 -0.329,-0.11 -0.131,-0.383 v -5.639 l 0.131,-0.219 0.329,-0.109 0.263,0.109 z m 0,9.69 v 5.53 l -0.066,0.329 -0.263,0.109 -0.329,-0.109 -0.131,-0.329 v -5.53 l 0.131,-0.328 0.329,-0.11 0.263,0.11 z m 0,9.581 v 5.639 l -0.066,0.219 -0.263,0.11 -0.329,-0.11 -0.131,-0.219 v -5.639 l 0.131,-0.219 0.329,-0.164 0.263,0.164 z m 0,9.691 v 5.529 l -0.066,0.329 -0.263,0.109 -0.329,-0.109 -0.131,-0.329 v -5.529 l 0.131,-0.383 0.329,-0.11 0.263,0.11 z m 0,9.526 v 5.694 l -0.066,0.219 -0.263,0.109 -0.329,-0.109 -0.131,-0.219 v -5.694 l 0.131,-0.219 0.329,-0.11 0.263,0.11 z m 0,9.69 v 5.585 l -0.066,0.328 -0.263,0.11 -0.329,-0.11 -0.131,-0.328 v -5.585 l 0.131,-0.328 0.329,-0.11 0.263,0.11 z m 0,9.581 v 5.694 l -0.066,0.219 -0.263,0.109 -0.329,-0.109 -0.131,-0.219 v -5.694 l 0.131,-0.219 0.329,-0.109 0.263,0.109 z m 0,9.691 v 5.584 l -0.066,0.328 -0.263,0.11 -0.329,-0.11 -0.131,-0.328 v -5.584 l 0.131,-0.329 0.329,-0.109 0.263,0.109 z m 0,9.58 v 5.694 l -0.066,0.219 -0.263,0.11 -0.329,-0.11 -0.131,-0.219 v -5.694 l 0.131,-0.218 0.329,-0.11 0.263,0.11 z m 0,9.691 v 5.584 l -0.066,0.329 -0.263,0.109 -0.329,-0.109 -0.131,-0.329 v -5.584 l 0.131,-0.329 0.329,-0.109 0.263,0.109 z" />
                  </g>
                  <g
                     transform="translate(284.065,-570.419)"
                     id="g977">
                    <path
                       inkscape:connector-curvature="0"
                       id="path979"
                       style="fill:#c0c0c0;fill-opacity:1;fill-rule:nonzero;stroke:#c0c0c0;stroke-width:0.111;stroke-linecap:round;stroke-linejoin:round;stroke-miterlimit:10;stroke-dasharray:none;stroke-opacity:1"
                       d="M 0,0 V 5.53 L -0.132,5.858 -0.46,5.968 -0.658,5.858 -0.921,5.53 V 0 l 0.263,-0.383 0.198,-0.11 0.328,0.11 z M 0,9.526 V 15.22 L -0.132,15.439 -0.46,15.548 -0.658,15.439 -0.921,15.22 V 9.526 l 0.263,-0.219 0.198,-0.109 0.328,0.109 z m 0,9.691 v 5.584 l -0.132,0.328 -0.328,0.11 -0.198,-0.11 -0.263,-0.328 v -5.584 l 0.263,-0.329 0.198,-0.109 0.328,0.109 z m 0,9.58 v 5.694 l -0.132,0.219 -0.328,0.11 -0.198,-0.11 -0.263,-0.219 v -5.694 l 0.263,-0.219 0.198,-0.109 0.328,0.109 z m 0,9.691 v 5.584 l -0.132,0.329 -0.328,0.109 -0.198,-0.109 -0.263,-0.329 v -5.584 l 0.263,-0.329 0.198,-0.109 0.328,0.109 z m 0,9.581 v 5.694 l -0.132,0.219 -0.328,0.109 -0.198,-0.109 -0.263,-0.219 v -5.694 l 0.263,-0.219 0.198,-0.11 0.328,0.11 z m 0,9.69 v 5.584 l -0.132,0.329 -0.328,0.109 -0.198,-0.109 -0.263,-0.329 v -5.584 l 0.263,-0.328 0.198,-0.11 0.328,0.11 z m 0,9.581 v 5.694 l -0.132,0.219 -0.328,0.109 -0.198,-0.109 -0.263,-0.219 V 67.34 l 0.263,-0.219 0.198,-0.109 0.328,0.109 z m 0,9.69 v 5.585 l -0.132,0.328 -0.328,0.11 -0.198,-0.11 -0.263,-0.328 V 77.03 l 0.263,-0.328 0.198,-0.11 0.328,0.11 z m 0,9.581 v 5.694 l -0.132,0.219 -0.328,0.11 -0.198,-0.11 -0.263,-0.219 v -5.694 l 0.263,-0.219 0.198,-0.109 0.328,0.109 z m 0,9.691 v 5.584 l -0.132,0.328 -0.328,0.11 -0.198,-0.11 -0.263,-0.328 v -5.584 l 0.263,-0.329 0.198,-0.109 0.328,0.109 z m 0,9.581 v 5.693 l -0.132,0.219 -0.328,0.11 -0.198,-0.11 -0.263,-0.219 v -5.693 l 0.263,-0.219 0.198,-0.11 0.328,0.11 z m 0,9.69 v 5.584 l -0.132,0.329 -0.328,0.109 -0.198,-0.109 -0.263,-0.329 v -5.584 l 0.263,-0.328 0.198,-0.11 0.328,0.11 z m 0,9.581 v 5.694 l -0.132,0.219 -0.328,0.109 -0.198,-0.109 -0.263,-0.219 v -5.694 l 0.263,-0.219 0.198,-0.219 0.328,0.219 z m 0,9.69 v 5.585 l -0.132,0.328 -0.328,0.11 -0.198,-0.11 -0.263,-0.328 v -5.585 l 0.263,-0.328 0.198,-0.11 0.328,0.11 z m 0,9.581 v 5.53 l -0.132,0.383 -0.328,0.109 -0.198,-0.109 -0.263,-0.383 v -5.53 l 0.263,-0.219 0.198,-0.219 0.328,0.219 z m 0,9.581 v 5.639 l -0.132,0.383 -0.328,0.11 -0.198,-0.11 -0.263,-0.383 v -5.639 l 0.263,-0.219 0.198,-0.109 0.328,0.109 z m 0,9.69 v 5.53 l -0.132,0.329 -0.328,0.109 -0.198,-0.109 -0.263,-0.329 v -5.53 l 0.263,-0.328 0.198,-0.11 0.328,0.11 z m 0,9.581 v 5.639 l -0.132,0.219 -0.328,0.11 -0.198,-0.11 -0.263,-0.219 v -5.639 l 0.461,-0.383 0.328,0.164 z m 0,9.691 v 5.529 l -0.132,0.329 -0.328,0.109 -0.198,-0.109 -0.263,-0.329 v -5.529 l 0.263,-0.383 0.198,-0.11 0.328,0.11 z m 0,9.526 v 5.694 l -0.132,0.219 -0.328,0.109 -0.198,-0.109 -0.263,-0.219 v -5.694 l 0.263,-0.219 0.198,-0.11 0.328,0.11 z m 0,9.69 v 5.585 l -0.132,0.328 -0.328,0.11 -0.198,-0.11 -0.263,-0.328 v -5.585 l 0.263,-0.328 0.198,-0.11 0.328,0.11 z m 0,9.581 v 5.694 l -0.132,0.219 -0.328,0.109 -0.198,-0.109 -0.263,-0.219 v -5.694 l 0.263,-0.219 0.198,-0.109 0.328,0.109 z m 0,9.691 v 5.584 l -0.132,0.328 -0.328,0.11 -0.198,-0.11 -0.263,-0.328 v -5.584 l 0.263,-0.329 0.198,-0.109 0.328,0.109 z m 0,9.58 v 5.694 l -0.132,0.219 -0.328,0.11 -0.198,-0.11 -0.263,-0.219 v -5.694 l 0.263,-0.218 0.198,-0.11 0.328,0.11 z m 0,9.691 v 5.584 l -0.132,0.329 -0.328,0.109 -0.198,-0.109 -0.263,-0.329 v -5.584 l 0.263,-0.329 0.198,-0.109 0.328,0.109 z" />
                  </g>
                  <g
                     transform="translate(334.171,-570.419)"
                     id="g981">
                    <path
                       inkscape:connector-curvature="0"
                       id="path983"
                       style="fill:#c0c0c0;fill-opacity:1;fill-rule:nonzero;stroke:#c0c0c0;stroke-width:0.111;stroke-linecap:round;stroke-linejoin:round;stroke-miterlimit:10;stroke-dasharray:none;stroke-opacity:1"
                       d="M 0,0 V 5.53 L -0.132,5.858 -0.46,5.968 -0.723,5.858 -0.789,5.53 V 0 l 0.066,-0.383 0.263,-0.11 0.328,0.11 z M 0,9.526 V 15.22 L -0.132,15.439 -0.46,15.548 -0.723,15.439 -0.789,15.22 V 9.526 l 0.066,-0.219 0.263,-0.109 0.328,0.109 z m 0,9.691 v 5.584 l -0.132,0.328 -0.328,0.11 -0.263,-0.11 -0.066,-0.328 v -5.584 l 0.066,-0.329 0.263,-0.109 0.328,0.109 z m 0,9.58 v 5.694 l -0.132,0.219 -0.328,0.11 -0.263,-0.11 -0.066,-0.219 v -5.694 l 0.066,-0.219 0.263,-0.109 0.328,0.109 z m 0,9.691 v 5.584 l -0.132,0.329 -0.328,0.109 -0.263,-0.109 -0.066,-0.329 v -5.584 l 0.066,-0.329 0.263,-0.109 0.328,0.109 z m 0,9.581 v 5.694 l -0.132,0.219 -0.328,0.109 -0.263,-0.109 -0.066,-0.219 v -5.694 l 0.066,-0.219 0.263,-0.11 0.328,0.11 z m 0,9.69 v 5.584 l -0.132,0.329 -0.328,0.109 -0.263,-0.109 -0.066,-0.329 v -5.584 l 0.066,-0.328 0.263,-0.11 0.328,0.11 z m 0,9.581 v 5.694 l -0.132,0.219 -0.328,0.109 -0.263,-0.109 -0.066,-0.219 V 67.34 l 0.066,-0.219 0.263,-0.109 0.328,0.109 z m 0,9.69 v 5.585 l -0.132,0.328 -0.328,0.11 -0.263,-0.11 -0.066,-0.328 V 77.03 l 0.066,-0.328 0.263,-0.11 0.328,0.11 z m 0,9.581 v 5.694 l -0.132,0.219 -0.328,0.11 -0.263,-0.11 -0.066,-0.219 v -5.694 l 0.066,-0.219 0.263,-0.109 0.328,0.109 z m 0,9.691 v 5.584 l -0.132,0.328 -0.328,0.11 -0.263,-0.11 -0.066,-0.328 v -5.584 l 0.066,-0.329 0.263,-0.109 0.328,0.109 z m 0,9.581 v 5.693 l -0.132,0.219 -0.328,0.11 -0.263,-0.11 -0.066,-0.219 v -5.693 l 0.066,-0.219 0.263,-0.11 0.328,0.11 z m 0,9.69 v 5.584 l -0.132,0.329 -0.328,0.109 -0.263,-0.109 -0.066,-0.329 v -5.584 l 0.066,-0.328 0.263,-0.11 0.328,0.11 z m 0,9.581 v 5.694 l -0.132,0.219 -0.328,0.109 -0.263,-0.109 -0.066,-0.219 v -5.694 l 0.066,-0.219 0.263,-0.219 0.328,0.219 z m 0,9.69 v 5.585 l -0.132,0.328 -0.328,0.11 -0.263,-0.11 -0.066,-0.328 v -5.585 l 0.066,-0.328 0.263,-0.11 0.328,0.11 z m 0,9.581 v 5.53 l -0.132,0.383 -0.328,0.109 -0.263,-0.109 -0.066,-0.383 v -5.53 l 0.066,-0.219 0.263,-0.219 0.328,0.219 z m 0,9.581 v 5.639 l -0.132,0.383 -0.328,0.11 -0.263,-0.11 -0.066,-0.383 v -5.639 l 0.066,-0.219 0.263,-0.109 0.328,0.109 z m 0,9.69 v 5.53 l -0.132,0.329 -0.328,0.109 -0.263,-0.109 -0.066,-0.329 v -5.53 l 0.066,-0.328 0.263,-0.11 0.328,0.11 z m 0,9.581 v 5.639 l -0.132,0.219 -0.328,0.11 -0.263,-0.11 -0.066,-0.219 v -5.639 l 0.066,-0.219 0.263,-0.164 0.328,0.164 z m 0,9.691 v 5.529 l -0.132,0.329 -0.328,0.109 -0.263,-0.109 -0.066,-0.329 v -5.529 l 0.066,-0.383 0.263,-0.11 0.328,0.11 z m 0,9.526 v 5.694 l -0.132,0.219 -0.328,0.109 -0.263,-0.109 -0.066,-0.219 v -5.694 l 0.066,-0.219 0.263,-0.11 0.328,0.11 z m 0,9.69 v 5.585 l -0.132,0.328 -0.328,0.11 -0.263,-0.11 -0.066,-0.328 v -5.585 l 0.066,-0.328 0.263,-0.11 0.328,0.11 z m 0,9.581 v 5.694 l -0.132,0.219 -0.328,0.109 -0.263,-0.109 -0.066,-0.219 v -5.694 l 0.066,-0.219 0.263,-0.109 0.328,0.109 z m 0,9.691 v 5.584 l -0.132,0.328 -0.328,0.11 -0.263,-0.11 -0.066,-0.328 v -5.584 l 0.066,-0.329 0.263,-0.109 0.328,0.109 z m 0,9.58 v 5.694 l -0.132,0.219 -0.328,0.11 -0.263,-0.11 -0.066,-0.219 v -5.694 l 0.066,-0.218 0.263,-0.11 0.328,0.11 z m 0,9.691 v 5.584 l -0.132,0.329 -0.328,0.109 -0.263,-0.109 -0.066,-0.329 v -5.584 l 0.066,-0.329 0.263,-0.109 0.328,0.109 z" />
                  </g>
                  <g
                     transform="translate(384.211,-570.419)"
                     id="g985">
                    <path
                       inkscape:connector-curvature="0"
                       id="path987"
                       style="fill:#c0c0c0;fill-opacity:1;fill-rule:nonzero;stroke:#c0c0c0;stroke-width:0.111;stroke-linecap:round;stroke-linejoin:round;stroke-miterlimit:10;stroke-dasharray:none;stroke-opacity:1"
                       d="M 0,0 V 5.53 L -0.066,5.858 -0.329,5.968 -0.658,5.858 -0.723,5.53 V 0 l 0.065,-0.383 0.329,-0.11 0.263,0.11 z m 0,9.526 v 5.694 l -0.066,0.219 -0.263,0.109 -0.329,-0.109 -0.065,-0.219 V 9.526 l 0.065,-0.219 0.329,-0.109 0.263,0.109 z m 0,9.691 v 5.584 l -0.066,0.328 -0.263,0.11 -0.329,-0.11 -0.065,-0.328 v -5.584 l 0.065,-0.329 0.329,-0.109 0.263,0.109 z m 0,9.58 v 5.694 l -0.066,0.219 -0.263,0.11 -0.329,-0.11 -0.065,-0.219 v -5.694 l 0.065,-0.219 0.329,-0.109 0.263,0.109 z m 0,9.691 v 5.584 l -0.066,0.329 -0.263,0.109 -0.329,-0.109 -0.065,-0.329 v -5.584 l 0.065,-0.329 0.329,-0.109 0.263,0.109 z m 0,9.581 v 5.694 l -0.066,0.219 -0.263,0.109 -0.329,-0.109 -0.065,-0.219 v -5.694 l 0.065,-0.219 0.329,-0.11 0.263,0.11 z m 0,9.69 v 5.584 l -0.066,0.329 -0.263,0.109 -0.329,-0.109 -0.065,-0.329 v -5.584 l 0.065,-0.328 0.329,-0.11 0.263,0.11 z m 0,9.581 v 5.694 l -0.066,0.219 -0.263,0.109 -0.329,-0.109 -0.065,-0.219 V 67.34 l 0.065,-0.219 0.329,-0.109 0.263,0.109 z m 0,9.69 v 5.585 l -0.066,0.328 -0.263,0.11 -0.329,-0.11 -0.065,-0.328 V 77.03 l 0.065,-0.328 0.329,-0.11 0.263,0.11 z m 0,9.581 v 5.694 l -0.066,0.219 -0.263,0.11 -0.329,-0.11 -0.065,-0.219 v -5.694 l 0.065,-0.219 0.329,-0.109 0.263,0.109 z m 0,9.691 v 5.584 l -0.066,0.328 -0.263,0.11 -0.329,-0.11 -0.065,-0.328 v -5.584 l 0.065,-0.329 0.329,-0.109 0.263,0.109 z m 0,9.581 v 5.693 l -0.066,0.219 -0.263,0.11 -0.329,-0.11 -0.065,-0.219 v -5.693 l 0.065,-0.219 0.329,-0.11 0.263,0.11 z m 0,9.69 v 5.584 l -0.066,0.329 -0.263,0.109 -0.329,-0.109 -0.065,-0.329 v -5.584 l 0.065,-0.328 0.329,-0.11 0.263,0.11 z m 0,9.581 v 5.694 l -0.066,0.219 -0.263,0.109 -0.329,-0.109 -0.065,-0.219 v -5.694 l 0.065,-0.219 0.329,-0.219 0.263,0.219 z m 0,9.69 v 5.585 l -0.066,0.328 -0.263,0.11 -0.329,-0.11 -0.065,-0.328 v -5.585 l 0.065,-0.328 0.329,-0.11 0.263,0.11 z m 0,9.581 v 5.53 l -0.066,0.383 -0.263,0.109 -0.329,-0.109 -0.065,-0.383 v -5.53 l 0.065,-0.219 0.329,-0.219 0.263,0.219 z m 0,9.581 v 5.639 l -0.066,0.383 -0.263,0.11 -0.329,-0.11 -0.065,-0.383 v -5.639 l 0.065,-0.219 0.329,-0.109 0.263,0.109 z m 0,9.69 v 5.53 l -0.066,0.329 -0.263,0.109 -0.329,-0.109 -0.065,-0.329 v -5.53 l 0.065,-0.328 0.329,-0.11 0.263,0.11 z m 0,9.581 v 5.639 l -0.066,0.219 -0.263,0.11 -0.329,-0.11 -0.065,-0.219 v -5.639 l 0.065,-0.219 0.329,-0.164 0.263,0.164 z m 0,9.691 v 5.529 l -0.066,0.329 -0.263,0.109 -0.329,-0.109 -0.065,-0.329 v -5.529 l 0.065,-0.383 0.329,-0.11 0.263,0.11 z m 0,9.526 v 5.694 l -0.066,0.219 -0.263,0.109 -0.329,-0.109 -0.065,-0.219 v -5.694 l 0.065,-0.219 0.329,-0.11 0.263,0.11 z m 0,9.69 v 5.585 l -0.066,0.328 -0.263,0.11 -0.329,-0.11 -0.065,-0.328 v -5.585 l 0.065,-0.328 0.329,-0.11 0.263,0.11 z m 0,9.581 v 5.694 l -0.066,0.219 -0.263,0.109 -0.329,-0.109 -0.065,-0.219 v -5.694 l 0.065,-0.219 0.329,-0.109 0.263,0.109 z m 0,9.691 v 5.584 l -0.066,0.328 -0.263,0.11 -0.329,-0.11 -0.065,-0.328 v -5.584 l 0.065,-0.329 0.329,-0.109 0.263,0.109 z m 0,9.58 v 5.694 l -0.066,0.219 -0.263,0.11 -0.329,-0.11 -0.065,-0.219 v -5.694 l 0.065,-0.218 0.329,-0.11 0.263,0.11 z m 0,9.691 v 5.584 l -0.066,0.329 -0.263,0.109 -0.329,-0.109 -0.065,-0.329 v -5.584 l 0.065,-0.329 0.329,-0.109 0.263,0.109 z" />
                  </g>
                  <g
                     transform="translate(434.449,-570.419)"
                     id="g989">
                    <path
                       inkscape:connector-curvature="0"
                       id="path991"
                       style="fill:#c0c0c0;fill-opacity:1;fill-rule:nonzero;stroke:#c0c0c0;stroke-width:0.111;stroke-linecap:round;stroke-linejoin:round;stroke-miterlimit:10;stroke-dasharray:none;stroke-opacity:1"
                       d="M 0,0 V 5.53 L -0.132,5.858 -0.46,5.968 -0.658,5.858 -0.921,5.53 V 0 l 0.263,-0.383 0.198,-0.11 0.328,0.11 z M 0,9.526 V 15.22 L -0.132,15.439 -0.46,15.548 -0.658,15.439 -0.921,15.22 V 9.526 l 0.263,-0.219 0.198,-0.109 0.328,0.109 z m 0,9.691 v 5.584 l -0.132,0.328 -0.328,0.11 -0.198,-0.11 -0.263,-0.328 v -5.584 l 0.263,-0.329 0.198,-0.109 0.328,0.109 z m 0,9.58 v 5.694 l -0.132,0.219 -0.328,0.11 -0.198,-0.11 -0.263,-0.219 v -5.694 l 0.263,-0.219 0.198,-0.109 0.328,0.109 z m 0,9.691 v 5.584 l -0.132,0.329 -0.328,0.109 -0.198,-0.109 -0.263,-0.329 v -5.584 l 0.263,-0.329 0.198,-0.109 0.328,0.109 z m 0,9.581 v 5.694 l -0.132,0.219 -0.328,0.109 -0.198,-0.109 -0.263,-0.219 v -5.694 l 0.263,-0.219 0.198,-0.11 0.328,0.11 z m 0,9.69 v 5.584 l -0.132,0.329 -0.328,0.109 -0.198,-0.109 -0.263,-0.329 v -5.584 l 0.263,-0.328 0.198,-0.11 0.328,0.11 z m 0,9.581 v 5.694 l -0.132,0.219 -0.328,0.109 -0.198,-0.109 -0.263,-0.219 V 67.34 l 0.263,-0.219 0.198,-0.109 0.328,0.109 z m 0,9.69 v 5.585 l -0.132,0.328 -0.328,0.11 -0.198,-0.11 -0.263,-0.328 V 77.03 l 0.263,-0.328 0.198,-0.11 0.328,0.11 z m 0,9.581 v 5.694 l -0.132,0.219 -0.328,0.11 -0.198,-0.11 -0.263,-0.219 v -5.694 l 0.263,-0.219 0.198,-0.109 0.328,0.109 z m 0,9.691 v 5.584 l -0.132,0.328 -0.328,0.11 -0.198,-0.11 -0.263,-0.328 v -5.584 l 0.263,-0.329 0.198,-0.109 0.328,0.109 z m 0,9.581 v 5.693 l -0.132,0.219 -0.328,0.11 -0.198,-0.11 -0.263,-0.219 v -5.693 l 0.263,-0.219 0.198,-0.11 0.328,0.11 z m 0,9.69 v 5.584 l -0.132,0.329 -0.328,0.109 -0.198,-0.109 -0.263,-0.329 v -5.584 l 0.263,-0.328 0.198,-0.11 0.328,0.11 z m 0,9.581 v 5.694 l -0.132,0.219 -0.328,0.109 -0.198,-0.109 -0.263,-0.219 v -5.694 l 0.263,-0.219 0.198,-0.219 0.328,0.219 z m 0,9.69 v 5.585 l -0.132,0.328 -0.328,0.11 -0.198,-0.11 -0.263,-0.328 v -5.585 l 0.263,-0.328 0.198,-0.11 0.328,0.11 z m 0,9.581 v 5.53 l -0.132,0.383 -0.328,0.109 -0.198,-0.109 -0.263,-0.383 v -5.53 l 0.263,-0.219 0.198,-0.219 0.328,0.219 z m 0,9.581 v 5.639 l -0.132,0.383 -0.328,0.11 -0.198,-0.11 -0.263,-0.383 v -5.639 l 0.263,-0.219 0.198,-0.109 0.328,0.109 z m 0,9.69 v 5.53 l -0.132,0.329 -0.328,0.109 -0.198,-0.109 -0.263,-0.329 v -5.53 l 0.263,-0.328 0.198,-0.11 0.328,0.11 z m 0,9.581 v 5.639 l -0.132,0.219 -0.328,0.11 -0.198,-0.11 -0.263,-0.219 v -5.639 l 0.461,-0.383 0.328,0.164 z m 0,9.691 v 5.529 l -0.132,0.329 -0.328,0.109 -0.198,-0.109 -0.263,-0.329 v -5.529 l 0.263,-0.383 0.198,-0.11 0.328,0.11 z m 0,9.526 v 5.694 l -0.132,0.219 -0.328,0.109 -0.198,-0.109 -0.263,-0.219 v -5.694 l 0.263,-0.219 0.198,-0.11 0.328,0.11 z m 0,9.69 v 5.585 l -0.132,0.328 -0.328,0.11 -0.198,-0.11 -0.263,-0.328 v -5.585 l 0.263,-0.328 0.198,-0.11 0.328,0.11 z m 0,9.581 v 5.694 l -0.132,0.219 -0.328,0.109 -0.198,-0.109 -0.263,-0.219 v -5.694 l 0.263,-0.219 0.198,-0.109 0.328,0.109 z m 0,9.691 v 5.584 l -0.132,0.328 -0.328,0.11 -0.198,-0.11 -0.263,-0.328 v -5.584 l 0.263,-0.329 0.198,-0.109 0.328,0.109 z m 0,9.58 v 5.694 l -0.132,0.219 -0.328,0.11 -0.198,-0.11 -0.263,-0.219 v -5.694 l 0.263,-0.218 0.198,-0.11 0.328,0.11 z m 0,9.691 v 5.584 l -0.132,0.329 -0.328,0.109 -0.198,-0.109 -0.263,-0.329 v -5.584 l 0.263,-0.329 0.198,-0.109 0.328,0.109 z" />
                  </g>
                  <g
                     transform="translate(434.12,-570.419)"
                     id="g993">
                    <path
                       inkscape:connector-curvature="0"
                       id="path995"
                       style="fill:#c0c0c0;fill-opacity:1;fill-rule:nonzero;stroke:#c0c0c0;stroke-width:0.111;stroke-linecap:round;stroke-linejoin:round;stroke-miterlimit:10;stroke-dasharray:none;stroke-opacity:1"
                       d="M 0,0 V 5.53 L -0.132,5.858 -0.46,5.968 -0.658,5.858 -0.921,5.53 V 0 l 0.132,-0.383 0.329,-0.11 0.328,0.11 z M 0,9.526 V 15.22 L -0.132,15.439 -0.46,15.548 -0.658,15.439 -0.789,15.22 -0.921,9.526 -0.658,9.307 -0.46,9.198 -0.132,9.307 Z m 0,9.691 v 5.584 l -0.132,0.328 -0.328,0.11 -0.198,-0.11 -0.131,-0.328 v -5.584 l 0.131,-0.329 0.198,-0.109 0.328,0.109 z m 0,9.58 v 5.694 l -0.132,0.219 -0.328,0.11 -0.198,-0.11 -0.131,-0.219 v -5.694 l 0.131,-0.219 0.198,-0.109 0.328,0.109 z m 0,9.691 v 5.584 l -0.132,0.329 -0.197,0.109 -0.329,-0.109 -0.131,-0.329 v -5.584 l 0.131,-0.329 0.198,-0.109 0.328,0.109 z m 0,9.581 v 5.694 l -0.132,0.219 -0.197,0.109 -0.329,-0.109 -0.131,-0.219 v -5.694 l 0.131,-0.219 0.329,-0.11 0.197,0.11 z m 0,9.69 v 5.584 l -0.132,0.329 -0.197,0.109 -0.329,-0.109 -0.131,-0.329 v -5.584 l 0.131,-0.328 0.329,-0.11 0.197,0.11 z m 0,9.581 v 5.694 l -0.132,0.219 -0.197,0.109 -0.329,-0.109 -0.131,-0.219 V 67.34 l 0.131,-0.219 0.329,-0.109 0.197,0.109 z m 0.132,9.69 v 5.585 L 0,82.943 l -0.329,0.11 -0.263,-0.11 -0.197,-0.328 V 77.03 l 0.131,-0.328 0.329,-0.11 0.329,0.11 z m 0,9.581 v 5.694 L 0,92.524 l -0.329,0.11 -0.263,-0.11 -0.066,-0.219 -0.131,-5.694 0.197,-0.219 0.263,-0.109 L 0,86.392 Z m 0,9.691 v 5.584 L 0,102.214 l -0.329,0.11 -0.263,-0.11 -0.066,-0.328 V 96.302 L -0.592,95.973 -0.329,95.864 0,95.973 Z m 0,9.581 v 5.693 L 0,111.795 l -0.329,0.11 -0.263,-0.11 -0.066,-0.219 v -5.693 l 0.066,-0.219 0.263,-0.11 0.329,0.11 z m 0,9.69 v 5.584 L 0,121.486 l -0.329,0.109 -0.263,-0.109 -0.066,-0.329 v -5.584 l 0.066,-0.328 0.263,-0.11 0.329,0.11 z m 0,9.581 v 5.694 L 0,131.067 l -0.263,0.109 -0.329,-0.109 -0.066,-0.219 v -5.694 l 0.066,-0.219 0.329,-0.219 0.263,0.219 z m 0,9.69 v 5.585 L 0,140.757 l -0.263,0.11 -0.329,-0.11 -0.066,-0.328 v -5.585 l 0.066,-0.328 0.329,-0.11 0.263,0.11 z m 0,9.581 v 5.53 L 0,150.338 l -0.263,0.109 -0.329,-0.109 -0.066,-0.383 v -5.53 l 0.066,-0.219 0.329,-0.219 0.263,0.219 z m 0,9.581 0.065,5.639 -0.065,0.383 -0.395,0.11 -0.329,-0.11 -0.066,-0.383 v -5.639 l 0.066,-0.219 0.329,-0.109 0.263,0.109 z m 0.065,9.69 v 5.53 l -0.065,0.329 -0.395,0.109 -0.197,-0.109 -0.198,-0.329 v -5.53 l 0.198,-0.328 0.197,-0.11 0.395,0.11 z m 0,9.581 v 5.639 l -0.065,0.219 -0.395,0.11 -0.197,-0.11 -0.132,-0.219 v -5.639 l 0.132,-0.219 0.197,-0.164 0.395,0.164 z m 0,9.691 v 5.529 l -0.065,0.329 -0.395,0.109 -0.197,-0.109 -0.132,-0.329 v -5.529 l 0.132,-0.383 0.197,-0.11 0.395,0.11 z m 0,9.526 v 5.694 l -0.065,0.219 -0.395,0.109 -0.197,-0.109 -0.132,-0.219 v -5.694 l 0.132,-0.219 0.197,-0.11 0.395,0.11 z m 0,9.69 v 5.585 l -0.065,0.328 -0.264,0.11 -0.328,-0.11 -0.132,-0.328 v -5.585 l 0.132,-0.328 0.197,-0.11 0.395,0.11 z m 0,9.581 v 5.694 l -0.065,0.219 -0.264,0.109 -0.328,-0.109 -0.132,-0.219 v -5.694 l 0.132,-0.219 0.328,-0.109 0.264,0.109 z m 0,9.691 v 5.584 l -0.065,0.328 -0.264,0.11 -0.328,-0.11 -0.132,-0.328 v -5.584 l 0.132,-0.329 0.328,-0.109 0.264,0.109 z m 0,9.58 0.132,5.694 -0.132,0.219 -0.329,0.11 -0.328,-0.11 -0.132,-0.219 v -5.694 l 0.132,-0.218 0.328,-0.11 0.264,0.11 z m 0.132,9.691 v 5.584 l -0.132,0.329 -0.329,0.109 -0.197,-0.109 -0.263,-0.329 v -5.584 l 0.132,-0.329 0.328,-0.109 0.329,0.109 z" />
                  </g>
                  <g
                     transform="translate(484.555,-570.419)"
                     id="g997">
                    <path
                       inkscape:connector-curvature="0"
                       id="path999"
                       style="fill:#c0c0c0;fill-opacity:1;fill-rule:nonzero;stroke:#c0c0c0;stroke-width:0.111;stroke-linecap:round;stroke-linejoin:round;stroke-miterlimit:10;stroke-dasharray:none;stroke-opacity:1"
                       d="M 0,0 V 5.53 L -0.132,5.858 -0.46,5.968 -0.658,5.858 -0.789,5.53 V 0 l 0.131,-0.383 0.198,-0.11 0.328,0.11 z M 0,9.526 V 15.22 L -0.132,15.439 -0.46,15.548 -0.658,15.439 -0.789,15.22 V 9.526 l 0.131,-0.219 0.198,-0.109 0.328,0.109 z m 0,9.691 v 5.584 l -0.132,0.328 -0.328,0.11 -0.198,-0.11 -0.131,-0.328 v -5.584 l 0.131,-0.329 0.198,-0.109 0.328,0.109 z m 0,9.58 v 5.694 l -0.132,0.219 -0.328,0.11 -0.198,-0.11 -0.131,-0.219 v -5.694 l 0.131,-0.219 0.198,-0.109 0.328,0.109 z m 0,9.691 v 5.584 l -0.132,0.329 -0.328,0.109 -0.198,-0.109 -0.131,-0.329 v -5.584 l 0.131,-0.329 0.198,-0.109 0.328,0.109 z m 0,9.581 v 5.694 l -0.132,0.219 -0.328,0.109 -0.198,-0.109 -0.131,-0.219 v -5.694 l 0.131,-0.219 0.198,-0.11 0.328,0.11 z m 0,9.69 v 5.584 l -0.132,0.329 -0.328,0.109 -0.198,-0.109 -0.131,-0.329 v -5.584 l 0.131,-0.328 0.198,-0.11 0.328,0.11 z m 0,9.581 v 5.694 l -0.132,0.219 -0.328,0.109 -0.198,-0.109 -0.131,-0.219 V 67.34 l 0.131,-0.219 0.198,-0.109 0.328,0.109 z m 0,9.69 v 5.585 l -0.132,0.328 -0.328,0.11 -0.198,-0.11 -0.131,-0.328 V 77.03 l 0.131,-0.328 0.198,-0.11 0.328,0.11 z m 0,9.581 v 5.694 l -0.132,0.219 -0.328,0.11 -0.198,-0.11 -0.131,-0.219 v -5.694 l 0.131,-0.219 0.198,-0.109 0.328,0.109 z m 0,9.691 v 5.584 l -0.132,0.328 -0.328,0.11 -0.198,-0.11 -0.131,-0.328 v -5.584 l 0.131,-0.329 0.198,-0.109 0.328,0.109 z m 0,9.581 v 5.693 l -0.132,0.219 -0.328,0.11 -0.198,-0.11 -0.131,-0.219 v -5.693 l 0.131,-0.219 0.198,-0.11 0.328,0.11 z m 0,9.69 v 5.584 l -0.132,0.329 -0.328,0.109 -0.198,-0.109 -0.131,-0.329 v -5.584 l 0.131,-0.328 0.198,-0.11 0.328,0.11 z m 0,9.581 v 5.694 l -0.132,0.219 -0.328,0.109 -0.198,-0.109 -0.131,-0.219 v -5.694 l 0.131,-0.219 0.198,-0.219 0.328,0.219 z m 0,9.69 v 5.585 l -0.132,0.328 -0.328,0.11 -0.198,-0.11 -0.131,-0.328 v -5.585 l 0.131,-0.328 0.198,-0.11 0.328,0.11 z m 0,9.581 v 5.53 l -0.132,0.383 -0.328,0.109 -0.198,-0.109 -0.131,-0.383 v -5.53 l 0.131,-0.219 0.198,-0.219 0.328,0.219 z m 0,9.581 v 5.639 l -0.132,0.383 -0.328,0.11 -0.198,-0.11 -0.131,-0.383 v -5.639 l 0.131,-0.219 0.198,-0.109 0.328,0.109 z m 0,9.69 v 5.53 l -0.132,0.329 -0.328,0.109 -0.198,-0.109 -0.131,-0.329 v -5.53 l 0.131,-0.328 0.198,-0.11 0.328,0.11 z m 0,9.581 v 5.639 l -0.132,0.219 -0.328,0.11 -0.198,-0.11 -0.131,-0.219 v -5.639 l 0.131,-0.219 0.198,-0.164 0.328,0.164 z m 0,9.691 v 5.529 l -0.132,0.329 -0.328,0.109 -0.198,-0.109 -0.131,-0.329 v -5.529 l 0.131,-0.383 0.198,-0.11 0.328,0.11 z m 0,9.526 v 5.694 l -0.132,0.219 -0.328,0.109 -0.198,-0.109 -0.131,-0.219 v -5.694 l 0.131,-0.219 0.198,-0.11 0.328,0.11 z m 0,9.69 v 5.585 l -0.132,0.328 -0.328,0.11 -0.198,-0.11 -0.131,-0.328 v -5.585 l 0.131,-0.328 0.198,-0.11 0.328,0.11 z m 0,9.581 v 5.694 l -0.132,0.219 -0.328,0.109 -0.198,-0.109 -0.131,-0.219 v -5.694 l 0.131,-0.219 0.198,-0.109 0.328,0.109 z m 0,9.691 v 5.584 l -0.132,0.328 -0.328,0.11 -0.198,-0.11 -0.131,-0.328 v -5.584 l 0.131,-0.329 0.198,-0.109 0.328,0.109 z m 0,9.58 v 5.694 l -0.132,0.219 -0.328,0.11 -0.198,-0.11 -0.131,-0.219 v -5.694 l 0.131,-0.218 0.198,-0.11 0.328,0.11 z m 0,9.691 v 5.584 l -0.132,0.329 -0.328,0.109 -0.198,-0.109 -0.131,-0.329 v -5.584 l 0.131,-0.329 0.198,-0.109 0.328,0.109 z" />
                  </g>
                </g>
                <text
                   id="text1007"
                   style="font-variant:normal;font-weight:normal;font-stretch:normal;font-size:12.20440006px;font-family:Arial;-inkscape-font-specification:ArialMT;writing-mode:lr-tb;fill:#000000;fill-opacity:1;fill-rule:nonzero;stroke:none"
                   transform="matrix(1,0,0,-1,159.42,500.58)">
                  <tspan
                     id="tspan1001"
                     sodipodi:role="line"
                     y="0"
                     x="0 7.3177581 10.199217">DIR</tspan>
                  <tspan
                     id="tspan1003"
                     sodipodi:role="line"
                     y="-87.96077"
                     x="-2.2199805 5.0977778 10.796012">CLK</tspan>
                  <tspan
                     id="tspan1005"
                     sodipodi:role="line"
                     y="-44.040798"
                     x="-29.340597 -22.02284 -15.243296 -9.0007448 -2.2212007 0.5406549 6.2388892 9.0605469 14.639178">DATA[7:0]</tspan>
                </text>
                <g
                   transform="scale(0.91247,-1.0959)"
                   id="g1009">
                  <g
                     transform="translate(203.317,-510.306)"
                     id="g1011">
                    <path
                       inkscape:connector-curvature="0"
                       id="path1013"
                       style="fill:none;stroke:#000000;stroke-width:1.33399999;stroke-linecap:round;stroke-linejoin:round;stroke-miterlimit:10;stroke-dasharray:none;stroke-opacity:1"
                       d="M 0,0 H 270.783" />
                    <g
                       transform="translate(0,20.147)"
                       id="g1015">
                      <path
                         inkscape:connector-curvature="0"
                         id="path1017"
                         style="fill:none;stroke:#000000;stroke-width:1.33399999;stroke-linecap:round;stroke-linejoin:round;stroke-miterlimit:10;stroke-dasharray:none;stroke-opacity:1"
                         d="M 0,0 H 270.783" />
                      <g
                         transform="translate(25.184,-40.185)"
                         id="g1019">
                        <path
                           inkscape:connector-curvature="0"
                           id="path1021"
                           style="fill:none;stroke:#000000;stroke-width:1.33399999;stroke-linecap:round;stroke-linejoin:round;stroke-miterlimit:10;stroke-dasharray:none;stroke-opacity:1"
                           d="M 0,0 9.995,-20.038 H 25.053 L 35.048,0 h 15.058 l 9.995,-20.038 H 75.159 L 85.154,0 h 15.058 l 9.995,-20.038 h 15.058 L 135.391,0 h 14.993 l 10.06,-20.038 h 14.993 L 185.431,0 h 15.059 l 9.994,-20.038 h 15.059 L 235.537,0 h 15.059" />
                      </g>
                    </g>
                  </g>
                </g>
                <text
                   id="text1025"
                   style="font-variant:normal;font-weight:normal;font-stretch:normal;font-size:12.20440006px;font-family:Arial;-inkscape-font-specification:ArialMT;writing-mode:lr-tb;fill:#000000;fill-opacity:1;fill-rule:nonzero;stroke:none"
                   transform="matrix(1,0,0,-1,157.2,456.6)">
                  <tspan
                     id="tspan1023"
                     sodipodi:role="line"
                     y="0"
                     x="0 6.7795444 13.022095">STP</tspan>
                </text>
                <g
                   transform="scale(0.91247,-1.0959)"
                   id="g1027">
                  <g
                     transform="translate(203.317,-409.953)"
                     id="g1029">
                    <path
                       inkscape:connector-curvature="0"
                       id="path1031"
                       style="fill:none;stroke:#000000;stroke-width:1.33399999;stroke-linecap:round;stroke-linejoin:round;stroke-miterlimit:10;stroke-dasharray:none;stroke-opacity:1"
                       d="M 0,0 H 230.54" />
                    <g
                       transform="translate(0,40.076)"
                       id="g1033">
                      <path
                         inkscape:connector-curvature="0"
                         id="path1035"
                         style="fill:none;stroke:#000000;stroke-width:1.33399999;stroke-linecap:round;stroke-linejoin:round;stroke-miterlimit:10;stroke-dasharray:none;stroke-opacity:1"
                         d="M 0,0 H 95.346" />
                    </g>
                  </g>
                </g>
                <text
                   id="text1039"
                   style="font-variant:normal;font-weight:normal;font-stretch:normal;font-size:12.20440006px;font-family:Arial;-inkscape-font-specification:ArialMT;writing-mode:lr-tb;fill:#000000;fill-opacity:1;fill-rule:nonzero;stroke:none"
                   transform="matrix(1,0,0,-1,156.6,412.68)">
                  <tspan
                     id="tspan1037"
                     sodipodi:role="line"
                     y="0"
                     x="0 7.3177581 14.097302">NXT</tspan>
                </text>
                <text
                   id="text1045"
                   style="font-variant:normal;font-weight:bold;font-stretch:normal;font-size:7.32259989px;font-family:Arial;-inkscape-font-specification:Arial-BoldMT;writing-mode:lr-tb;fill:#000000;fill-opacity:1;fill-rule:nonzero;stroke:none"
                   transform="matrix(1,0,0,-1,272.28,550.5)">
                  <tspan
                     id="tspan1041"
                     sodipodi:role="line"
                     y="0"
                     x="0 3.7813907 7.8615432 12.180413 13.921727 18.300642 23.400833 27.719702">TXD CMD</tspan>
                  <tspan
                     id="tspan1043"
                     sodipodi:role="line"
                     y="8.8200722"
                     x="-0.77985692 1.2001741 3.5390127 6.9030151 10.669761 12.411075 17.152458 19.491297 21.232611 23.272688 26.63669">(reg write)</tspan>
                </text>
                <g
                   transform="scale(0.91247,-1.0959)"
                   id="g1047">
                  <g
                     transform="translate(243.56,-510.306)"
                     id="g1049">
                    <path
                       inkscape:connector-curvature="0"
                       id="path1051"
                       style="fill:none;stroke:#000000;stroke-width:1.33399999;stroke-linecap:round;stroke-linejoin:round;stroke-miterlimit:10;stroke-dasharray:none;stroke-opacity:1"
                       d="M 0,0 -10.061,20.038" />
                    <g
                       transform="translate(-10.061)"
                       id="g1053">
                      <path
                         inkscape:connector-curvature="0"
                         id="path1055"
                         style="fill:none;stroke:#000000;stroke-width:1.33399999;stroke-linecap:round;stroke-linejoin:round;stroke-miterlimit:10;stroke-dasharray:none;stroke-opacity:1"
                         d="M 0,0 10.061,20.038" />
                    </g>
                  </g>
                </g>
                <g
                   transform="scale(0.91247,-1.0959)"
                   id="g1057">
                  <g
                     transform="translate(393.943,-510.306)"
                     id="g1059">
                    <path
                       inkscape:connector-curvature="0"
                       id="path1061"
                       style="fill:none;stroke:#000000;stroke-width:1.33399999;stroke-linecap:round;stroke-linejoin:round;stroke-miterlimit:10;stroke-dasharray:none;stroke-opacity:1"
                       d="M 0,0 -10.061,20.147" />
                    <g
                       transform="translate(-10.061)"
                       id="g1063">
                      <path
                         inkscape:connector-curvature="0"
                         id="path1065"
                         style="fill:none;stroke:#000000;stroke-width:1.33399999;stroke-linecap:round;stroke-linejoin:round;stroke-miterlimit:10;stroke-dasharray:none;stroke-opacity:1"
                         d="M 0,0 10.061,20.147" />
                      <g
                         transform="translate(110.207,160.576)"
                         id="g1067">
                        <path
                           inkscape:connector-curvature="0"
                           id="path1069"
                           style="fill:none;stroke:#000000;stroke-width:1.33399999;stroke-linecap:round;stroke-linejoin:round;stroke-miterlimit:10;stroke-dasharray:none;stroke-opacity:1"
                           d="M 0,0 -9.995,20.038" />
                        <g
                           transform="translate(-9.995)"
                           id="g1071">
                          <path
                             inkscape:connector-curvature="0"
                             id="path1073"
                             style="fill:none;stroke:#000000;stroke-width:1.33399999;stroke-linecap:round;stroke-linejoin:round;stroke-miterlimit:10;stroke-dasharray:none;stroke-opacity:1"
                             d="M 0,0 9.995,20.038" />
                        </g>
                      </g>
                    </g>
                  </g>
                </g>
                <text
                   id="text1077"
                   style="font-variant:normal;font-weight:bold;font-stretch:normal;font-size:7.32259989px;font-family:Arial;-inkscape-font-specification:Arial-BoldMT;writing-mode:lr-tb;fill:#000000;fill-opacity:1;fill-rule:nonzero;stroke:none"
                   transform="matrix(1,0,0,-1,191.76,546.0601)">
                  <tspan
                     id="tspan1075"
                     sodipodi:role="line"
                     y="0"
                     x="0 1.6812689 5.4626598 7.2039738 168.783 173.16191 176.5208 180.30219 181.98346 186.36237 189.72124 191.76132 195.30034 197.34041 201.00171">IdleReg Data[n]</tspan>
                </text>
                <g
                   transform="scale(0.91247,-1.0959)"
                   id="g1079">
                  <g
                     transform="translate(444.049,-510.306)"
                     id="g1081">
                    <path
                       inkscape:connector-curvature="0"
                       id="path1083"
                       style="fill:none;stroke:#000000;stroke-width:1.33399999;stroke-linecap:round;stroke-linejoin:round;stroke-miterlimit:10;stroke-dasharray:none;stroke-opacity:1"
                       d="M 0,0 -10.061,20.147" />
                    <g
                       transform="translate(-10.061)"
                       id="g1085">
                      <path
                         inkscape:connector-curvature="0"
                         id="path1087"
                         style="fill:none;stroke:#000000;stroke-width:1.33399999;stroke-linecap:round;stroke-linejoin:round;stroke-miterlimit:10;stroke-dasharray:none;stroke-opacity:1"
                         d="M 0,0 10.061,20.147" />
                    </g>
                  </g>
                </g>
                <text
                   id="text1091"
                   style="font-variant:normal;font-weight:bold;font-stretch:normal;font-size:7.32259989px;font-family:Arial;-inkscape-font-specification:Arial-BoldMT;writing-mode:lr-tb;fill:#000000;fill-opacity:1;fill-rule:nonzero;stroke:none"
                   transform="matrix(1,0,0,-1,418.14,546.0601)">
                  <tspan
                     id="tspan1089"
                     sodipodi:role="line"
                     y="0"
                     x="0 1.7413143 5.5227051 7.2039738">Idle</tspan>
                </text>
                <g
                   transform="scale(0.91247,-1.0959)"
                   id="g1093">
                  <g
                     transform="translate(203.317,-470.121)"
                     id="g1095">
                    <path
                       inkscape:connector-curvature="0"
                       id="path1097"
                       style="fill:none;stroke:#000000;stroke-width:1.33399999;stroke-linecap:round;stroke-linejoin:round;stroke-miterlimit:10;stroke-dasharray:none;stroke-opacity:1"
                       d="M 0,0 H 10.455" />
                    <g
                       transform="translate(0,40.13)"
                       id="g1099">
                      <path
                         inkscape:connector-curvature="0"
                         id="path1101"
                         style="fill:none;stroke:#000000;stroke-width:1.33399999;stroke-linecap:round;stroke-linejoin:round;stroke-miterlimit:10;stroke-dasharray:none;stroke-opacity:1"
                         d="M 0,0 H 9.732" />
                      <g
                         transform="translate(0,40.076)"
                         id="g1103">
                        <path
                           inkscape:connector-curvature="0"
                           id="path1105"
                           style="fill:none;stroke:#000000;stroke-width:1.33399999;stroke-linecap:round;stroke-linejoin:round;stroke-miterlimit:10;stroke-dasharray:none;stroke-opacity:1"
                           d="M 0,0 H 10.061" />
                        <g
                           transform="translate(0,-60.168)"
                           id="g1107">
                          <path
                             inkscape:connector-curvature="0"
                             id="path1109"
                             style="fill:none;stroke:#000000;stroke-width:1.33399999;stroke-linecap:round;stroke-linejoin:round;stroke-miterlimit:10;stroke-dasharray:none;stroke-opacity:1"
                             d="M 0,0 H 11.376" />
                          <g
                             id="g1111">
                            <path
                               inkscape:connector-curvature="0"
                               id="path1113"
                               style="fill:none;stroke:#000000;stroke-width:1.33399999;stroke-linecap:round;stroke-linejoin:round;stroke-miterlimit:10;stroke-dasharray:none;stroke-opacity:1"
                               d="M 0,0 H 351.005" />
                            <g
                               transform="translate(240.601,20.093)"
                               id="g1115">
                              <path
                                 inkscape:connector-curvature="0"
                                 id="path1117"
                                 style="fill:none;stroke:#000000;stroke-width:1.33399999;stroke-linecap:round;stroke-linejoin:round;stroke-miterlimit:10;stroke-dasharray:none;stroke-opacity:1"
                                 d="M 0,0 H 40.177" />
                              <g
                                 transform="translate(-10.061,20.038)"
                                 id="g1119">
                                <path
                                   inkscape:connector-curvature="0"
                                   id="path1121"
                                   style="fill:none;stroke:#000000;stroke-width:1.33399999;stroke-linecap:round;stroke-linejoin:round;stroke-miterlimit:10;stroke-dasharray:none;stroke-opacity:1"
                                   d="M 0,0 10.061,-20.038" />
                                <g
                                   transform="translate(60.232)"
                                   id="g1123">
                                <path
                                   inkscape:connector-curvature="0"
                                   id="path1125"
                                   style="fill:none;stroke:#000000;stroke-width:1.33399999;stroke-linecap:round;stroke-linejoin:round;stroke-miterlimit:10;stroke-dasharray:none;stroke-opacity:1"
                                   d="M 0,0 H 60.232" />
                                <g
                                   transform="translate(-9.995,-20.038)"
                                   id="g1127">
                                <path
                                   inkscape:connector-curvature="0"
                                   id="path1129"
                                   style="fill:none;stroke:#000000;stroke-width:1.33399999;stroke-linecap:round;stroke-linejoin:round;stroke-miterlimit:10;stroke-dasharray:none;stroke-opacity:1"
                                   d="M 0,0 9.995,20.038" />
                                <g
                                   transform="translate(-140.389,40.076)"
                                   id="g1131">
                                <path
                                   inkscape:connector-curvature="0"
                                   id="path1133"
                                   style="fill:none;stroke:#000000;stroke-width:1.33399999;stroke-linecap:round;stroke-linejoin:round;stroke-miterlimit:10;stroke-dasharray:none;stroke-opacity:1"
                                   d="M 0,0 H 90.151" />
                                <g
                                   transform="translate(100.343,20.038)"
                                   id="g1135">
                                <path
                                   inkscape:connector-curvature="0"
                                   id="path1137"
                                   style="fill:none;stroke:#000000;stroke-width:1.33399999;stroke-linecap:round;stroke-linejoin:round;stroke-miterlimit:10;stroke-dasharray:none;stroke-opacity:1"
                                   d="M 0,0 H 110.273" />
                                <g
                                   transform="translate(-100.343,-20.038)"
                                   id="g1139">
                                <path
                                   inkscape:connector-curvature="0"
                                   id="path1141"
                                   style="fill:none;stroke:#000000;stroke-width:1.33399999;stroke-linecap:round;stroke-linejoin:round;stroke-miterlimit:10;stroke-dasharray:none;stroke-opacity:1"
                                   d="M 0,0 -9.995,20.038" />
                                <g
                                   transform="translate(-50.106,20.038)"
                                   id="g1143">
                                <path
                                   inkscape:connector-curvature="0"
                                   id="path1145"
                                   style="fill:none;stroke:#000000;stroke-width:1.33399999;stroke-linecap:round;stroke-linejoin:round;stroke-miterlimit:10;stroke-dasharray:none;stroke-opacity:1"
                                   d="M 0,0 H 40.111" />
                                <g
                                   transform="translate(140.389,-20.038)"
                                   id="g1147">
                                <path
                                   inkscape:connector-curvature="0"
                                   id="path1149"
                                   style="fill:none;stroke:#000000;stroke-width:1.33399999;stroke-linecap:round;stroke-linejoin:round;stroke-miterlimit:10;stroke-dasharray:none;stroke-opacity:1"
                                   d="M 0,0 10.061,19.819" />
                                <g
                                   transform="translate(-230.672,40.185)"
                                   id="g1151">
                                <path
                                   inkscape:connector-curvature="0"
                                   id="path1153"
                                   style="fill:none;stroke:#000000;stroke-width:1.33399999;stroke-linecap:round;stroke-linejoin:round;stroke-miterlimit:10;stroke-dasharray:none;stroke-opacity:1"
                                   d="M 0,0 H 351.005" />
                                <g
                                   transform="translate(0,20.038)"
                                   id="g1155">
                                <path
                                   inkscape:connector-curvature="0"
                                   id="path1157"
                                   style="fill:none;stroke:#000000;stroke-width:1.33399999;stroke-linecap:round;stroke-linejoin:round;stroke-miterlimit:10;stroke-dasharray:none;stroke-opacity:1"
                                   d="M 0,0 H 351.005" />
                                </g>
                                </g>
                                </g>
                                </g>
                                </g>
                                </g>
                                </g>
                                </g>
                                </g>
                              </g>
                            </g>
                          </g>
                        </g>
                      </g>
                    </g>
                  </g>
                </g>
                <text
                   id="text1161"
                   style="font-variant:normal;font-weight:bold;font-stretch:normal;font-size:9.76360035px;font-family:Arial;-inkscape-font-specification:Arial-BoldMT;writing-mode:lr-tb;fill:#000000;fill-opacity:1;fill-rule:nonzero;stroke:none"
                   transform="matrix(1,0,0,-1,123.6,369.36)">
                  <tspan
                     id="tspan1159"
                     sodipodi:role="line"
                     y="0"
                     x="0 5.8786635 10.860052 16.2603 18.481518 20.702738 26.581402 31.140026 36.121414 38.403168 42.961792 45.661427 50.27961 53.398106">ULPI Register</tspan>
                </text>
                <g
                   transform="scale(0.91247,-1.0959)"
                   id="g1163">
                  <g
                     transform="translate(479.097,-530.344)"
                     id="g1165">
                    <path
                       inkscape:connector-curvature="0"
                       id="path1167"
                       style="fill:none;stroke:#000000;stroke-width:1.33399999;stroke-linecap:round;stroke-linejoin:round;stroke-miterlimit:10;stroke-dasharray:none;stroke-opacity:1"
                       d="M 0,0 9.995,-20.038 H 25.119 L 35.179,0 h 14.993" />
                    <g
                       transform="translate(-4.997,20.038)"
                       id="g1169">
                      <path
                         inkscape:connector-curvature="0"
                         id="path1171"
                         style="fill:none;stroke:#000000;stroke-width:1.33399999;stroke-linecap:round;stroke-linejoin:round;stroke-miterlimit:10;stroke-dasharray:none;stroke-opacity:1"
                         d="M 0,0 H 80.222" />
                      <g
                         transform="translate(0,20.147)"
                         id="g1173">
                        <path
                           inkscape:connector-curvature="0"
                           id="path1175"
                           style="fill:none;stroke:#000000;stroke-width:1.33399999;stroke-linecap:round;stroke-linejoin:round;stroke-miterlimit:10;stroke-dasharray:none;stroke-opacity:1"
                           d="M 0,0 H 80.222" />
                      </g>
                    </g>
                  </g>
                </g>
                <text
                   id="text1179"
                   style="font-variant:normal;font-weight:bold;font-stretch:normal;font-size:7.32259989px;font-family:Arial;-inkscape-font-specification:Arial-BoldMT;writing-mode:lr-tb;fill:#000000;fill-opacity:1;fill-rule:nonzero;stroke:none"
                   transform="matrix(1,0,0,-1,288.42,370.08)">
                  <tspan
                     id="tspan1177"
                     sodipodi:role="line"
                     y="0"
                     x="0 4.3789148 7.7377915 11.519182 13.200451 17.579367 20.938242 22.978319 26.337196 28.138556 30.178631 33.839931 35.880009 39.298931 169.67929 173.99815 177.35704 181.13843 182.87975 187.19861 190.55748 192.59756 195.95644 197.81784 199.79787 203.57927">Reg Data [n-1]Reg Data [n]</tspan>
                </text>
                <text
                   id="text1183"
                   style="font-variant:normal;font-weight:bold;font-stretch:normal;font-size:9.76360035px;font-family:Arial;-inkscape-font-specification:Arial-BoldMT;writing-mode:lr-tb;fill:#000000;fill-opacity:1;fill-rule:nonzero;stroke:none"
                   transform="matrix(1,0,0,-1,217.14,611.28)">
                  <tspan
                     id="tspan1181"
                     sodipodi:role="line"
                     y="0"
                     x="0 4.8612967 45.720009 50.701397 91.440018 96.361847 137.22057 142.20195 228.66058 233.64197 182.93959 187.92099">T0T1T2T3T5T4</tspan>
                </text>
                <g
                   transform="scale(0.91247,-1.0959)"
                   id="g1185">
                  <g
                     transform="translate(529.269,-530.344)"
                     id="g1187">
                    <path
                       inkscape:connector-curvature="0"
                       id="path1189"
                       style="fill:none;stroke:#000000;stroke-width:1.33399999;stroke-linecap:round;stroke-linejoin:round;stroke-miterlimit:10;stroke-dasharray:none;stroke-opacity:1"
                       d="M 0,0 10.061,-20.038" />
                    <g
                       transform="translate(25.053,-20.038)"
                       id="g1191">
                      <path
                         inkscape:connector-curvature="0"
                         id="path1193"
                         style="fill:none;stroke:#000000;stroke-width:1.33399999;stroke-linecap:round;stroke-linejoin:round;stroke-miterlimit:10;stroke-dasharray:none;stroke-opacity:1"
                         d="M 0,0 H -14.992" />
                      <g
                         transform="translate(-325.82,20.038)"
                         id="g1195">
                        <path
                           inkscape:connector-curvature="0"
                           id="path1197"
                           style="fill:none;stroke:#000000;stroke-width:1.33399999;stroke-linecap:round;stroke-linejoin:round;stroke-miterlimit:10;stroke-dasharray:none;stroke-opacity:1"
                           d="M 0,0 H -15.124" />
                        <g
                           transform="translate(-25.184,-20.038)"
                           id="g1199">
                          <path
                             inkscape:connector-curvature="0"
                             id="path1201"
                             style="fill:none;stroke:#000000;stroke-width:1.33399999;stroke-linecap:round;stroke-linejoin:round;stroke-miterlimit:10;stroke-dasharray:none;stroke-opacity:1"
                             d="M 0,0 10.061,20.038" />
                          <g
                             transform="translate(341.01,80.261)"
                             id="g1203">
                            <path
                               inkscape:connector-curvature="0"
                               id="path1205"
                               style="fill:none;stroke:#000000;stroke-width:1.33399999;stroke-linecap:round;stroke-linejoin:round;stroke-miterlimit:10;stroke-dasharray:none;stroke-opacity:1"
                               d="M 0,0 H 9.995" />
                            <g
                               transform="translate(0.46,40.13)"
                               id="g1207">
                              <path
                                 inkscape:connector-curvature="0"
                                 id="path1209"
                                 style="fill:none;stroke:#000000;stroke-width:1.33399999;stroke-linecap:round;stroke-linejoin:round;stroke-miterlimit:10;stroke-dasharray:none;stroke-opacity:1"
                                 d="M 0,0 H 9.535" />
                              <g
                                 transform="translate(-0.46,40.076)"
                                 id="g1211">
                                <path
                                   inkscape:connector-curvature="0"
                                   id="path1213"
                                   style="fill:none;stroke:#000000;stroke-width:1.33399999;stroke-linecap:round;stroke-linejoin:round;stroke-miterlimit:10;stroke-dasharray:none;stroke-opacity:1"
                                   d="M 0,0 H 9.995" />
                                <g
                                   transform="translate(0,-60.168)"
                                   id="g1215">
                                <path
                                   inkscape:connector-curvature="0"
                                   id="path1217"
                                   style="fill:none;stroke:#000000;stroke-width:1.33399999;stroke-linecap:round;stroke-linejoin:round;stroke-miterlimit:10;stroke-dasharray:none;stroke-opacity:1"
                                   d="M 0,0 H 9.995" />
                                </g>
                              </g>
                            </g>
                          </g>
                        </g>
                      </g>
                    </g>
                  </g>
                </g>
                <text
                   id="text1221"
                   style="font-variant:normal;font-weight:bold;font-stretch:normal;font-size:9.76360035px;font-family:Arial;-inkscape-font-specification:Arial-BoldMT;writing-mode:lr-tb;fill:#000000;fill-opacity:1;fill-rule:nonzero;stroke:none"
                   transform="matrix(1,0,0,-1,491.58,611.28)">
                  <tspan
                     id="tspan1219"
                     sodipodi:role="line"
                     y="0"
                     x="0 4.9813886">T6</tspan>
                </text>
              </g>
            </g>
          </g>
        </g>
      </g>
    </g>
  </g>
</svg>
