<?xml version="1.0" encoding="UTF-8" standalone="no"?>
<!-- Created with Inkscape (http://www.inkscape.org/) -->

<svg
   xmlns:dc="http://purl.org/dc/elements/1.1/"
   xmlns:cc="http://creativecommons.org/ns#"
   xmlns:rdf="http://www.w3.org/1999/02/22-rdf-syntax-ns#"
   xmlns:svg="http://www.w3.org/2000/svg"
   xmlns="http://www.w3.org/2000/svg"
   xmlns:sodipodi="http://sodipodi.sourceforge.net/DTD/sodipodi-0.dtd"
   xmlns:inkscape="http://www.inkscape.org/namespaces/inkscape"
   version="1.1"
   id="svg2731"
   xml:space="preserve"
   width="503.56207"
   height="251.18434"
   viewBox="0 0 503.56207 251.18434"
   sodipodi:docname="USB3300_REG_READ.svg"
   inkscape:version="0.92.4 5da689c313, 2019-01-14"><metadata
     id="metadata2737"><rdf:RDF><cc:Work
         rdf:about=""><dc:format>image/svg+xml</dc:format><dc:type
           rdf:resource="http://purl.org/dc/dcmitype/StillImage" /><dc:title></dc:title></cc:Work></rdf:RDF></metadata><defs
     id="defs2735"><clipPath
       clipPathUnits="userSpaceOnUse"
       id="clipPath2747"><path
         d="M 63,743.04 H 531 V 727.62 H 63 Z"
         id="path2745"
         inkscape:connector-curvature="0"
         style="clip-rule:evenodd" /></clipPath><clipPath
       clipPathUnits="userSpaceOnUse"
       id="clipPath2753"><path
         d="M 0,792.03 H 612 V 0.03 H 0 Z"
         id="path2751"
         inkscape:connector-curvature="0" /></clipPath><clipPath
       clipPathUnits="userSpaceOnUse"
       id="clipPath2771"><path
         d="M 63,54 H 531 V 37.26 H 63 Z"
         id="path2769"
         inkscape:connector-curvature="0"
         style="clip-rule:evenodd" /></clipPath><clipPath
       clipPathUnits="userSpaceOnUse"
       id="clipPath2777"><path
         d="M 0,792.03 H 612 V 0.03 H 0 Z"
         id="path2775"
         inkscape:connector-curvature="0" /></clipPath><clipPath
       clipPathUnits="userSpaceOnUse"
       id="clipPath2889"><path
         d="M 100.74,633 H 493.26 V 428.04 H 100.74 Z"
         id="path2887"
         inkscape:connector-curvature="0"
         style="clip-rule:evenodd" /></clipPath><clipPath
       clipPathUnits="userSpaceOnUse"
       id="clipPath2895"><path
         d="m 63,643.02 h 468 v -219 H 63 Z"
         id="path2893"
         inkscape:connector-curvature="0"
         style="clip-rule:evenodd" /></clipPath><clipPath
       clipPathUnits="userSpaceOnUse"
       id="clipPath2901"><path
         d="M 0,792.03 H 612 V 0.03 H 0 Z"
         id="path2899"
         inkscape:connector-curvature="0" /></clipPath><clipPath
       clipPathUnits="userSpaceOnUse"
       id="clipPath2911"><path
         d="M 106.74,627 H 487.26 V 434.04 H 106.74 Z"
         id="path2909"
         inkscape:connector-curvature="0"
         style="clip-rule:evenodd" /></clipPath><clipPath
       clipPathUnits="userSpaceOnUse"
       id="clipPath2917"><path
         d="M 100.74,633 H 493.26 V 428.04 H 100.74 Z"
         id="path2915"
         inkscape:connector-curvature="0"
         style="clip-rule:evenodd" /></clipPath><clipPath
       clipPathUnits="userSpaceOnUse"
       id="clipPath2923"><path
         d="m 63,643.02 h 468 v -219 H 63 Z"
         id="path2921"
         inkscape:connector-curvature="0"
         style="clip-rule:evenodd" /></clipPath><clipPath
       clipPathUnits="userSpaceOnUse"
       id="clipPath2929"><path
         d="M 0,792.03 H 612 V 0.03 H 0 Z"
         id="path2927"
         inkscape:connector-curvature="0" /></clipPath><clipPath
       clipPathUnits="userSpaceOnUse"
       id="clipPath2911-3"><path
         d="M 106.74,627 H 487.26 V 434.04 H 106.74 Z"
         id="path2909-6"
         inkscape:connector-curvature="0"
         style="clip-rule:evenodd" /></clipPath><clipPath
       clipPathUnits="userSpaceOnUse"
       id="clipPath2917-0"><path
         d="M 100.74,633 H 493.26 V 428.04 H 100.74 Z"
         id="path2915-6"
         inkscape:connector-curvature="0"
         style="clip-rule:evenodd" /></clipPath><clipPath
       clipPathUnits="userSpaceOnUse"
       id="clipPath2923-2"><path
         d="m 63,643.02 h 468 v -219 H 63 Z"
         id="path2921-6"
         inkscape:connector-curvature="0"
         style="clip-rule:evenodd" /></clipPath><clipPath
       clipPathUnits="userSpaceOnUse"
       id="clipPath2929-1"><path
         d="M 0,792.03 H 612 V 0.03 H 0 Z"
         id="path2927-8"
         inkscape:connector-curvature="0" /></clipPath></defs><sodipodi:namedview
     pagecolor="#ffffff"
     bordercolor="#666666"
     borderopacity="1"
     objecttolerance="10"
     gridtolerance="10"
     guidetolerance="10"
     inkscape:pageopacity="0"
     inkscape:pageshadow="2"
     inkscape:window-width="1920"
     inkscape:window-height="1026"
     id="namedview2733"
     showgrid="false"
     inkscape:zoom="1.5137607"
     inkscape:cx="326.38826"
     inkscape:cy="8.5011036"
     inkscape:window-x="0"
     inkscape:window-y="26"
     inkscape:window-maximized="1"
     inkscape:current-layer="g2739" /><g
     id="g2739"
     inkscape:groupmode="layer"
     inkscape:label="USB3300"
     transform="matrix(1.3333333,0,0,-1.3333333,-141.94038,973.81081)"><g
       transform="translate(-2.1238337,104.3594)"
       id="g2905"><g
         id="g2907"
         clip-path="url(#clipPath2911-3)"><g
           id="g2913"
           clip-path="url(#clipPath2917-0)"><g
             id="g2919"
             clip-path="url(#clipPath2923-2)"><g
               id="g2925"
               clip-path="url(#clipPath2929-1)"><g
                 id="g2931"
                 transform="scale(0.95197,-1.0505)"><g
                   id="g2933"
                   transform="translate(172.001,-594.487)"><path
                     d="M 0,0 V 4.741 L -0.126,5.026 -0.315,5.141 -0.567,5.026 -0.693,4.741 V 0 l 0.126,-0.286 0.252,-0.114 0.189,0.114 z m 0,8.168 v 4.855 l -0.126,0.171 -0.189,0.115 -0.252,-0.115 -0.126,-0.171 V 8.168 l 0.126,-0.171 0.252,-0.115 0.189,0.115 z m 0,8.282 v 4.741 l -0.126,0.286 -0.189,0.114 -0.252,-0.114 -0.126,-0.286 V 16.45 l 0.126,-0.286 0.252,-0.114 0.189,0.114 z m 0,8.168 v 4.855 l -0.126,0.171 -0.189,0.115 -0.252,-0.115 -0.126,-0.171 v -4.855 l 0.126,-0.171 0.252,-0.115 0.189,0.115 z M 0,32.9 v 4.741 l -0.126,0.286 -0.189,0.114 -0.252,-0.114 -0.126,-0.286 V 32.9 l 0.126,-0.285 0.252,-0.115 0.189,0.115 z m 0,8.168 v 4.855 l -0.126,0.171 -0.189,0.115 -0.252,-0.115 -0.126,-0.171 v -4.855 l 0.126,-0.171 0.252,-0.115 0.189,0.115 z m 0,8.282 v 4.741 l -0.126,0.286 -0.189,0.114 -0.252,-0.114 -0.126,-0.286 V 49.35 l 0.126,-0.285 0.252,-0.115 0.189,0.115 z m 0,8.168 v 4.855 l -0.126,0.229 -0.189,0.057 -0.252,-0.057 -0.126,-0.229 v -4.855 l 0.126,-0.171 0.252,-0.114 0.189,0.114 z M 0,65.8 v 4.741 l -0.126,0.286 -0.189,0.114 -0.252,-0.114 -0.126,-0.286 V 65.8 l 0.126,-0.285 0.252,-0.057 0.189,0.057 z m 0,8.168 v 4.855 l -0.126,0.229 -0.189,0.057 -0.252,-0.057 -0.126,-0.229 v -4.855 l 0.126,-0.171 0.252,-0.114 0.189,0.114 z m 0,8.282 v 4.798 l -0.126,0.286 -0.189,0.057 -0.252,-0.057 -0.126,-0.286 V 82.25 l 0.126,-0.285 0.252,-0.057 0.189,0.057 z m 0,8.225 v 4.798 l -0.126,0.229 -0.189,0.057 -0.252,-0.057 -0.126,-0.229 v -4.798 l 0.126,-0.228 0.252,-0.171 0.189,0.171 z M 0,98.7 v 4.798 l -0.126,0.286 -0.189,0.057 -0.252,-0.057 -0.126,-0.286 V 98.7 l 0.126,-0.285 0.252,-0.057 0.189,0.057 z m 0,8.225 v 4.741 l -0.126,0.286 -0.189,0.114 -0.252,-0.114 -0.126,-0.286 v -4.741 l 0.126,-0.285 0.252,-0.114 0.189,0.114 z m 0,8.168 v 4.855 l -0.126,0.172 -0.189,0.171 -0.252,-0.171 -0.126,-0.172 v -4.855 l 0.126,-0.171 0.252,-0.114 0.189,0.114 z m 0,8.283 v 4.74 l -0.126,0.286 -0.189,0.114 -0.252,-0.114 -0.126,-0.286 v -4.74 l 0.126,-0.286 0.252,-0.114 0.189,0.114 z m 0,8.167 v 4.855 l -0.126,0.172 -0.189,0.114 -0.252,-0.114 -0.126,-0.172 v -4.855 l 0.126,-0.171 0.252,-0.114 0.189,0.114 z m 0,8.283 v 4.74 l -0.126,0.286 -0.189,0.114 -0.252,-0.114 -0.126,-0.286 v -4.74 l 0.126,-0.286 0.252,-0.114 0.189,0.114 z m 0,8.167 v 4.856 l -0.126,0.171 -0.189,0.114 -0.252,-0.114 -0.126,-0.171 v -4.856 l 0.126,-0.171 0.252,-0.114 0.189,0.114 z m 0,8.283 v 4.74 l -0.126,0.286 -0.189,0.114 -0.252,-0.114 -0.126,-0.286 v -4.74 l 0.126,-0.286 0.252,-0.114 0.189,0.114 z m 0,8.168 v 4.855 l -0.126,0.228 -0.189,0.057 -0.252,-0.057 -0.126,-0.228 v -4.855 l 0.126,-0.172 0.252,-0.114 0.189,0.114 z m 0,8.282 v 4.741 l -0.126,0.285 -0.189,0.114 -0.252,-0.114 -0.126,-0.285 v -4.741 l 0.126,-0.286 0.252,-0.114 0.189,0.114 z"
                     style="fill:#c0c0c0;fill-opacity:1;fill-rule:nonzero;stroke:#c0c0c0;stroke-width:0.095;stroke-linecap:round;stroke-linejoin:round;stroke-miterlimit:10;stroke-dasharray:none;stroke-opacity:1"
                     id="path2935"
                     inkscape:connector-curvature="0" /></g><g
                   id="g2937"
                   transform="translate(214.859,-594.487)"><path
                     d="M 0,0 V 4.741 L -0.189,5.026 -0.378,5.141 -0.63,5.026 -0.756,4.741 V 0 l 0.126,-0.286 0.252,-0.114 0.189,0.114 z m 0,8.168 v 4.855 l -0.189,0.171 -0.189,0.115 -0.252,-0.115 -0.126,-0.171 V 8.168 l 0.126,-0.171 0.252,-0.115 0.189,0.115 z m 0,8.282 v 4.741 l -0.189,0.286 -0.189,0.114 -0.252,-0.114 -0.126,-0.286 V 16.45 l 0.126,-0.286 0.252,-0.114 0.189,0.114 z m 0,8.168 v 4.855 l -0.189,0.171 -0.189,0.115 -0.252,-0.115 -0.126,-0.171 v -4.855 l 0.126,-0.171 0.252,-0.115 0.189,0.115 z M 0,32.9 v 4.741 l -0.189,0.286 -0.189,0.114 -0.252,-0.114 -0.126,-0.286 V 32.9 l 0.126,-0.285 0.252,-0.115 0.189,0.115 z m 0,8.168 v 4.855 l -0.189,0.171 -0.189,0.115 -0.252,-0.115 -0.126,-0.171 v -4.855 l 0.126,-0.171 0.252,-0.115 0.189,0.115 z m 0,8.282 v 4.741 l -0.189,0.286 -0.189,0.114 -0.252,-0.114 -0.126,-0.286 V 49.35 l 0.126,-0.285 0.252,-0.115 0.189,0.115 z m 0,8.168 v 4.855 l -0.189,0.229 -0.189,0.057 -0.252,-0.057 -0.126,-0.229 v -4.855 l 0.126,-0.171 0.252,-0.114 0.189,0.114 z M 0,65.8 v 4.741 l -0.189,0.286 -0.189,0.114 -0.252,-0.114 -0.126,-0.286 V 65.8 l 0.126,-0.285 0.252,-0.057 0.189,0.057 z m 0,8.168 v 4.855 l -0.189,0.229 -0.189,0.057 -0.252,-0.057 -0.126,-0.229 v -4.855 l 0.126,-0.171 0.252,-0.114 0.189,0.114 z m 0,8.282 v 4.798 l -0.189,0.286 -0.189,0.057 -0.252,-0.057 -0.126,-0.286 V 82.25 l 0.126,-0.285 0.252,-0.057 0.189,0.057 z m 0,8.225 v 4.798 l -0.189,0.229 -0.189,0.057 -0.252,-0.057 -0.126,-0.229 v -4.798 l 0.126,-0.228 0.252,-0.171 0.189,0.171 z M 0,98.7 v 4.798 l -0.189,0.286 -0.189,0.057 -0.252,-0.057 -0.126,-0.286 V 98.7 l 0.126,-0.285 0.252,-0.057 0.189,0.057 z m 0,8.225 v 4.741 l -0.189,0.286 -0.189,0.114 -0.252,-0.114 -0.126,-0.286 v -4.741 l 0.126,-0.285 0.252,-0.114 0.189,0.114 z m 0,8.168 v 4.855 l -0.378,0.343 -0.252,-0.171 -0.126,-0.172 v -4.855 l 0.126,-0.171 0.252,-0.114 0.189,0.114 z m 0,8.283 v 4.74 l -0.189,0.286 -0.189,0.114 -0.252,-0.114 -0.126,-0.286 v -4.74 l 0.126,-0.286 0.252,-0.114 0.189,0.114 z m 0,8.167 v 4.855 l -0.189,0.172 -0.189,0.114 -0.252,-0.114 -0.126,-0.172 v -4.855 l 0.126,-0.171 0.252,-0.114 0.189,0.114 z m 0,8.283 v 4.74 l -0.189,0.286 -0.189,0.114 -0.252,-0.114 -0.126,-0.286 v -4.74 l 0.126,-0.286 0.252,-0.114 0.189,0.114 z m 0,8.167 v 4.856 l -0.189,0.171 -0.189,0.114 -0.252,-0.114 -0.126,-0.171 v -4.856 l 0.126,-0.171 0.252,-0.114 0.189,0.114 z m 0,8.283 v 4.74 l -0.189,0.286 -0.189,0.114 -0.252,-0.114 -0.126,-0.286 v -4.74 l 0.126,-0.286 0.252,-0.114 0.189,0.114 z m 0,8.168 v 4.855 l -0.189,0.228 -0.189,0.057 -0.252,-0.057 -0.126,-0.228 v -4.855 l 0.126,-0.172 0.252,-0.114 0.189,0.114 z m 0,8.282 v 4.741 l -0.189,0.285 -0.189,0.114 -0.252,-0.114 -0.126,-0.285 v -4.741 l 0.126,-0.286 0.252,-0.114 0.189,0.114 z"
                     style="fill:#c0c0c0;fill-opacity:1;fill-rule:nonzero;stroke:#c0c0c0;stroke-width:0.095;stroke-linecap:round;stroke-linejoin:round;stroke-miterlimit:10;stroke-dasharray:none;stroke-opacity:1"
                     id="path2939"
                     inkscape:connector-curvature="0" /></g><g
                   id="g2941"
                   transform="translate(257.718,-594.487)"><path
                     d="M 0,0 V 4.741 L -0.126,5.026 -0.378,5.141 -0.567,5.026 -0.693,4.741 V 0 l 0.126,-0.286 0.189,-0.114 0.252,0.114 z m 0,8.168 v 4.855 l -0.126,0.171 -0.252,0.115 -0.189,-0.115 -0.126,-0.171 V 8.168 l 0.126,-0.171 0.189,-0.115 0.252,0.115 z m 0,8.282 v 4.741 l -0.126,0.286 -0.252,0.114 -0.189,-0.114 -0.126,-0.286 V 16.45 l 0.126,-0.286 0.189,-0.114 0.252,0.114 z m 0,8.168 v 4.855 l -0.126,0.171 -0.252,0.115 -0.189,-0.115 -0.126,-0.171 v -4.855 l 0.126,-0.171 0.189,-0.115 0.252,0.115 z M 0,32.9 v 4.741 l -0.126,0.286 -0.252,0.114 -0.189,-0.114 -0.126,-0.286 V 32.9 l 0.126,-0.285 0.189,-0.115 0.252,0.115 z m 0,8.168 v 4.855 l -0.126,0.171 -0.252,0.115 -0.189,-0.115 -0.126,-0.171 v -4.855 l 0.126,-0.171 0.189,-0.115 0.252,0.115 z m 0,8.282 v 4.741 l -0.126,0.286 -0.252,0.114 -0.189,-0.114 -0.126,-0.286 V 49.35 l 0.126,-0.285 0.189,-0.115 0.252,0.115 z m 0,8.168 v 4.855 l -0.126,0.229 -0.252,0.057 -0.189,-0.057 -0.126,-0.229 v -4.855 l 0.126,-0.171 0.189,-0.114 0.252,0.114 z M 0,65.8 v 4.741 l -0.126,0.286 -0.252,0.114 -0.189,-0.114 -0.126,-0.286 V 65.8 l 0.126,-0.285 0.189,-0.057 0.252,0.057 z m 0,8.168 v 4.855 l -0.126,0.229 -0.252,0.057 -0.189,-0.057 -0.126,-0.229 v -4.855 l 0.126,-0.171 0.189,-0.114 0.252,0.114 z m 0,8.282 v 4.798 l -0.126,0.286 -0.252,0.057 -0.189,-0.057 -0.126,-0.286 V 82.25 l 0.126,-0.285 0.189,-0.057 0.252,0.057 z m 0,8.225 v 4.798 l -0.126,0.229 -0.252,0.057 -0.189,-0.057 -0.126,-0.229 v -4.798 l 0.126,-0.228 0.189,-0.171 0.252,0.171 z M 0,98.7 v 4.798 l -0.126,0.286 -0.252,0.057 -0.189,-0.057 -0.126,-0.286 V 98.7 l 0.126,-0.285 0.189,-0.057 0.252,0.057 z m 0,8.225 v 4.741 l -0.126,0.286 -0.252,0.114 -0.189,-0.114 -0.126,-0.286 v -4.741 l 0.126,-0.285 0.189,-0.114 0.252,0.114 z m 0,8.168 v 4.855 l -0.126,0.172 -0.252,0.171 -0.189,-0.171 -0.126,-0.172 v -4.855 l 0.126,-0.171 0.189,-0.114 0.252,0.114 z m 0,8.283 v 4.74 l -0.126,0.286 -0.252,0.114 -0.189,-0.114 -0.126,-0.286 v -4.74 l 0.126,-0.286 0.189,-0.114 0.252,0.114 z m 0,8.167 v 4.855 l -0.126,0.172 -0.252,0.114 -0.189,-0.114 -0.126,-0.172 v -4.855 l 0.126,-0.171 0.189,-0.114 0.252,0.114 z m 0,8.283 v 4.74 l -0.126,0.286 -0.252,0.114 -0.189,-0.114 -0.126,-0.286 v -4.74 l 0.126,-0.286 0.189,-0.114 0.252,0.114 z m 0,8.167 v 4.856 l -0.126,0.171 -0.252,0.114 -0.189,-0.114 -0.126,-0.171 v -4.856 l 0.126,-0.171 0.189,-0.114 0.252,0.114 z m 0,8.283 v 4.74 l -0.126,0.286 -0.252,0.114 -0.189,-0.114 -0.126,-0.286 v -4.74 l 0.126,-0.286 0.189,-0.114 0.252,0.114 z m 0,8.168 v 4.855 l -0.126,0.228 -0.252,0.057 -0.189,-0.057 -0.126,-0.228 v -4.855 l 0.126,-0.172 0.189,-0.114 0.252,0.114 z m 0,8.282 v 4.741 l -0.126,0.285 -0.252,0.114 -0.189,-0.114 -0.126,-0.285 v -4.741 l 0.126,-0.286 0.189,-0.114 0.252,0.114 z"
                     style="fill:#c0c0c0;fill-opacity:1;fill-rule:nonzero;stroke:#c0c0c0;stroke-width:0.095;stroke-linecap:round;stroke-linejoin:round;stroke-miterlimit:10;stroke-dasharray:none;stroke-opacity:1"
                     id="path2943"
                     inkscape:connector-curvature="0" /></g><g
                   id="g2945"
                   transform="translate(300.513,-594.487)"><path
                     d="M 0,0 V 4.741 L -0.063,5.026 -0.252,5.141 -0.567,5.026 -0.63,4.741 V 0 l 0.063,-0.286 0.315,-0.114 0.189,0.114 z m 0,8.168 v 4.855 l -0.063,0.171 -0.189,0.115 -0.315,-0.115 -0.063,-0.171 V 8.168 l 0.063,-0.171 0.315,-0.115 0.189,0.115 z m 0,8.282 v 4.741 l -0.063,0.286 -0.189,0.114 -0.315,-0.114 -0.063,-0.286 V 16.45 l 0.063,-0.286 0.315,-0.114 0.189,0.114 z m 0,8.168 v 4.855 l -0.063,0.171 -0.189,0.115 -0.315,-0.115 -0.063,-0.171 v -4.855 l 0.063,-0.171 0.315,-0.115 0.189,0.115 z M 0,32.9 v 4.741 l -0.063,0.286 -0.189,0.114 -0.315,-0.114 -0.063,-0.286 V 32.9 l 0.063,-0.285 0.315,-0.115 0.189,0.115 z m 0,8.168 v 4.855 l -0.063,0.171 -0.189,0.115 -0.315,-0.115 -0.063,-0.171 v -4.855 l 0.063,-0.171 0.315,-0.115 0.189,0.115 z m 0,8.282 v 4.741 l -0.063,0.286 -0.189,0.114 -0.315,-0.114 -0.063,-0.286 V 49.35 l 0.063,-0.285 0.315,-0.115 0.189,0.115 z m 0,8.168 v 4.855 l -0.063,0.229 -0.189,0.057 -0.315,-0.057 -0.063,-0.229 v -4.855 l 0.063,-0.171 0.315,-0.114 0.189,0.114 z M 0,65.8 v 4.741 l -0.063,0.286 -0.189,0.114 -0.315,-0.114 -0.063,-0.286 V 65.8 l 0.063,-0.285 0.315,-0.057 0.189,0.057 z m 0,8.168 v 4.855 l -0.063,0.229 -0.189,0.057 -0.315,-0.057 -0.063,-0.229 v -4.855 l 0.063,-0.171 0.315,-0.114 0.189,0.114 z m 0,8.282 v 4.798 l -0.063,0.286 -0.189,0.057 -0.315,-0.057 -0.063,-0.286 V 82.25 l 0.063,-0.285 0.315,-0.057 0.189,0.057 z m 0,8.225 v 4.798 l -0.063,0.229 -0.189,0.057 -0.315,-0.057 -0.063,-0.229 v -4.798 l 0.063,-0.228 0.315,-0.171 0.189,0.171 z M 0,98.7 v 4.798 l -0.063,0.286 -0.189,0.057 -0.315,-0.057 -0.063,-0.286 V 98.7 l 0.063,-0.285 0.315,-0.057 0.189,0.057 z m 0,8.225 v 4.741 l -0.063,0.286 -0.189,0.114 -0.315,-0.114 -0.063,-0.286 v -4.741 l 0.063,-0.285 0.315,-0.114 0.189,0.114 z m 0,8.168 v 4.855 l -0.063,0.172 -0.189,0.171 -0.315,-0.171 -0.063,-0.172 v -4.855 l 0.063,-0.171 0.315,-0.114 0.189,0.114 z m 0,8.283 v 4.74 l -0.063,0.286 -0.189,0.114 -0.315,-0.114 -0.063,-0.286 v -4.74 l 0.063,-0.286 0.315,-0.114 0.189,0.114 z m 0,8.167 v 4.855 l -0.063,0.172 -0.189,0.114 -0.315,-0.114 -0.063,-0.172 v -4.855 l 0.063,-0.171 0.315,-0.114 0.189,0.114 z m 0,8.283 v 4.74 l -0.063,0.286 -0.189,0.114 -0.315,-0.114 -0.063,-0.286 v -4.74 l 0.063,-0.286 0.315,-0.114 0.189,0.114 z m 0,8.167 v 4.856 l -0.063,0.171 -0.189,0.114 -0.315,-0.114 -0.063,-0.171 v -4.856 l 0.063,-0.171 0.315,-0.114 0.189,0.114 z m 0,8.283 v 4.74 l -0.063,0.286 -0.189,0.114 -0.315,-0.114 -0.063,-0.286 v -4.74 l 0.063,-0.286 0.315,-0.114 0.189,0.114 z m 0,8.168 v 4.855 l -0.063,0.228 -0.189,0.057 -0.315,-0.057 -0.063,-0.228 v -4.855 l 0.063,-0.172 0.315,-0.114 0.189,0.114 z m 0,8.282 v 4.741 l -0.063,0.285 -0.189,0.114 -0.315,-0.114 -0.063,-0.285 v -4.741 l 0.063,-0.286 0.315,-0.114 0.189,0.114 z"
                     style="fill:#c0c0c0;fill-opacity:1;fill-rule:nonzero;stroke:#c0c0c0;stroke-width:0.095;stroke-linecap:round;stroke-linejoin:round;stroke-miterlimit:10;stroke-dasharray:none;stroke-opacity:1"
                     id="path2947"
                     inkscape:connector-curvature="0" /></g><g
                   id="g2949"
                   transform="translate(343.435,-595.458)"><path
                     d="M 0,0 V 4.741 L -0.126,5.026 -0.378,5.141 -0.567,5.026 -0.756,4.741 V 0 l 0.189,-0.286 0.189,-0.114 0.252,0.114 z m 0,8.168 v 4.855 l -0.126,0.228 -0.252,0.058 -0.189,-0.058 -0.189,-0.228 V 8.168 l 0.189,-0.171 0.189,-0.115 0.252,0.115 z m 0,8.282 v 4.741 l -0.126,0.286 -0.252,0.114 -0.189,-0.114 -0.189,-0.286 V 16.45 l 0.189,-0.286 0.189,-0.114 0.252,0.114 z m 0,8.168 v 4.855 l -0.126,0.229 -0.252,0.057 -0.189,-0.057 -0.189,-0.229 v -4.855 l 0.189,-0.171 0.189,-0.115 0.252,0.115 z M 0,32.9 v 4.798 l -0.126,0.286 -0.252,0.057 -0.189,-0.057 -0.189,-0.286 V 32.9 l 0.189,-0.285 0.189,-0.058 0.252,0.058 z m 0,8.168 v 4.855 l -0.126,0.229 -0.252,0.057 -0.189,-0.057 -0.189,-0.229 v -4.855 l 0.189,-0.171 0.189,-0.115 0.252,0.115 z m 0,8.282 v 4.798 l -0.126,0.286 -0.252,0.057 -0.189,-0.057 -0.189,-0.286 V 49.35 l 0.189,-0.285 0.189,-0.057 0.252,0.057 z m 0,8.225 v 4.855 l -0.126,0.172 -0.252,0.114 -0.189,-0.114 -0.189,-0.172 v -4.855 l 0.189,-0.228 0.189,-0.057 0.252,0.057 z m 0,8.282 v 4.741 l -0.126,0.286 -0.252,0.057 -0.189,-0.057 -0.189,-0.286 v -4.741 l 0.189,-0.285 0.189,-0.114 0.252,0.114 z m 0,8.168 v 4.855 l -0.126,0.172 -0.252,0.114 -0.189,-0.114 -0.189,-0.172 v -4.855 l 0.189,-0.228 0.189,-0.057 0.252,0.057 z m 0,8.282 v 4.741 l -0.126,0.286 -0.252,0.114 -0.189,-0.114 -0.189,-0.286 v -4.741 l 0.189,-0.285 0.189,-0.114 0.252,0.114 z m 0,8.168 v 4.855 l -0.126,0.172 -0.252,0.114 -0.189,-0.114 -0.189,-0.172 v -4.855 l 0.189,-0.171 0.189,-0.114 0.252,0.114 z m 0,8.283 v 4.74 l -0.126,0.286 -0.252,0.114 -0.189,-0.114 -0.189,-0.286 v -4.74 l 0.189,-0.286 0.189,-0.114 0.252,0.114 z m 0,8.167 v 4.855 l -0.126,0.172 -0.252,0.114 -0.189,-0.114 -0.189,-0.172 v -4.855 l 0.189,-0.171 0.189,-0.228 0.252,0.228 z m 0,8.283 v 4.74 l -0.126,0.286 -0.252,0.114 -0.189,-0.114 -0.189,-0.286 v -4.74 l 0.189,-0.286 0.189,-0.114 0.252,0.114 z m 0,8.168 v 4.74 l -0.126,0.286 -0.252,0.114 -0.189,-0.114 -0.189,-0.286 v -4.74 l 0.189,-0.172 0.189,-0.228 0.252,0.228 z m 0,8.167 v 4.855 l -0.126,0.286 -0.252,0.114 -0.189,-0.114 -0.189,-0.286 v -4.855 l 0.189,-0.171 0.189,-0.114 0.252,0.114 z m 0,8.283 v 4.798 l -0.126,0.285 -0.252,0.057 -0.189,-0.057 -0.189,-0.285 v -4.798 l 0.189,-0.286 0.189,-0.057 0.252,0.057 z m 0,8.167 v 4.856 l -0.126,0.228 -0.252,0.057 -0.189,-0.057 -0.189,-0.228 v -4.856 l 0.189,-0.171 0.189,-0.114 0.252,0.114 z m 0,8.283 v 4.798 l -0.126,0.285 -0.252,0.057 -0.189,-0.057 -0.189,-0.285 v -4.798 l 0.189,-0.286 0.189,-0.057 0.252,0.057 z m 0,8.225 v 4.855 l -0.126,0.171 -0.252,0.114 -0.189,-0.114 -0.189,-0.171 v -4.855 l 0.189,-0.229 0.189,-0.057 0.252,0.057 z m 0,8.225 v 4.798 l -0.126,0.285 -0.252,0.057 -0.189,-0.057 -0.189,-0.285 v -4.798 l 0.189,-0.286 0.189,-0.057 0.252,0.057 z"
                     style="fill:#c0c0c0;fill-opacity:1;fill-rule:nonzero;stroke:#c0c0c0;stroke-width:0.095;stroke-linecap:round;stroke-linejoin:round;stroke-miterlimit:10;stroke-dasharray:none;stroke-opacity:1"
                     id="path2951"
                     inkscape:connector-curvature="0" /></g><g
                   id="g2953"
                   transform="translate(386.23,-594.487)"><path
                     d="M 0,0 V 4.741 L -0.063,5.026 -0.378,5.141 -0.567,5.026 -0.63,4.741 V 0 l 0.063,-0.228 0.189,-0.172 0.315,0.172 z m 0,8.168 v 4.855 l -0.063,0.286 -0.315,0.057 -0.189,-0.057 -0.063,-0.286 V 8.168 l 0.063,-0.171 0.189,-0.115 0.315,0.115 z m 0,8.282 v 4.741 l -0.063,0.286 -0.315,0.114 -0.189,-0.114 -0.063,-0.286 V 16.45 l 0.063,-0.286 0.189,-0.114 0.315,0.114 z m 0,8.168 v 4.855 l -0.063,0.171 -0.315,0.115 -0.189,-0.115 -0.063,-0.171 v -4.855 l 0.063,-0.171 0.189,-0.115 0.315,0.115 z M 0,32.9 v 4.741 l -0.063,0.286 -0.315,0.114 -0.189,-0.114 -0.063,-0.286 V 32.9 l 0.063,-0.285 0.189,-0.115 0.315,0.115 z m 0,8.168 v 4.855 l -0.063,0.171 -0.315,0.115 -0.189,-0.115 -0.063,-0.171 v -4.855 l 0.063,-0.171 0.189,-0.115 0.315,0.115 z m 0,8.282 v 4.741 l -0.063,0.286 -0.315,0.114 -0.189,-0.114 -0.063,-0.286 V 49.35 l 0.063,-0.285 0.189,-0.115 0.315,0.115 z m 0,8.168 v 4.855 l -0.063,0.229 -0.315,0.057 -0.189,-0.057 -0.063,-0.229 v -4.855 l 0.063,-0.171 0.189,-0.114 0.315,0.114 z M 0,65.8 v 4.741 l -0.063,0.286 -0.315,0.114 -0.189,-0.114 -0.063,-0.286 V 65.8 l 0.063,-0.285 0.189,-0.057 0.315,0.057 z m 0,8.168 v 4.855 l -0.063,0.229 -0.315,0.057 -0.189,-0.057 -0.063,-0.229 v -4.855 l 0.063,-0.171 0.189,-0.114 0.315,0.114 z m 0,8.282 v 4.798 l -0.063,0.286 -0.315,0.057 -0.189,-0.057 -0.063,-0.286 V 82.25 l 0.063,-0.285 0.189,-0.057 0.315,0.057 z m 0,8.225 v 4.798 l -0.063,0.229 -0.315,0.057 -0.189,-0.057 -0.063,-0.229 v -4.798 l 0.063,-0.228 0.189,-0.057 0.315,0.057 z M 0,98.7 v 4.798 l -0.063,0.286 -0.315,0.057 -0.189,-0.057 -0.063,-0.286 V 98.7 l 0.063,-0.285 0.189,-0.057 0.315,0.057 z m 0,8.225 v 4.855 l -0.063,0.172 -0.315,0.114 -0.189,-0.114 -0.063,-0.172 v -4.855 l 0.063,-0.228 0.189,-0.171 0.315,0.171 z m 0,8.283 v 4.74 l -0.063,0.286 -0.315,0.057 -0.189,-0.057 -0.063,-0.286 v -4.74 l 0.063,-0.286 0.189,-0.114 0.315,0.114 z m 0,8.168 v 4.74 l -0.063,0.286 -0.315,0.114 -0.189,-0.114 -0.063,-0.286 v -4.74 l 0.063,-0.229 0.189,-0.171 0.315,0.171 z m 0,8.167 v 4.855 l -0.063,0.286 -0.315,0.114 -0.189,-0.114 -0.063,-0.286 v -4.855 l 0.063,-0.171 0.189,-0.114 0.315,0.114 z m 0,8.283 v 4.74 l -0.063,0.286 -0.315,0.114 -0.189,-0.114 -0.063,-0.286 v -4.74 l 0.063,-0.286 0.189,-0.114 0.315,0.114 z m 0,8.167 v 4.856 l -0.063,0.171 -0.315,0.114 -0.189,-0.114 -0.063,-0.171 v -4.856 l 0.063,-0.171 0.189,-0.114 0.315,0.114 z m 0,8.283 v 4.74 l -0.063,0.286 -0.315,0.114 -0.189,-0.114 -0.063,-0.286 v -4.74 l 0.063,-0.286 0.189,-0.114 0.315,0.114 z m 0,8.168 v 4.855 l -0.063,0.228 -0.315,0.057 -0.189,-0.057 -0.063,-0.228 v -4.855 l 0.063,-0.172 0.189,-0.114 0.315,0.114 z m 0,8.282 v 4.741 l -0.063,0.285 -0.315,0.114 -0.189,-0.114 -0.063,-0.285 v -4.741 l 0.063,-0.286 0.189,-0.114 0.315,0.114 z"
                     style="fill:#c0c0c0;fill-opacity:1;fill-rule:nonzero;stroke:#c0c0c0;stroke-width:0.095;stroke-linecap:round;stroke-linejoin:round;stroke-miterlimit:10;stroke-dasharray:none;stroke-opacity:1"
                     id="path2955"
                     inkscape:connector-curvature="0" /></g><g
                   id="g2957"
                   transform="translate(429.088,-594.487)"><path
                     d="M 0,0 V 4.741 L -0.126,5.026 -0.315,5.141 -0.567,5.026 -0.693,4.741 V 0 l 0.126,-0.228 0.252,-0.172 0.189,0.172 z m 0,8.168 v 4.855 l -0.126,0.286 -0.189,0.057 -0.252,-0.057 -0.126,-0.286 V 8.168 l 0.126,-0.171 0.252,-0.115 0.189,0.115 z m 0,8.282 v 4.741 l -0.126,0.286 -0.189,0.114 -0.252,-0.114 -0.126,-0.286 V 16.45 l 0.126,-0.286 0.252,-0.114 0.189,0.114 z m 0,8.168 v 4.855 l -0.126,0.171 -0.189,0.115 -0.252,-0.115 -0.126,-0.171 v -4.855 l 0.126,-0.171 0.252,-0.115 0.189,0.115 z M 0,32.9 v 4.741 l -0.126,0.286 -0.189,0.114 -0.252,-0.114 -0.126,-0.286 V 32.9 l 0.126,-0.285 0.252,-0.115 0.189,0.115 z m 0,8.168 v 4.855 l -0.126,0.171 -0.189,0.115 -0.252,-0.115 -0.126,-0.171 v -4.855 l 0.126,-0.171 0.252,-0.115 0.189,0.115 z m 0,8.282 v 4.741 l -0.126,0.286 -0.189,0.114 -0.252,-0.114 -0.126,-0.286 V 49.35 l 0.126,-0.285 0.252,-0.115 0.189,0.115 z m 0,8.168 v 4.855 l -0.126,0.229 -0.189,0.057 -0.252,-0.057 -0.126,-0.229 v -4.855 l 0.126,-0.171 0.252,-0.114 0.189,0.114 z M 0,65.8 v 4.741 l -0.126,0.286 -0.189,0.114 -0.252,-0.114 -0.126,-0.286 V 65.8 l 0.126,-0.285 0.252,-0.057 0.189,0.057 z m 0,8.168 v 4.855 l -0.126,0.229 -0.189,0.057 -0.252,-0.057 -0.126,-0.229 v -4.855 l 0.126,-0.171 0.252,-0.114 0.189,0.114 z m 0,8.282 v 4.798 l -0.126,0.286 -0.189,0.057 -0.252,-0.057 -0.126,-0.286 V 82.25 l 0.126,-0.285 0.252,-0.057 0.189,0.057 z m 0,8.225 v 4.798 l -0.126,0.229 -0.189,0.057 -0.252,-0.057 -0.126,-0.229 v -4.798 l 0.126,-0.228 0.252,-0.057 0.189,0.057 z M 0,98.7 v 4.798 l -0.126,0.286 -0.189,0.057 -0.252,-0.057 -0.126,-0.286 V 98.7 l 0.126,-0.285 0.252,-0.057 0.189,0.057 z m 0,8.225 v 4.855 l -0.126,0.172 -0.189,0.114 -0.252,-0.114 -0.126,-0.172 v -4.855 l 0.126,-0.228 0.252,-0.171 0.189,0.171 z m 0,8.283 v 4.74 l -0.126,0.286 -0.189,0.057 -0.252,-0.057 -0.126,-0.286 v -4.74 l 0.126,-0.286 0.252,-0.114 0.189,0.114 z m 0,8.168 v 4.74 l -0.126,0.286 -0.189,0.114 -0.252,-0.114 -0.126,-0.286 v -4.74 l 0.126,-0.229 0.252,-0.171 0.189,0.171 z m 0,8.167 v 4.855 l -0.126,0.286 -0.189,0.114 -0.252,-0.114 -0.126,-0.286 v -4.855 l 0.126,-0.171 0.252,-0.114 0.189,0.114 z m 0,8.283 v 4.74 l -0.126,0.286 -0.189,0.114 -0.252,-0.114 -0.126,-0.286 v -4.74 l 0.126,-0.286 0.252,-0.114 0.189,0.114 z m 0,8.167 v 4.856 l -0.126,0.171 -0.189,0.114 -0.252,-0.114 -0.126,-0.171 v -4.856 l 0.126,-0.171 0.252,-0.114 0.189,0.114 z m 0,8.283 v 4.74 l -0.126,0.286 -0.189,0.114 -0.252,-0.114 -0.126,-0.286 v -4.74 l 0.126,-0.286 0.252,-0.114 0.189,0.114 z m 0,8.168 v 4.855 l -0.126,0.228 -0.189,0.057 -0.252,-0.057 -0.126,-0.228 v -4.855 l 0.126,-0.172 0.252,-0.114 0.189,0.114 z m 0,8.282 v 4.741 l -0.126,0.285 -0.189,0.114 -0.252,-0.114 -0.126,-0.285 v -4.741 l 0.126,-0.286 0.252,-0.114 0.189,0.114 z"
                     style="fill:#c0c0c0;fill-opacity:1;fill-rule:nonzero;stroke:#c0c0c0;stroke-width:0.095;stroke-linecap:round;stroke-linejoin:round;stroke-miterlimit:10;stroke-dasharray:none;stroke-opacity:1"
                     id="path2959"
                     inkscape:connector-curvature="0" /></g></g><text
                 transform="matrix(1,0,0,-1,133.98,522.48)"
                 style="font-variant:normal;font-weight:normal;font-stretch:normal;font-size:9.99260044px;font-family:Arial;-inkscape-font-specification:ArialMT;writing-mode:lr-tb;fill:#000000;fill-opacity:1;fill-rule:nonzero;stroke:none"
                 id="text2967"><tspan
                   x="0 6.5381584 9.0602903"
                   y="0"
                   sodipodi:role="line"
                   id="tspan2961">DIR</tspan><tspan
                   x="-2.040489 4.4377136 9.5359383"
                   y="-72.059639"
                   sodipodi:role="line"
                   id="tspan2963">CLK</tspan><tspan
                   x="-26.220583 -19.74238 -13.681868 -8.1000013 -2.0394897 0.48264259 5.5808673 7.982089 13.080314"
                   y="-36.059296"
                   sodipodi:role="line"
                   id="tspan2965">DATA[7:0]</tspan></text>
<g
                 id="g2969"
                 transform="scale(0.95197,-1.0505)"><g
                   id="g2971"
                   transform="translate(167.4,-543.138)"><path
                     d="M 0,0 H 252.802"
                     style="fill:none;stroke:#000000;stroke-width:1.14100003;stroke-linecap:round;stroke-linejoin:round;stroke-miterlimit:10;stroke-dasharray:none;stroke-opacity:1"
                     id="path2973"
                     inkscape:connector-curvature="0" /><g
                     id="g2975"
                     transform="translate(0,17.193)"><path
                       d="M 0,0 H 252.802"
                       style="fill:none;stroke:#000000;stroke-width:1.14100003;stroke-linecap:round;stroke-linejoin:round;stroke-miterlimit:10;stroke-dasharray:none;stroke-opacity:1"
                       id="path2977"
                       inkscape:connector-curvature="0" /><g
                       id="g2979"
                       transform="translate(0,-34.328)"><path
                         d="M 0,0 8.572,-17.135 H 21.429 L 30.001,0 h 12.794 l 8.572,-17.135 H 64.225 L 72.796,0 h 12.858 l 8.571,-17.135 H 107.02 L 115.718,0 h 12.857 l 8.572,-17.135 h 12.794 L 158.513,0 h 12.858 l 8.571,-17.135 H 192.8 L 201.372,0 h 12.794 l 8.572,-17.135 h 12.983 L 244.23,0 h 12.857"
                         style="fill:none;stroke:#000000;stroke-width:1.14100003;stroke-linecap:round;stroke-linejoin:round;stroke-miterlimit:10;stroke-dasharray:none;stroke-opacity:1"
                         id="path2981"
                         inkscape:connector-curvature="0" /></g></g></g></g><text
                 transform="matrix(1,0,0,-1,131.94,486.48)"
                 style="font-variant:normal;font-weight:normal;font-stretch:normal;font-size:9.99260044px;font-family:Arial;-inkscape-font-specification:ArialMT;writing-mode:lr-tb;fill:#000000;fill-opacity:1;fill-rule:nonzero;stroke:none"
                 id="text2985"><tspan
                   x="0 6.0705047 11.581424"
                   y="0"
                   sodipodi:role="line"
                   id="tspan2983">STP</tspan></text>
<g
                 id="g2987"
                 transform="scale(0.95197,-1.0505)"><g
                   id="g2989"
                   transform="translate(167.4,-457.403)"><path
                     d="M 0,0 H 179.942"
                     style="fill:none;stroke:#000000;stroke-width:1.14100003;stroke-linecap:round;stroke-linejoin:round;stroke-miterlimit:10;stroke-dasharray:none;stroke-opacity:1"
                     id="path2991"
                     inkscape:connector-curvature="0" /><g
                     id="g2993"
                     transform="translate(0,34.214)"><path
                       d="M 0,0 H 102.797"
                       style="fill:none;stroke:#000000;stroke-width:1.14100003;stroke-linecap:round;stroke-linejoin:round;stroke-miterlimit:10;stroke-dasharray:none;stroke-opacity:1"
                       id="path2995"
                       inkscape:connector-curvature="0" /></g></g></g><text
                 transform="matrix(1,0,0,-1,131.46,450.54)"
                 style="font-variant:normal;font-weight:normal;font-stretch:normal;font-size:9.99260044px;font-family:Arial;-inkscape-font-specification:ArialMT;writing-mode:lr-tb;fill:#000000;fill-opacity:1;fill-rule:nonzero;stroke:none"
                 id="text2999"><tspan
                   x="0 6.5381584 12.59867"
                   y="0"
                   sodipodi:role="line"
                   id="tspan2997">NXT</tspan></text>
<text
                 transform="matrix(1,0,0,-1,241.98,561.0601)"
                 style="font-variant:normal;font-weight:bold;font-stretch:normal;font-size:5.99560022px;font-family:Arial;-inkscape-font-specification:Arial-BoldMT;writing-mode:lr-tb;fill:#000000;fill-opacity:1;fill-rule:nonzero;stroke:none"
                 id="text3005"><tspan
                   x="0 3.3611333 6.3601327 9.6613102 11.222564 15.121503 19.920382 23.281515 26.344067 30.243006 33.242004 36.603138"
                   y="0"
                   sodipodi:role="line"
                   id="tspan3001">Txd Cmd Reg</tspan><tspan
                   x="11.699814 15.598753 18.537796 21.536795"
                   y="7.2001162"
                   sodipodi:role="line"
                   id="tspan3003">Read</tspan></text>
<g
                 id="g3007"
                 transform="scale(0.95197,-1.0505)"><g
                   id="g3009"
                   transform="translate(225.259,-543.138)"><path
                     d="M 0,0 -8.635,17.135"
                     style="fill:none;stroke:#000000;stroke-width:1.14100003;stroke-linecap:round;stroke-linejoin:round;stroke-miterlimit:10;stroke-dasharray:none;stroke-opacity:1"
                     id="path3011"
                     inkscape:connector-curvature="0" /><g
                     id="g3013"
                     transform="translate(-8.635)"><path
                       d="M 0,0 8.635,17.135"
                       style="fill:none;stroke:#000000;stroke-width:1.14100003;stroke-linecap:round;stroke-linejoin:round;stroke-miterlimit:10;stroke-dasharray:none;stroke-opacity:1"
                       id="path3015"
                       inkscape:connector-curvature="0" /></g></g></g><text
                 transform="matrix(1,0,0,-1,175.02,559.74)"
                 style="font-variant:normal;font-weight:bold;font-stretch:normal;font-size:5.99560022px;font-family:Arial;-inkscape-font-specification:Arial-BoldMT;writing-mode:lr-tb;fill:#000000;fill-opacity:1;fill-rule:nonzero;stroke:none"
                 id="text3019"><tspan
                   x="0 1.5612543 4.9223876 6.423686"
                   y="0"
                   sodipodi:role="line"
                   id="tspan3017">Idle</tspan></text>
<g
                 id="g3021"
                 transform="scale(0.95197,-1.0505)"><g
                   id="g3023"
                   transform="translate(353.834,-543.138)"><path
                     d="M 0,0 -8.572,17.193"
                     style="fill:none;stroke:#000000;stroke-width:1.14100003;stroke-linecap:round;stroke-linejoin:round;stroke-miterlimit:10;stroke-dasharray:none;stroke-opacity:1"
                     id="path3025"
                     inkscape:connector-curvature="0" /><g
                     id="g3027"
                     transform="translate(-8.572)"><path
                       d="M 0,0 8.572,17.193"
                       style="fill:none;stroke:#000000;stroke-width:1.14100003;stroke-linecap:round;stroke-linejoin:round;stroke-miterlimit:10;stroke-dasharray:none;stroke-opacity:1"
                       id="path3029"
                       inkscape:connector-curvature="0" /><g
                       id="g3031"
                       transform="translate(-177.862,34.328)"><path
                         d="M 0,0 H 8.887"
                         style="fill:none;stroke:#000000;stroke-width:1.14100003;stroke-linecap:round;stroke-linejoin:round;stroke-miterlimit:10;stroke-dasharray:none;stroke-opacity:1"
                         id="path3033"
                         inkscape:connector-curvature="0" /><g
                         id="g3035"
                         transform="translate(0,34.271)"><path
                           d="M 0,0 H 8.194"
                           style="fill:none;stroke:#000000;stroke-width:1.14100003;stroke-linecap:round;stroke-linejoin:round;stroke-miterlimit:10;stroke-dasharray:none;stroke-opacity:1"
                           id="path3037"
                           inkscape:connector-curvature="0" /><g
                           id="g3039"
                           transform="translate(0,34.214)"><path
                             d="M 0,0 H 8.572"
                             style="fill:none;stroke:#000000;stroke-width:1.14100003;stroke-linecap:round;stroke-linejoin:round;stroke-miterlimit:10;stroke-dasharray:none;stroke-opacity:1"
                             id="path3041"
                             inkscape:connector-curvature="0" /><g
                             id="g3043"
                             transform="translate(0,-51.349)"><path
                               d="M 0,0 H 9.643"
                               style="fill:none;stroke:#000000;stroke-width:1.14100003;stroke-linecap:round;stroke-linejoin:round;stroke-miterlimit:10;stroke-dasharray:none;stroke-opacity:1"
                               id="path3045"
                               inkscape:connector-curvature="0" /><g
                               id="g3047"
                               transform="translate(244.608,34.271)"><path
                                 d="M 0,0 H 98.196"
                                 style="fill:none;stroke:#000000;stroke-width:1.14100003;stroke-linecap:round;stroke-linejoin:round;stroke-miterlimit:10;stroke-dasharray:none;stroke-opacity:1"
                                 id="path3049"
                                 inkscape:connector-curvature="0" /><g
                                 id="g3051"
                                 transform="translate(-4.727,-0.114)"><path
                                   d="M 0,0 4.349,0.114"
                                   style="fill:none;stroke:#000000;stroke-width:1.14100003;stroke-linecap:round;stroke-linejoin:round;stroke-miterlimit:10;stroke-dasharray:none;stroke-opacity:1"
                                   id="path3053"
                                   inkscape:connector-curvature="0" /><g
                                   id="g3055"
                                   transform="translate(17.206,-102.756)"><path
                                   d="M 0,0 8.572,-17.135 H 21.429 L 30.001,0 h 12.857"
                                   style="fill:none;stroke:#000000;stroke-width:1.14100003;stroke-linecap:round;stroke-linejoin:round;stroke-miterlimit:10;stroke-dasharray:none;stroke-opacity:1"
                                   id="path3057"
                                   inkscape:connector-curvature="0" /><g
                                   id="g3059"
                                   transform="translate(-4.286,17.25)"><path
                                   d="M 0,0 H 90.003"
                                   style="fill:none;stroke:#000000;stroke-width:1.14100003;stroke-linecap:round;stroke-linejoin:round;stroke-miterlimit:10;stroke-dasharray:none;stroke-opacity:1"
                                   id="path3061"
                                   inkscape:connector-curvature="0" /><g
                                   id="g3063"
                                   transform="translate(0,17.078)"><path
                                   d="M 0,0 H 90.003"
                                   style="fill:none;stroke:#000000;stroke-width:1.14100003;stroke-linecap:round;stroke-linejoin:round;stroke-miterlimit:10;stroke-dasharray:none;stroke-opacity:1"
                                   id="path3065"
                                   inkscape:connector-curvature="0" /></g></g></g></g></g></g></g></g></g></g></g></g><text
                 transform="matrix(1,0,0,-1,207.84,613.08)"
                 style="font-variant:normal;font-weight:bold;font-stretch:normal;font-size:7.99399996px;font-family:Arial;-inkscape-font-specification:Arial-BoldMT;writing-mode:lr-tb;fill:#000000;fill-opacity:1;fill-rule:nonzero;stroke:none"
                 id="text3069"><tspan
                   x="0 4.4414663"
                   y="0"
                   sodipodi:role="line"
                   id="tspan3067">T0</tspan></text>
<g
                 id="g3071"
                 transform="scale(0.95197,-1.0505)"><g
                   id="g3073"
                   transform="translate(313.056,-440.325)"><path
                     d="M 0,0 -8.509,17.135"
                     style="fill:none;stroke:#000000;stroke-width:1.14100003;stroke-linecap:round;stroke-linejoin:round;stroke-miterlimit:10;stroke-dasharray:none;stroke-opacity:1"
                     id="path3075"
                     inkscape:connector-curvature="0" /><g
                     id="g3077"
                     transform="translate(-12.794,17.135)"><path
                       d="M 0,0 H 4.286"
                       style="fill:none;stroke:#000000;stroke-width:1.14100003;stroke-linecap:round;stroke-linejoin:round;stroke-miterlimit:10;stroke-dasharray:none;stroke-opacity:1"
                       id="path3079"
                       inkscape:connector-curvature="0" /><g
                       id="g3081"
                       transform="translate(45.001,-17.135)"><path
                         d="M 0,0 8.635,17.135"
                         style="fill:none;stroke:#000000;stroke-width:1.14100003;stroke-linecap:round;stroke-linejoin:round;stroke-miterlimit:10;stroke-dasharray:none;stroke-opacity:1"
                         id="path3083"
                         inkscape:connector-curvature="0" /></g></g></g><g
                   id="g3085"
                   transform="translate(270.197,-423.189)"><path
                     d="M 0,0 H 30.064"
                     style="fill:none;stroke:#000000;stroke-width:0.66500002;stroke-linecap:round;stroke-linejoin:round;stroke-miterlimit:10;stroke-dasharray:none;stroke-opacity:1"
                     id="path3087"
                     inkscape:connector-curvature="0" /></g><g
                   id="g3089"
                   transform="translate(270.197,-423.189)"><path
                     d="M 0,0 H 30.064"
                     style="fill:none;stroke:#000000;stroke-width:1.14100003;stroke-linecap:round;stroke-linejoin:round;stroke-miterlimit:10;stroke-dasharray:none;stroke-opacity:1"
                     id="path3091"
                     inkscape:connector-curvature="0" /></g></g><text
                 transform="matrix(1,0,0,-1,378,559.74)"
                 style="font-variant:normal;font-weight:bold;font-stretch:normal;font-size:5.99560022px;font-family:Arial;-inkscape-font-specification:Arial-BoldMT;writing-mode:lr-tb;fill:#000000;fill-opacity:1;fill-rule:nonzero;stroke:none"
                 id="text3095"><tspan
                   x="0 3.8989387 6.8979378 10.259071 11.820326 15.719264 18.658308 20.518143"
                   y="0"
                   sodipodi:role="line"
                   id="tspan3093">Reg Data</tspan></text>
<g
                 id="g3097"
                 transform="scale(0.95197,-1.0505)"><g
                   id="g3099"
                   transform="translate(177.043,-491.674)"><path
                     d="M 0,0 H 129.584"
                     style="fill:none;stroke:#000000;stroke-width:1.14100003;stroke-linecap:round;stroke-linejoin:round;stroke-miterlimit:10;stroke-dasharray:none;stroke-opacity:1"
                     id="path3101"
                     inkscape:connector-curvature="0" /></g></g><text
                 transform="matrix(1,0,0,-1,334.98,559.74)"
                 style="font-variant:normal;font-weight:bold;font-stretch:normal;font-size:5.99560022px;font-family:Arial;-inkscape-font-specification:Arial-BoldMT;writing-mode:lr-tb;fill:#000000;fill-opacity:1;fill-rule:nonzero;stroke:none"
                 id="text3105"><tspan
                   x="0 3.3611333 6.7222667 8.8213263 12.18246 13.683758 16.682756 18.781816 22.14295 25.504084 28.80526"
                   y="0"
                   sodipodi:role="line"
                   id="tspan3103">Turn around</tspan></text>
<g
                 id="g3107"
                 transform="scale(0.95197,-1.0505)"><g
                   id="g3109"
                   transform="translate(347.342,-457.403)"><path
                     d="M 0,0 H 64.288"
                     style="fill:none;stroke:#000000;stroke-width:1.14100003;stroke-linecap:round;stroke-linejoin:round;stroke-miterlimit:10;stroke-dasharray:none;stroke-opacity:1"
                     id="path3111"
                     inkscape:connector-curvature="0" /><g
                     id="g3113"
                     transform="translate(-2.08,-34.271)"><path
                       d="M 0,0 8.572,-17.135"
                       style="fill:none;stroke:#000000;stroke-width:1.14100003;stroke-linecap:round;stroke-linejoin:round;stroke-miterlimit:10;stroke-dasharray:none;stroke-opacity:1"
                       id="path3115"
                       inkscape:connector-curvature="0" /><g
                       id="g3117"
                       transform="translate(96.368)"><path
                         d="M 0,0 H 68.573"
                         style="fill:none;stroke:#000000;stroke-width:1.14100003;stroke-linecap:round;stroke-linejoin:round;stroke-miterlimit:10;stroke-dasharray:none;stroke-opacity:1"
                         id="path3119"
                         inkscape:connector-curvature="0" /><g
                         id="g3121"
                         transform="translate(-8.572,-17.135)"><path
                           d="M 0,0 8.572,17.135"
                           style="fill:none;stroke:#000000;stroke-width:1.14100003;stroke-linecap:round;stroke-linejoin:round;stroke-miterlimit:10;stroke-dasharray:none;stroke-opacity:1"
                           id="path3123"
                           inkscape:connector-curvature="0" /><g
                           id="g3125"
                           transform="translate(-126.432,17.135)"><path
                             d="M 0,0 H 38.636"
                             style="fill:none;stroke:#000000;stroke-width:1.14100003;stroke-linecap:round;stroke-linejoin:round;stroke-miterlimit:10;stroke-dasharray:none;stroke-opacity:1"
                             id="path3127"
                             inkscape:connector-curvature="0" /><g
                             id="g3129"
                             transform="translate(47.207,-17.135)"><path
                               d="M 0,0 H 79.225"
                               style="fill:none;stroke:#000000;stroke-width:1.14100003;stroke-linecap:round;stroke-linejoin:round;stroke-miterlimit:10;stroke-dasharray:none;stroke-opacity:1"
                               id="path3131"
                               inkscape:connector-curvature="0" /><g
                               id="g3133"
                               transform="translate(-40.779,68.485)"><path
                                 d="M 0,0 H 32.207"
                                 style="fill:none;stroke:#000000;stroke-width:1.14100003;stroke-linecap:round;stroke-linejoin:round;stroke-miterlimit:10;stroke-dasharray:none;stroke-opacity:1"
                                 id="path3135"
                                 inkscape:connector-curvature="0" /><g
                                 id="g3137"
                                 transform="translate(40.842,17.25)"><path
                                   d="M 0,0 H 156.307"
                                   style="fill:none;stroke:#000000;stroke-width:1.14100003;stroke-linecap:round;stroke-linejoin:round;stroke-miterlimit:10;stroke-dasharray:none;stroke-opacity:1"
                                   id="path3139"
                                   inkscape:connector-curvature="0" /><g
                                   id="g3141"
                                   transform="translate(42.732,-120.063)"><path
                                   d="M 0,0 -8.572,17.193"
                                   style="fill:none;stroke:#000000;stroke-width:1.14100003;stroke-linecap:round;stroke-linejoin:round;stroke-miterlimit:10;stroke-dasharray:none;stroke-opacity:1"
                                   id="path3143"
                                   inkscape:connector-curvature="0" /><g
                                   id="g3145"
                                   transform="translate(-8.572)"><path
                                   d="M 0,0 8.572,17.193"
                                   style="fill:none;stroke:#000000;stroke-width:1.14100003;stroke-linecap:round;stroke-linejoin:round;stroke-miterlimit:10;stroke-dasharray:none;stroke-opacity:1"
                                   id="path3147"
                                   inkscape:connector-curvature="0" /><g
                                   id="g3149"
                                   transform="translate(51.367)"><path
                                   d="M 0,0 -8.572,17.193"
                                   style="fill:none;stroke:#000000;stroke-width:1.14100003;stroke-linecap:round;stroke-linejoin:round;stroke-miterlimit:10;stroke-dasharray:none;stroke-opacity:1"
                                   id="path3151"
                                   inkscape:connector-curvature="0" /><g
                                   id="g3153"
                                   transform="translate(-8.572)"><path
                                   d="M 0,0 8.572,17.193"
                                   style="fill:none;stroke:#000000;stroke-width:1.14100003;stroke-linecap:round;stroke-linejoin:round;stroke-miterlimit:10;stroke-dasharray:none;stroke-opacity:1"
                                   id="path3155"
                                   inkscape:connector-curvature="0" /></g></g></g></g></g></g></g></g></g></g></g></g></g><text
                 transform="matrix(1,0,0,-1,416.64,559.74)"
                 style="font-variant:normal;font-weight:bold;font-stretch:normal;font-size:5.99560022px;font-family:Arial;-inkscape-font-specification:Arial-BoldMT;writing-mode:lr-tb;fill:#000000;fill-opacity:1;fill-rule:nonzero;stroke:none"
                 id="text3159"><tspan
                   x="0 3.3011773 6.6623106 8.7613707 12.122503 13.623802 16.622801 18.721861 22.082994 25.444128 28.80526"
                   y="0"
                   sodipodi:role="line"
                   id="tspan3157">Turn around</tspan></text>
<text
                 transform="matrix(1,0,0,-1,248.58,613.08)"
                 style="font-variant:normal;font-weight:bold;font-stretch:normal;font-size:7.99399996px;font-family:Arial;-inkscape-font-specification:Arial-BoldMT;writing-mode:lr-tb;fill:#000000;fill-opacity:1;fill-rule:nonzero;stroke:none"
                 id="text3163"><tspan
                   x="0 4.4414663 40.859734 45.301197 81.599556 86.041023 122.39933 126.8408 165.23918 169.68065"
                   y="0"
                   sodipodi:role="line"
                   id="tspan3161">T1T2T3T4T5</tspan></text>
<g
                 id="g3165"
                 transform="scale(0.95197,-1.0505)"><g
                   id="g3167"
                   transform="translate(471.947,-594.487)"><path
                     d="M 0,0 V 4.741 L -0.063,5.026 -0.378,5.141 -0.567,5.026 -0.63,4.741 V 0 l 0.063,-0.228 0.189,-0.172 0.315,0.172 z m 0,8.168 v 4.855 l -0.063,0.286 -0.315,0.057 -0.189,-0.057 -0.063,-0.286 V 8.168 l 0.063,-0.171 0.189,-0.115 0.315,0.115 z m 0,8.282 v 4.741 l -0.063,0.286 -0.315,0.114 -0.189,-0.114 -0.063,-0.286 V 16.45 l 0.063,-0.286 0.189,-0.114 0.315,0.114 z m 0,8.168 v 4.855 l -0.063,0.171 -0.315,0.115 -0.189,-0.115 -0.063,-0.171 v -4.855 l 0.063,-0.171 0.189,-0.115 0.315,0.115 z M 0,32.9 v 4.741 l -0.063,0.286 -0.315,0.114 -0.189,-0.114 -0.063,-0.286 V 32.9 l 0.063,-0.285 0.189,-0.115 0.315,0.115 z m 0,8.168 v 4.855 l -0.063,0.171 -0.315,0.115 -0.189,-0.115 -0.063,-0.171 v -4.855 l 0.063,-0.171 0.189,-0.115 0.315,0.115 z m 0,8.282 v 4.741 l -0.063,0.286 -0.315,0.114 -0.189,-0.114 -0.063,-0.286 V 49.35 l 0.063,-0.285 0.189,-0.115 0.315,0.115 z m 0,8.168 v 4.855 l -0.063,0.229 -0.315,0.057 -0.189,-0.057 -0.063,-0.229 v -4.855 l 0.063,-0.171 0.189,-0.114 0.315,0.114 z M 0,65.8 v 4.741 l -0.063,0.286 -0.315,0.114 -0.189,-0.114 -0.063,-0.286 V 65.8 l 0.063,-0.285 0.189,-0.057 0.315,0.057 z m 0,8.168 v 4.855 l -0.063,0.229 -0.315,0.057 -0.189,-0.057 -0.063,-0.229 v -4.855 l 0.063,-0.171 0.189,-0.114 0.315,0.114 z m 0,8.282 v 4.798 l -0.063,0.286 -0.315,0.057 -0.189,-0.057 -0.063,-0.286 V 82.25 l 0.063,-0.285 0.189,-0.057 0.315,0.057 z m 0,8.225 v 4.798 l -0.063,0.229 -0.315,0.057 -0.189,-0.057 -0.063,-0.229 v -4.798 l 0.063,-0.228 0.189,-0.057 0.315,0.057 z M 0,98.7 v 4.798 l -0.063,0.286 -0.315,0.057 -0.189,-0.057 -0.063,-0.286 V 98.7 l 0.063,-0.285 0.189,-0.057 0.315,0.057 z m 0,8.225 v 4.855 l -0.063,0.172 -0.315,0.114 -0.189,-0.114 -0.063,-0.172 v -4.855 l 0.063,-0.228 0.189,-0.171 0.315,0.171 z m 0,8.283 v 4.74 l -0.063,0.286 -0.315,0.057 -0.189,-0.057 -0.063,-0.286 v -4.74 l 0.063,-0.286 0.189,-0.114 0.315,0.114 z m 0,8.168 v 4.74 l -0.063,0.286 -0.315,0.114 -0.189,-0.114 -0.063,-0.286 v -4.74 l 0.063,-0.229 0.189,-0.171 0.315,0.171 z m 0,8.167 v 4.855 l -0.063,0.286 -0.315,0.114 -0.189,-0.114 -0.063,-0.286 v -4.855 l 0.063,-0.171 0.189,-0.114 0.315,0.114 z m 0,8.283 v 4.74 l -0.063,0.286 -0.315,0.114 -0.189,-0.114 -0.063,-0.286 v -4.74 l 0.063,-0.286 0.189,-0.114 0.315,0.114 z m 0,8.167 v 4.856 l -0.063,0.171 -0.315,0.114 -0.189,-0.114 -0.063,-0.171 v -4.856 l 0.063,-0.171 0.189,-0.114 0.315,0.114 z m 0,8.283 v 4.74 l -0.063,0.286 -0.315,0.114 -0.189,-0.114 -0.063,-0.286 v -4.74 l 0.063,-0.286 0.189,-0.114 0.315,0.114 z m 0,8.168 v 4.855 l -0.063,0.228 -0.315,0.057 -0.189,-0.057 -0.063,-0.228 v -4.855 l 0.063,-0.172 0.189,-0.114 0.315,0.114 z m 0,8.282 v 4.741 l -0.063,0.285 -0.315,0.114 -0.189,-0.114 -0.063,-0.285 v -4.741 l 0.063,-0.286 0.189,-0.114 0.315,0.114 z"
                     style="fill:#c0c0c0;fill-opacity:1;fill-rule:nonzero;stroke:#c0c0c0;stroke-width:0.095;stroke-linecap:round;stroke-linejoin:round;stroke-miterlimit:10;stroke-dasharray:none;stroke-opacity:1"
                     id="path3169"
                     inkscape:connector-curvature="0" /></g><g
                   id="g3171"
                   transform="translate(501.57,-508.81)"><path
                     d="M 0,0 H 8.635"
                     style="fill:none;stroke:#000000;stroke-width:1.14100003;stroke-linecap:round;stroke-linejoin:round;stroke-miterlimit:10;stroke-dasharray:none;stroke-opacity:1"
                     id="path3173"
                     inkscape:connector-curvature="0" /><g
                     id="g3175"
                     transform="translate(0.378,34.271)"><path
                       d="M 0,0 H 8.257"
                       style="fill:none;stroke:#000000;stroke-width:1.14100003;stroke-linecap:round;stroke-linejoin:round;stroke-miterlimit:10;stroke-dasharray:none;stroke-opacity:1"
                       id="path3177"
                       inkscape:connector-curvature="0" /><g
                       id="g3179"
                       transform="translate(-0.378,34.214)"><path
                         d="M 0,0 H 8.635"
                         style="fill:none;stroke:#000000;stroke-width:1.14100003;stroke-linecap:round;stroke-linejoin:round;stroke-miterlimit:10;stroke-dasharray:none;stroke-opacity:1"
                         id="path3181"
                         inkscape:connector-curvature="0" /></g></g></g></g><text
                 transform="matrix(1,0,0,-1,452.58,613.08)"
                 style="font-variant:normal;font-weight:bold;font-stretch:normal;font-size:7.99399996px;font-family:Arial;-inkscape-font-specification:Arial-BoldMT;writing-mode:lr-tb;fill:#000000;fill-opacity:1;fill-rule:nonzero;stroke:none"
                 id="text3185"><tspan
                   x="0 4.4414663"
                   y="0"
                   sodipodi:role="line"
                   id="tspan3183">T6</tspan></text>
<g
                 id="g3187"
                 transform="scale(0.95197,-1.0505)"><g
                   id="g3189"
                   transform="translate(482.346,-543.138)"><path
                     d="M 0,0 -8.572,17.193"
                     style="fill:none;stroke:#000000;stroke-width:1.14100003;stroke-linecap:round;stroke-linejoin:round;stroke-miterlimit:10;stroke-dasharray:none;stroke-opacity:1"
                     id="path3191"
                     inkscape:connector-curvature="0" /><g
                     id="g3193"
                     transform="translate(-8.572)"><path
                       d="M 0,0 8.572,17.193"
                       style="fill:none;stroke:#000000;stroke-width:1.14100003;stroke-linecap:round;stroke-linejoin:round;stroke-miterlimit:10;stroke-dasharray:none;stroke-opacity:1"
                       id="path3195"
                       inkscape:connector-curvature="0" /><g
                       id="g3197"
                       transform="translate(-6.429,-17.135)"><path
                         d="M 0,0 8.509,-17.135 H 21.366 L 29.938,0 h 12.92"
                         style="fill:none;stroke:#000000;stroke-width:1.14100003;stroke-linecap:round;stroke-linejoin:round;stroke-miterlimit:10;stroke-dasharray:none;stroke-opacity:1"
                         id="path3199"
                         inkscape:connector-curvature="0" /></g></g></g></g><text
                 transform="matrix(1,0,0,-1,465.72,559.74)"
                 style="font-variant:normal;font-weight:bold;font-stretch:normal;font-size:5.99560022px;font-family:Arial;-inkscape-font-specification:Arial-BoldMT;writing-mode:lr-tb;fill:#000000;fill-opacity:1;fill-rule:nonzero;stroke:none"
                 id="text3203"><tspan
                   x="0 1.5012982 4.8624315 6.423686"
                   y="0"
                   sodipodi:role="line"
                   id="tspan3201">Idle</tspan></text>
</g></g></g></g></g></g></svg>