<?xml version="1.0" encoding="UTF-8" standalone="no"?>
<!DOCTYPE svg PUBLIC "-//W3C//DTD SVG 1.1//EN"
 "http://www.w3.org/Graphics/SVG/1.1/DTD/svg11.dtd">
<!-- Generated by graphviz version 2.40.1 (20161225.0304)
 -->
<!-- Title: clk_div_gen Pages: 1 -->
<svg width="1654pt" height="444pt"
 viewBox="0.00 0.00 1653.92 444.28" xmlns="http://www.w3.org/2000/svg" xmlns:xlink="http://www.w3.org/1999/xlink">
<g id="graph0" class="graph" transform="scale(1 1) rotate(0) translate(4 440.2803)">
<title>clk_div_gen</title>
<polygon fill="#ffffff" stroke="transparent" points="-4,4 -4,-440.2803 1649.9175,-440.2803 1649.9175,4 -4,4"/>
<text text-anchor="middle" x="822.9587" y="-7.8" font-family="Times,serif" font-size="14.00" fill="#000000">clk_div_gen</text>
<!-- n6 -->
<g id="node1" class="node">
<title>n6</title>
<polygon fill="none" stroke="#000000" points="636.8403,-271.2803 560.7596,-253.2803 636.8403,-235.2803 712.921,-253.2803 636.8403,-271.2803"/>
<text text-anchor="middle" x="636.8403" y="-249.5803" font-family="Times,serif" font-size="14.00" fill="#000000">baud_last_r</text>
</g>
<!-- c18 -->
<g id="node11" class="node">
<title>c18</title>
<polygon fill="none" stroke="#000000" points="749.1303,-331.2803 749.1303,-369.2803 882.1303,-369.2803 882.1303,-331.2803 749.1303,-331.2803"/>
<text text-anchor="middle" x="762.6303" y="-346.5803" font-family="Times,serif" font-size="14.00" fill="#000000">A</text>
<polyline fill="none" stroke="#000000" points="776.1303,-331.2803 776.1303,-369.2803 "/>
<text text-anchor="middle" x="815.6303" y="-354.0803" font-family="Times,serif" font-size="14.00" fill="#000000">$202</text>
<text text-anchor="middle" x="815.6303" y="-339.0803" font-family="Times,serif" font-size="14.00" fill="#000000">$logic_not</text>
<polyline fill="none" stroke="#000000" points="855.1303,-331.2803 855.1303,-369.2803 "/>
<text text-anchor="middle" x="868.6303" y="-346.5803" font-family="Times,serif" font-size="14.00" fill="#000000">Y</text>
</g>
<!-- n6&#45;&gt;c18 -->
<g id="edge18" class="edge">
<title>n6:e&#45;&gt;c18:w</title>
<path fill="none" stroke="#000000" d="M712.8403,-253.2803C754.7343,-253.2803 712.3001,-333.6336 739.0414,-348.072"/>
<polygon fill="#000000" stroke="#000000" points="738.6132,-351.5611 749.1303,-350.2803 740.11,-344.723 738.6132,-351.5611"/>
</g>
<!-- c26 -->
<g id="node15" class="node">
<title>c26</title>
<polygon fill="none" stroke="#000000" points="918.1303,-150.7803 918.1303,-219.7803 1022.1303,-219.7803 1022.1303,-150.7803 918.1303,-150.7803"/>
<text text-anchor="middle" x="931.6303" y="-204.5803" font-family="Times,serif" font-size="14.00" fill="#000000">A</text>
<polyline fill="none" stroke="#000000" points="918.1303,-196.7803 945.1303,-196.7803 "/>
<text text-anchor="middle" x="931.6303" y="-181.5803" font-family="Times,serif" font-size="14.00" fill="#000000">B</text>
<polyline fill="none" stroke="#000000" points="918.1303,-173.7803 945.1303,-173.7803 "/>
<text text-anchor="middle" x="931.6303" y="-158.5803" font-family="Times,serif" font-size="14.00" fill="#000000">S</text>
<polyline fill="none" stroke="#000000" points="945.1303,-150.7803 945.1303,-219.7803 "/>
<text text-anchor="middle" x="970.1303" y="-189.0803" font-family="Times,serif" font-size="14.00" fill="#000000">$242</text>
<text text-anchor="middle" x="970.1303" y="-174.0803" font-family="Times,serif" font-size="14.00" fill="#000000">$mux</text>
<polyline fill="none" stroke="#000000" points="995.1303,-150.7803 995.1303,-219.7803 "/>
<text text-anchor="middle" x="1008.6303" y="-181.5803" font-family="Times,serif" font-size="14.00" fill="#000000">Y</text>
</g>
<!-- n6&#45;&gt;c26 -->
<g id="edge19" class="edge">
<title>n6:e&#45;&gt;c26:w</title>
<path fill="none" stroke="#000000" d="M712.8403,-253.2803C731.0461,-253.2803 731.8344,-239.9637 749.1303,-234.2803 817.943,-211.6685 840.0718,-208.5408 907.7964,-208.2972"/>
<polygon fill="#000000" stroke="#000000" points="908.1361,-211.7968 918.1303,-208.2803 908.1246,-204.7968 908.1361,-211.7968"/>
</g>
<!-- n7 -->
<g id="node2" class="node">
<title>n7</title>
<polygon fill="none" stroke="#000000" points="1317.0759,-405.2803 1214.1847,-387.2803 1317.0759,-369.2803 1419.9672,-387.2803 1317.0759,-405.2803"/>
<text text-anchor="middle" x="1317.0759" y="-383.5803" font-family="Times,serif" font-size="14.00" fill="#000000">baud_posedge_r</text>
</g>
<!-- x5 -->
<g id="node22" class="node">
<title>x5</title>
<path fill="none" stroke="#000000" d="M1498.0215,-405.2803C1498.0215,-405.2803 1468.0215,-405.2803 1468.0215,-405.2803 1462.0215,-405.2803 1456.0215,-399.2803 1456.0215,-393.2803 1456.0215,-393.2803 1456.0215,-381.2803 1456.0215,-381.2803 1456.0215,-375.2803 1462.0215,-369.2803 1468.0215,-369.2803 1468.0215,-369.2803 1498.0215,-369.2803 1498.0215,-369.2803 1504.0215,-369.2803 1510.0215,-375.2803 1510.0215,-381.2803 1510.0215,-381.2803 1510.0215,-393.2803 1510.0215,-393.2803 1510.0215,-399.2803 1504.0215,-405.2803 1498.0215,-405.2803"/>
<text text-anchor="middle" x="1483.0215" y="-383.5803" font-family="Times,serif" font-size="14.00" fill="#000000">BUF</text>
</g>
<!-- n7&#45;&gt;x5 -->
<g id="edge21" class="edge">
<title>n7:e&#45;&gt;x5:w</title>
<path fill="none" stroke="#000000" d="M1420.0215,-387.2803C1432.0215,-387.2803 1437.2715,-387.2803 1445.8965,-387.2803"/>
<polygon fill="#000000" stroke="#000000" points="1446.0216,-390.7804 1456.0215,-387.2803 1446.0215,-383.7804 1446.0216,-390.7804"/>
</g>
<!-- n8 -->
<g id="node3" class="node">
<title>n8</title>
<polygon fill="none" stroke="#000000" points="54,-390.8244 54,-405.7361 38.1838,-416.2803 15.8162,-416.2803 0,-405.7361 0,-390.8244 15.8162,-380.2803 38.1838,-380.2803 54,-390.8244"/>
<text text-anchor="middle" x="27" y="-394.5803" font-family="Times,serif" font-size="14.00" fill="#000000">clk</text>
</g>
<!-- c22 -->
<g id="node12" class="node">
<title>c22</title>
<polygon fill="none" stroke="#000000" points="1058.1303,-225.2803 1058.1303,-271.2803 1178.1303,-271.2803 1178.1303,-225.2803 1058.1303,-225.2803"/>
<text text-anchor="middle" x="1081.1303" y="-256.0803" font-family="Times,serif" font-size="14.00" fill="#000000">CLK</text>
<polyline fill="none" stroke="#000000" points="1058.1303,-248.2803 1104.1303,-248.2803 "/>
<text text-anchor="middle" x="1081.1303" y="-233.0803" font-family="Times,serif" font-size="14.00" fill="#000000">D</text>
<polyline fill="none" stroke="#000000" points="1104.1303,-225.2803 1104.1303,-271.2803 "/>
<text text-anchor="middle" x="1127.6303" y="-252.0803" font-family="Times,serif" font-size="14.00" fill="#000000">$605</text>
<text text-anchor="middle" x="1127.6303" y="-237.0803" font-family="Times,serif" font-size="14.00" fill="#000000">$dff</text>
<polyline fill="none" stroke="#000000" points="1151.1303,-225.2803 1151.1303,-271.2803 "/>
<text text-anchor="middle" x="1164.6303" y="-244.5803" font-family="Times,serif" font-size="14.00" fill="#000000">Q</text>
</g>
<!-- n8&#45;&gt;c22 -->
<g id="edge22" class="edge">
<title>n8:e&#45;&gt;c22:w</title>
<path fill="none" stroke="#000000" d="M54,-398.2803C170.7889,-398.2803 199.9862,-398.2803 316.7751,-398.2803 316.7751,-398.2803 316.7751,-398.2803 815.6303,-398.2803 908.1893,-398.2803 950.9568,-430.4537 1022.1303,-371.2803 1058.8949,-340.7143 1014.3935,-272.1706 1047.8483,-261.6472"/>
<polygon fill="#000000" stroke="#000000" points="1048.6788,-265.0677 1058.1303,-260.2803 1047.7563,-258.1287 1048.6788,-265.0677"/>
</g>
<!-- c23 -->
<g id="node13" class="node">
<title>c23</title>
<polygon fill="none" stroke="#000000" points="1058.1303,-364.2803 1058.1303,-410.2803 1178.1303,-410.2803 1178.1303,-364.2803 1058.1303,-364.2803"/>
<text text-anchor="middle" x="1081.1303" y="-395.0803" font-family="Times,serif" font-size="14.00" fill="#000000">CLK</text>
<polyline fill="none" stroke="#000000" points="1058.1303,-387.2803 1104.1303,-387.2803 "/>
<text text-anchor="middle" x="1081.1303" y="-372.0803" font-family="Times,serif" font-size="14.00" fill="#000000">D</text>
<polyline fill="none" stroke="#000000" points="1104.1303,-364.2803 1104.1303,-410.2803 "/>
<text text-anchor="middle" x="1127.6303" y="-391.0803" font-family="Times,serif" font-size="14.00" fill="#000000">$606</text>
<text text-anchor="middle" x="1127.6303" y="-376.0803" font-family="Times,serif" font-size="14.00" fill="#000000">$dff</text>
<polyline fill="none" stroke="#000000" points="1151.1303,-364.2803 1151.1303,-410.2803 "/>
<text text-anchor="middle" x="1164.6303" y="-383.5803" font-family="Times,serif" font-size="14.00" fill="#000000">Q</text>
</g>
<!-- n8&#45;&gt;c23 -->
<g id="edge23" class="edge">
<title>n8:e&#45;&gt;c23:w</title>
<path fill="none" stroke="#000000" d="M54,-398.2803C71.1673,-398.2803 73.3173,-408.2302 90,-412.2803 188.4909,-436.1912 215.4233,-436.2803 316.7751,-436.2803 316.7751,-436.2803 316.7751,-436.2803 815.6303,-436.2803 908.0259,-436.2803 932.1916,-433.4452 1022.1303,-412.2803 1034.8083,-409.2968 1039.204,-403.2614 1048.2026,-400.5962"/>
<polygon fill="#000000" stroke="#000000" points="1048.677,-404.064 1058.1303,-399.2803 1047.7571,-397.1247 1048.677,-404.064"/>
</g>
<!-- c24 -->
<g id="node14" class="node">
<title>c24</title>
<polygon fill="none" stroke="#000000" points="90,-241.2803 90,-287.2803 210,-287.2803 210,-241.2803 90,-241.2803"/>
<text text-anchor="middle" x="113" y="-272.0803" font-family="Times,serif" font-size="14.00" fill="#000000">CLK</text>
<polyline fill="none" stroke="#000000" points="90,-264.2803 136,-264.2803 "/>
<text text-anchor="middle" x="113" y="-249.0803" font-family="Times,serif" font-size="14.00" fill="#000000">D</text>
<polyline fill="none" stroke="#000000" points="136,-241.2803 136,-287.2803 "/>
<text text-anchor="middle" x="159.5" y="-268.0803" font-family="Times,serif" font-size="14.00" fill="#000000">$607</text>
<text text-anchor="middle" x="159.5" y="-253.0803" font-family="Times,serif" font-size="14.00" fill="#000000">$dff</text>
<polyline fill="none" stroke="#000000" points="183,-241.2803 183,-287.2803 "/>
<text text-anchor="middle" x="196.5" y="-260.5803" font-family="Times,serif" font-size="14.00" fill="#000000">Q</text>
</g>
<!-- n8&#45;&gt;c24 -->
<g id="edge24" class="edge">
<title>n8:e&#45;&gt;c24:w</title>
<path fill="none" stroke="#000000" d="M54,-398.2803C106.5586,-398.2803 43.6435,-292.8334 79.9636,-278.0049"/>
<polygon fill="#000000" stroke="#000000" points="80.7372,-281.4233 90,-276.2803 79.5517,-274.5245 80.7372,-281.4233"/>
</g>
<!-- n9 -->
<g id="node4" class="node">
<title>n9</title>
<polygon fill="none" stroke="#000000" points="1645.8655,-379.8244 1645.8655,-394.7361 1616.6371,-405.2803 1575.3019,-405.2803 1546.0735,-394.7361 1546.0735,-379.8244 1575.3019,-369.2803 1616.6371,-369.2803 1645.8655,-379.8244"/>
<text text-anchor="middle" x="1595.9695" y="-383.5803" font-family="Times,serif" font-size="14.00" fill="#000000">clk_pulse</text>
</g>
<!-- n10 -->
<g id="node5" class="node">
<title>n10</title>
<polygon fill="none" stroke="#000000" points="511.1217,-43.8244 511.1217,-58.7361 489.4057,-69.2803 458.6947,-69.2803 436.9788,-58.7361 436.9788,-43.8244 458.6947,-33.2803 489.4057,-33.2803 511.1217,-43.8244"/>
<text text-anchor="middle" x="474.0502" y="-47.5803" font-family="Times,serif" font-size="14.00" fill="#000000">enable</text>
</g>
<!-- n10&#45;&gt;c26 -->
<g id="edge4" class="edge">
<title>n10:e&#45;&gt;c26:w</title>
<path fill="none" stroke="#000000" d="M511.0502,-51.2803C676.3486,-51.2803 752.1962,25.8993 882.1303,-76.2803 911.5206,-99.3927 883.4445,-150.8177 908.124,-160.6412"/>
<polygon fill="#000000" stroke="#000000" points="907.696,-164.1177 918.1303,-162.2803 908.8276,-157.2097 907.696,-164.1177"/>
</g>
<!-- c27 -->
<g id="node17" class="node">
<title>c27</title>
<polygon fill="none" stroke="#000000" points="763.6303,-85.7803 763.6303,-154.7803 867.6303,-154.7803 867.6303,-85.7803 763.6303,-85.7803"/>
<text text-anchor="middle" x="777.1303" y="-139.5803" font-family="Times,serif" font-size="14.00" fill="#000000">A</text>
<polyline fill="none" stroke="#000000" points="763.6303,-131.7803 790.6303,-131.7803 "/>
<text text-anchor="middle" x="777.1303" y="-116.5803" font-family="Times,serif" font-size="14.00" fill="#000000">B</text>
<polyline fill="none" stroke="#000000" points="763.6303,-108.7803 790.6303,-108.7803 "/>
<text text-anchor="middle" x="777.1303" y="-93.5803" font-family="Times,serif" font-size="14.00" fill="#000000">S</text>
<polyline fill="none" stroke="#000000" points="790.6303,-85.7803 790.6303,-154.7803 "/>
<text text-anchor="middle" x="815.6303" y="-124.0803" font-family="Times,serif" font-size="14.00" fill="#000000">$245</text>
<text text-anchor="middle" x="815.6303" y="-109.0803" font-family="Times,serif" font-size="14.00" fill="#000000">$mux</text>
<polyline fill="none" stroke="#000000" points="840.6303,-85.7803 840.6303,-154.7803 "/>
<text text-anchor="middle" x="854.1303" y="-116.5803" font-family="Times,serif" font-size="14.00" fill="#000000">Y</text>
</g>
<!-- n10&#45;&gt;c27 -->
<g id="edge5" class="edge">
<title>n10:e&#45;&gt;c27:w</title>
<path fill="none" stroke="#000000" d="M511.0502,-51.2803C601.9827,-51.2803 624.2671,-63.9918 713.1303,-83.2803 732.1571,-87.4102 738.3869,-94.4185 753.5243,-96.6069"/>
<polygon fill="#000000" stroke="#000000" points="753.4197,-100.1076 763.6303,-97.2803 753.8852,-93.1231 753.4197,-100.1076"/>
</g>
<!-- c28 -->
<g id="node20" class="node">
<title>c28</title>
<polygon fill="none" stroke="#000000" points="584.8403,-289.7803 584.8403,-358.7803 688.8403,-358.7803 688.8403,-289.7803 584.8403,-289.7803"/>
<text text-anchor="middle" x="598.3403" y="-343.5803" font-family="Times,serif" font-size="14.00" fill="#000000">A</text>
<polyline fill="none" stroke="#000000" points="584.8403,-335.7803 611.8403,-335.7803 "/>
<text text-anchor="middle" x="598.3403" y="-320.5803" font-family="Times,serif" font-size="14.00" fill="#000000">B</text>
<polyline fill="none" stroke="#000000" points="584.8403,-312.7803 611.8403,-312.7803 "/>
<text text-anchor="middle" x="598.3403" y="-297.5803" font-family="Times,serif" font-size="14.00" fill="#000000">S</text>
<polyline fill="none" stroke="#000000" points="611.8403,-289.7803 611.8403,-358.7803 "/>
<text text-anchor="middle" x="636.8403" y="-328.0803" font-family="Times,serif" font-size="14.00" fill="#000000">$198</text>
<text text-anchor="middle" x="636.8403" y="-313.0803" font-family="Times,serif" font-size="14.00" fill="#000000">$mux</text>
<polyline fill="none" stroke="#000000" points="661.8403,-289.7803 661.8403,-358.7803 "/>
<text text-anchor="middle" x="675.3403" y="-320.5803" font-family="Times,serif" font-size="14.00" fill="#000000">Y</text>
</g>
<!-- n10&#45;&gt;c28 -->
<g id="edge6" class="edge">
<title>n10:e&#45;&gt;c28:w</title>
<path fill="none" stroke="#000000" d="M511.0502,-51.2803C623.2799,-51.2803 478.5923,-285.8994 574.7647,-300.5631"/>
<polygon fill="#000000" stroke="#000000" points="574.617,-304.0614 584.8403,-301.2803 575.114,-297.079 574.617,-304.0614"/>
</g>
<!-- n11 -->
<g id="node6" class="node">
<title>n11</title>
<polygon fill="none" stroke="#000000" points="861.5855,-286.8244 861.5855,-301.7361 834.6656,-312.2803 796.5951,-312.2803 769.6752,-301.7361 769.6752,-286.8244 796.5951,-276.2803 834.6656,-276.2803 861.5855,-286.8244"/>
<text text-anchor="middle" x="815.6303" y="-290.5803" font-family="Times,serif" font-size="14.00" fill="#000000">new_clk</text>
</g>
<!-- c17 -->
<g id="node10" class="node">
<title>c17</title>
<polygon fill="none" stroke="#000000" points="919.6303,-315.2803 919.6303,-361.2803 1020.6303,-361.2803 1020.6303,-315.2803 919.6303,-315.2803"/>
<text text-anchor="middle" x="933.1303" y="-346.0803" font-family="Times,serif" font-size="14.00" fill="#000000">A</text>
<polyline fill="none" stroke="#000000" points="919.6303,-338.2803 946.6303,-338.2803 "/>
<text text-anchor="middle" x="933.1303" y="-323.0803" font-family="Times,serif" font-size="14.00" fill="#000000">B</text>
<polyline fill="none" stroke="#000000" points="946.6303,-315.2803 946.6303,-361.2803 "/>
<text text-anchor="middle" x="970.1303" y="-342.0803" font-family="Times,serif" font-size="14.00" fill="#000000">$203</text>
<text text-anchor="middle" x="970.1303" y="-327.0803" font-family="Times,serif" font-size="14.00" fill="#000000">$and</text>
<polyline fill="none" stroke="#000000" points="993.6303,-315.2803 993.6303,-361.2803 "/>
<text text-anchor="middle" x="1007.1303" y="-334.5803" font-family="Times,serif" font-size="14.00" fill="#000000">Y</text>
</g>
<!-- n11&#45;&gt;c17 -->
<g id="edge8" class="edge">
<title>n11:e&#45;&gt;c17:w</title>
<path fill="none" stroke="#000000" d="M861.6303,-294.2803C887.1068,-294.2803 889.6373,-318.562 909.1981,-324.8221"/>
<polygon fill="#000000" stroke="#000000" points="908.728,-328.2906 919.1303,-326.2803 909.7448,-321.3648 908.728,-328.2906"/>
</g>
<!-- n11&#45;&gt;c26 -->
<g id="edge9" class="edge">
<title>n11:e&#45;&gt;c26:w</title>
<path fill="none" stroke="#000000" d="M861.6303,-294.2803C912.3595,-294.2803 870.4358,-200.0695 908.1357,-186.8211"/>
<polygon fill="#000000" stroke="#000000" points="908.7804,-190.2632 918.1303,-185.2803 907.7138,-183.3449 908.7804,-190.2632"/>
</g>
<!-- n12 -->
<g id="node7" class="node">
<title>n12</title>
<polygon fill="none" stroke="#000000" points="316.7751,-282.2803 246.2242,-264.2803 316.7751,-246.2803 387.326,-264.2803 316.7751,-282.2803"/>
<text text-anchor="middle" x="316.7751" y="-260.5803" font-family="Times,serif" font-size="14.00" fill="#000000">new_clk_r</text>
</g>
<!-- c16 -->
<g id="node9" class="node">
<title>c16</title>
<polygon fill="none" stroke="#000000" points="423.5502,-152.2803 423.5502,-198.2803 524.5502,-198.2803 524.5502,-152.2803 423.5502,-152.2803"/>
<text text-anchor="middle" x="437.0502" y="-183.0803" font-family="Times,serif" font-size="14.00" fill="#000000">A</text>
<polyline fill="none" stroke="#000000" points="423.5502,-175.2803 450.5502,-175.2803 "/>
<text text-anchor="middle" x="437.0502" y="-160.0803" font-family="Times,serif" font-size="14.00" fill="#000000">B</text>
<polyline fill="none" stroke="#000000" points="450.5502,-152.2803 450.5502,-198.2803 "/>
<text text-anchor="middle" x="474.0502" y="-179.0803" font-family="Times,serif" font-size="14.00" fill="#000000">$200</text>
<text text-anchor="middle" x="474.0502" y="-164.0803" font-family="Times,serif" font-size="14.00" fill="#000000">$add</text>
<polyline fill="none" stroke="#000000" points="497.5502,-152.2803 497.5502,-198.2803 "/>
<text text-anchor="middle" x="511.0502" y="-171.5803" font-family="Times,serif" font-size="14.00" fill="#000000">Y</text>
</g>
<!-- n12&#45;&gt;c16 -->
<g id="edge11" class="edge">
<title>n12:e&#45;&gt;c16:w</title>
<path fill="none" stroke="#000000" d="M387.5502,-264.2803C421.1961,-264.2803 393.5001,-203.2029 413.7274,-189.8422"/>
<polygon fill="#000000" stroke="#000000" points="414.7572,-193.1908 423.5502,-187.2803 412.9906,-186.4173 414.7572,-193.1908"/>
</g>
<!-- x4 -->
<g id="node21" class="node">
<title>x4</title>
<path fill="none" stroke="#000000" d="M453.0502,-255.2803C453.0502,-255.2803 495.0502,-255.2803 495.0502,-255.2803 501.0502,-255.2803 507.0502,-261.2803 507.0502,-267.2803 507.0502,-267.2803 507.0502,-279.2803 507.0502,-279.2803 507.0502,-285.2803 501.0502,-291.2803 495.0502,-291.2803 495.0502,-291.2803 453.0502,-291.2803 453.0502,-291.2803 447.0502,-291.2803 441.0502,-285.2803 441.0502,-279.2803 441.0502,-279.2803 441.0502,-267.2803 441.0502,-267.2803 441.0502,-261.2803 447.0502,-255.2803 453.0502,-255.2803"/>
<text text-anchor="middle" x="474.0502" y="-269.5803" font-family="Times,serif" font-size="14.00" fill="#000000">8:8 &#45; 0:0</text>
</g>
<!-- n12&#45;&gt;x4 -->
<g id="edge12" class="edge">
<title>n12:e&#45;&gt;x4:w</title>
<path fill="none" stroke="#000000" d="M387.5502,-264.2803C407.8946,-264.2803 414.8297,-270.6875 430.9836,-272.6898"/>
<polygon fill="#000000" stroke="#000000" points="430.8624,-276.1886 441.0502,-273.2803 431.2724,-269.2006 430.8624,-276.1886"/>
</g>
<!-- v0 -->
<g id="node8" class="node">
<title>v0</title>
<ellipse fill="none" stroke="#000000" cx="316.7751" cy="-163.2803" rx="27" ry="18"/>
<text text-anchor="middle" x="316.7751" y="-159.5803" font-family="Times,serif" font-size="14.00" fill="#000000">1</text>
</g>
<!-- v0&#45;&gt;c16 -->
<g id="edge26" class="edge">
<title>v0:e&#45;&gt;c16:w</title>
<path fill="none" stroke="#000000" stroke-width="3" d="M343.7751,-163.2803C375.6298,-163.2803 386.0198,-163.2803 413.5145,-163.2803"/>
<polygon fill="#000000" stroke="#000000" stroke-width="3" points="413.5503,-166.7804 423.5502,-163.2803 413.5502,-159.7804 413.5503,-166.7804"/>
</g>
<!-- x2 -->
<g id="node18" class="node">
<title>x2</title>
<path fill="none" stroke="#000000" d="M615.8403,-126.2803C615.8403,-126.2803 657.8403,-126.2803 657.8403,-126.2803 663.8403,-126.2803 669.8403,-132.2803 669.8403,-138.2803 669.8403,-138.2803 669.8403,-150.2803 669.8403,-150.2803 669.8403,-156.2803 663.8403,-162.2803 657.8403,-162.2803 657.8403,-162.2803 615.8403,-162.2803 615.8403,-162.2803 609.8403,-162.2803 603.8403,-156.2803 603.8403,-150.2803 603.8403,-150.2803 603.8403,-138.2803 603.8403,-138.2803 603.8403,-132.2803 609.8403,-126.2803 615.8403,-126.2803"/>
<text text-anchor="middle" x="636.8403" y="-140.5803" font-family="Times,serif" font-size="14.00" fill="#000000">8:0 &#45; 8:0</text>
</g>
<!-- c16&#45;&gt;x2 -->
<g id="edge15" class="edge">
<title>c16:e&#45;&gt;x2:w</title>
<path fill="none" stroke="#000000" stroke-width="3" d="M524.5502,-175.2803C558.6928,-175.2803 564.9703,-150.0393 593.6704,-145.1094"/>
<polygon fill="#000000" stroke="#000000" stroke-width="3" points="594.1578,-148.5814 603.8403,-144.2803 593.5889,-141.6046 594.1578,-148.5814"/>
</g>
<!-- c17&#45;&gt;c23 -->
<g id="edge13" class="edge">
<title>c17:e&#45;&gt;c23:w</title>
<path fill="none" stroke="#000000" d="M1021.1303,-338.2803C1040.2075,-338.2803 1037.2347,-363.178 1048.3877,-372.1257"/>
<polygon fill="#000000" stroke="#000000" points="1047.5384,-375.5295 1058.1303,-375.2803 1049.6948,-368.8699 1047.5384,-375.5295"/>
</g>
<!-- c18&#45;&gt;c17 -->
<g id="edge16" class="edge">
<title>c18:e&#45;&gt;c17:w</title>
<path fill="none" stroke="#000000" d="M882.1303,-350.2803C894.5921,-350.2803 899.9711,-350.2803 909.0022,-350.2803"/>
<polygon fill="#000000" stroke="#000000" points="909.1304,-353.7804 919.1303,-350.2803 909.1303,-346.7804 909.1304,-353.7804"/>
</g>
<!-- c22&#45;&gt;n6 -->
<g id="edge17" class="edge">
<title>c22:e&#45;&gt;n6:w</title>
<path fill="none" stroke="#000000" d="M1178.1303,-248.2803C1178.1303,-248.2803 1058.1303,-271.7803 1058.1303,-271.7803 920.7936,-270.0248 886.268,-259.6849 749.1303,-267.2803 733.0565,-268.1705 729.2042,-270.39 713.1303,-271.2803 713.1303,-271.2803 604.7129,-258.4658 570.8324,-254.4613"/>
<polygon fill="#000000" stroke="#000000" points="571.182,-250.9783 560.8403,-253.2803 570.3603,-257.9299 571.182,-250.9783"/>
</g>
<!-- c23&#45;&gt;n7 -->
<g id="edge20" class="edge">
<title>c23:e&#45;&gt;n7:w</title>
<path fill="none" stroke="#000000" d="M1178.1303,-387.2803C1190.1303,-387.2803 1195.3803,-387.2803 1204.0053,-387.2803"/>
<polygon fill="#000000" stroke="#000000" points="1204.1304,-390.7804 1214.1303,-387.2803 1204.1303,-383.7804 1204.1304,-390.7804"/>
</g>
<!-- c24&#45;&gt;n12 -->
<g id="edge10" class="edge">
<title>c24:e&#45;&gt;n12:w</title>
<path fill="none" stroke="#000000" d="M210,-264.2803C222,-264.2803 227.25,-264.2803 235.875,-264.2803"/>
<polygon fill="#000000" stroke="#000000" points="236,-267.7804 246,-264.2803 236,-260.7804 236,-267.7804"/>
</g>
<!-- c26&#45;&gt;c22 -->
<g id="edge3" class="edge">
<title>c26:e&#45;&gt;c22:w</title>
<path fill="none" stroke="#000000" d="M1022.1303,-185.2803C1045.7568,-185.2803 1035.1307,-222.2634 1048.5885,-233.2427"/>
<polygon fill="#000000" stroke="#000000" points="1047.5398,-236.5819 1058.1303,-236.2803 1049.6632,-229.9117 1047.5398,-236.5819"/>
</g>
<!-- v1 -->
<g id="node16" class="node">
<title>v1</title>
<ellipse fill="none" stroke="#000000" cx="636.8403" cy="-199.2803" rx="57.6901" ry="18"/>
<text text-anchor="middle" x="636.8403" y="-195.5803" font-family="Times,serif" font-size="14.00" fill="#000000">9&#39;111111111</text>
</g>
<!-- v1&#45;&gt;c27 -->
<g id="edge27" class="edge">
<title>v1:e&#45;&gt;c27:w</title>
<path fill="none" stroke="#000000" stroke-width="3" d="M694.8403,-199.2803C730.4135,-199.2803 725.6994,-153.6837 753.404,-144.7781"/>
<polygon fill="#000000" stroke="#000000" stroke-width="3" points="754.2432,-148.1927 763.6303,-143.2803 753.2286,-141.2666 754.2432,-148.1927"/>
</g>
<!-- c27&#45;&gt;c24 -->
<g id="edge14" class="edge">
<title>c27:e&#45;&gt;c24:w</title>
<path fill="none" stroke="#000000" stroke-width="3" d="M867.6303,-120.2803C867.6303,-120.2803 763.6303,-155.2803 763.6303,-155.2803 736.7911,-146.123 739.9695,-125.4375 713.1303,-116.2803 614.7946,-82.7292 344.4008,-102.9206 246,-136.2803 212.1188,-147.7666 97.7435,-219.7805 83.9623,-244.1959"/>
<polygon fill="#000000" stroke="#000000" stroke-width="3" points="81.2119,-246.3624 90,-252.2803 86.8204,-242.1738 81.2119,-246.3624"/>
</g>
<!-- x2&#45;&gt;c27 -->
<g id="edge1" class="edge">
<title>x2:e&#45;&gt;c27:w</title>
<path fill="none" stroke="#000000" stroke-width="3" d="M681.9321,-143.5879C711.0794,-140.0986 722.3773,-124.4713 751.5151,-120.9755"/>
<polygon fill="none" stroke="#000000" stroke-width="3" points="681.8206,-143.5942 676.0592,-147.9307 669.8403,-144.2803 675.6018,-139.9438 681.8206,-143.5942"/>
<polygon fill="none" stroke="#000000" stroke-width="3" points="751.65,-120.9678 757.411,-116.6306 763.6303,-120.2803 757.8694,-124.6175 751.65,-120.9678"/>
</g>
<!-- v3 -->
<g id="node19" class="node">
<title>v3</title>
<ellipse fill="none" stroke="#000000" cx="474.0502" cy="-347.2803" rx="27" ry="18"/>
<text text-anchor="middle" x="474.0502" y="-343.5803" font-family="Times,serif" font-size="14.00" fill="#000000">1&#39;0</text>
</g>
<!-- v3&#45;&gt;c28 -->
<g id="edge28" class="edge">
<title>v3:e&#45;&gt;c28:w</title>
<path fill="none" stroke="#000000" d="M501.0502,-347.2803C534.6535,-347.2803 545.5155,-347.2803 574.6772,-347.2803"/>
<polygon fill="#000000" stroke="#000000" points="574.8403,-350.7804 584.8403,-347.2803 574.8402,-343.7804 574.8403,-350.7804"/>
</g>
<!-- c28&#45;&gt;n11 -->
<g id="edge7" class="edge">
<title>c28:e&#45;&gt;n11:w</title>
<path fill="none" stroke="#000000" d="M688.8403,-324.2803C723.4021,-324.2803 730.1852,-299.8535 759.3215,-295.0827"/>
<polygon fill="#000000" stroke="#000000" points="759.9321,-298.5458 769.6303,-294.2803 759.3888,-291.567 759.9321,-298.5458"/>
</g>
<!-- x4&#45;&gt;c28 -->
<g id="edge2" class="edge">
<title>x4:e&#45;&gt;c28:w</title>
<path fill="none" stroke="#000000" d="M519.077,-274.9771C544.2746,-282.7203 547.5365,-314.6606 572.6244,-322.5247"/>
<polygon fill="none" stroke="#000000" points="518.9325,-274.9568 512.4325,-278.0793 507.0502,-273.2803 513.5502,-270.1578 518.9325,-274.9568"/>
<polygon fill="none" stroke="#000000" points="572.9623,-322.5732 579.4703,-319.4674 584.8403,-324.2803 578.3323,-327.3861 572.9623,-322.5732"/>
</g>
<!-- x5&#45;&gt;n9 -->
<g id="edge25" class="edge">
<title>x5:e&#45;&gt;n9:w</title>
<path fill="none" stroke="#000000" d="M1510.0215,-387.2803C1522.0215,-387.2803 1527.2715,-387.2803 1535.8965,-387.2803"/>
<polygon fill="#000000" stroke="#000000" points="1536.0216,-390.7804 1546.0215,-387.2803 1536.0215,-383.7804 1536.0216,-390.7804"/>
</g>
</g>
</svg>
