<?xml version="1.0" encoding="UTF-8" standalone="no"?>
<!DOCTYPE svg PUBLIC "-//W3C//DTD SVG 1.1//EN"
 "http://www.w3.org/Graphics/SVG/1.1/DTD/svg11.dtd">
<!-- Generated by graphviz version 2.40.1 (20161225.0304)
 -->
<!-- Title: clk_pulse Pages: 1 -->
<svg width="1296pt" height="265pt"
 viewBox="0.00 0.00 1296.32 265.00" xmlns="http://www.w3.org/2000/svg" xmlns:xlink="http://www.w3.org/1999/xlink">
<g id="graph0" class="graph" transform="scale(1 1) rotate(0) translate(4 261)">
<title>clk_pulse</title>
<polygon fill="#ffffff" stroke="transparent" points="-4,4 -4,-261 1292.3154,-261 1292.3154,4 -4,4"/>
<text text-anchor="middle" x="644.1577" y="-7.8" font-family="Times,serif" font-size="14.00" fill="#000000">clk_pulse</text>
<!-- n5 -->
<g id="node1" class="node">
<title>n5</title>
<polygon fill="none" stroke="#000000" points="90.6638,-118.5442 90.6638,-133.4558 65.5767,-144 30.0983,-144 5.0112,-133.4558 5.0112,-118.5442 30.0983,-108 65.5767,-108 90.6638,-118.5442"/>
<text text-anchor="middle" x="47.8375" y="-122.3" font-family="Times,serif" font-size="14.00" fill="#000000">clk_fast</text>
</g>
<!-- c12 -->
<g id="node5" class="node">
<title>c12</title>
<polygon fill="none" stroke="#000000" points="131.675,-71 131.675,-117 266.675,-117 266.675,-71 131.675,-71"/>
<text text-anchor="middle" x="145.175" y="-101.8" font-family="Times,serif" font-size="14.00" fill="#000000">A</text>
<polyline fill="none" stroke="#000000" points="131.675,-94 158.675,-94 "/>
<text text-anchor="middle" x="145.175" y="-78.8" font-family="Times,serif" font-size="14.00" fill="#000000">B</text>
<polyline fill="none" stroke="#000000" points="158.675,-71 158.675,-117 "/>
<text text-anchor="middle" x="199.175" y="-97.8" font-family="Times,serif" font-size="14.00" fill="#000000">$214</text>
<text text-anchor="middle" x="199.175" y="-82.8" font-family="Times,serif" font-size="14.00" fill="#000000">$logic_and</text>
<polyline fill="none" stroke="#000000" points="239.675,-71 239.675,-117 "/>
<text text-anchor="middle" x="253.175" y="-90.3" font-family="Times,serif" font-size="14.00" fill="#000000">Y</text>
</g>
<!-- n5&#45;&gt;c12 -->
<g id="edge5" class="edge">
<title>n5:e&#45;&gt;c12:w</title>
<path fill="none" stroke="#000000" d="M90.8375,-126C107.1,-126 110.547,-113.0496 121.8034,-107.9908"/>
<polygon fill="#000000" stroke="#000000" points="122.5643,-111.4079 131.675,-106 121.1804,-104.546 122.5643,-111.4079"/>
</g>
<!-- c18 -->
<g id="node8" class="node">
<title>c18</title>
<polygon fill="none" stroke="#000000" points="749.5709,-118 749.5709,-164 869.5709,-164 869.5709,-118 749.5709,-118"/>
<text text-anchor="middle" x="772.5709" y="-148.8" font-family="Times,serif" font-size="14.00" fill="#000000">CLK</text>
<polyline fill="none" stroke="#000000" points="749.5709,-141 795.5709,-141 "/>
<text text-anchor="middle" x="772.5709" y="-125.8" font-family="Times,serif" font-size="14.00" fill="#000000">D</text>
<polyline fill="none" stroke="#000000" points="795.5709,-118 795.5709,-164 "/>
<text text-anchor="middle" x="819.0709" y="-144.8" font-family="Times,serif" font-size="14.00" fill="#000000">$602</text>
<text text-anchor="middle" x="819.0709" y="-129.8" font-family="Times,serif" font-size="14.00" fill="#000000">$dff</text>
<polyline fill="none" stroke="#000000" points="842.5709,-118 842.5709,-164 "/>
<text text-anchor="middle" x="856.0709" y="-137.3" font-family="Times,serif" font-size="14.00" fill="#000000">Q</text>
</g>
<!-- n5&#45;&gt;c18 -->
<g id="edge6" class="edge">
<title>n5:e&#45;&gt;c18:w</title>
<path fill="none" stroke="#000000" d="M90.8375,-126C215.5661,-126 245.4464,-153 370.175,-153 370.175,-153 370.175,-153 523.6229,-153 620.6119,-153 647.3454,-153 739.5318,-153"/>
<polygon fill="#000000" stroke="#000000" points="739.571,-156.5001 749.5709,-153 739.5709,-149.5001 739.571,-156.5001"/>
</g>
<!-- n6 -->
<g id="node2" class="node">
<title>n6</title>
<polygon fill="none" stroke="#000000" points="573.5189,-99.5442 573.5189,-114.4558 544.2905,-125 502.9554,-125 473.727,-114.4558 473.727,-99.5442 502.9554,-89 544.2905,-89 573.5189,-99.5442"/>
<text text-anchor="middle" x="523.6229" y="-103.3" font-family="Times,serif" font-size="14.00" fill="#000000">clk_pulse</text>
</g>
<!-- c21 -->
<g id="node12" class="node">
<title>c21</title>
<polygon fill="none" stroke="#000000" points="609.5709,-181.5 609.5709,-250.5 713.5709,-250.5 713.5709,-181.5 609.5709,-181.5"/>
<text text-anchor="middle" x="623.0709" y="-235.3" font-family="Times,serif" font-size="14.00" fill="#000000">A</text>
<polyline fill="none" stroke="#000000" points="609.5709,-227.5 636.5709,-227.5 "/>
<text text-anchor="middle" x="623.0709" y="-212.3" font-family="Times,serif" font-size="14.00" fill="#000000">B</text>
<polyline fill="none" stroke="#000000" points="609.5709,-204.5 636.5709,-204.5 "/>
<text text-anchor="middle" x="623.0709" y="-189.3" font-family="Times,serif" font-size="14.00" fill="#000000">S</text>
<polyline fill="none" stroke="#000000" points="636.5709,-181.5 636.5709,-250.5 "/>
<text text-anchor="middle" x="661.5709" y="-219.8" font-family="Times,serif" font-size="14.00" fill="#000000">$227</text>
<text text-anchor="middle" x="661.5709" y="-204.8" font-family="Times,serif" font-size="14.00" fill="#000000">$mux</text>
<polyline fill="none" stroke="#000000" points="686.5709,-181.5 686.5709,-250.5 "/>
<text text-anchor="middle" x="700.0709" y="-212.3" font-family="Times,serif" font-size="14.00" fill="#000000">Y</text>
</g>
<!-- n6&#45;&gt;c21 -->
<g id="edge8" class="edge">
<title>n6:e&#45;&gt;c21:w</title>
<path fill="none" stroke="#000000" d="M573.5709,-107C610.9604,-107 576.4475,-177.0233 599.7935,-190.6997"/>
<polygon fill="#000000" stroke="#000000" points="599.0351,-194.1168 609.5709,-193 600.6383,-187.3028 599.0351,-194.1168"/>
</g>
<!-- n7 -->
<g id="node3" class="node">
<title>n7</title>
<polygon fill="none" stroke="#000000" points="95.513,-53.5442 95.513,-68.4558 67.5853,-79 28.0896,-79 .162,-68.4558 .162,-53.5442 28.0896,-43 67.5853,-43 95.513,-53.5442"/>
<text text-anchor="middle" x="47.8375" y="-57.3" font-family="Times,serif" font-size="14.00" fill="#000000">clk_slow</text>
</g>
<!-- n7&#45;&gt;c12 -->
<g id="edge9" class="edge">
<title>n7:e&#45;&gt;c12:w</title>
<path fill="none" stroke="#000000" d="M95.675,-61C110.1463,-61 112.6731,-73.8174 121.9187,-79.425"/>
<polygon fill="#000000" stroke="#000000" points="121.1129,-82.8321 131.675,-82 122.8993,-76.0639 121.1129,-82.8321"/>
</g>
<!-- c20 -->
<g id="node10" class="node">
<title>c20</title>
<polygon fill="none" stroke="#000000" points="1169.3154,-132.5 1169.3154,-201.5 1273.3154,-201.5 1273.3154,-132.5 1169.3154,-132.5"/>
<text text-anchor="middle" x="1182.8154" y="-186.3" font-family="Times,serif" font-size="14.00" fill="#000000">A</text>
<polyline fill="none" stroke="#000000" points="1169.3154,-178.5 1196.3154,-178.5 "/>
<text text-anchor="middle" x="1182.8154" y="-163.3" font-family="Times,serif" font-size="14.00" fill="#000000">B</text>
<polyline fill="none" stroke="#000000" points="1169.3154,-155.5 1196.3154,-155.5 "/>
<text text-anchor="middle" x="1182.8154" y="-140.3" font-family="Times,serif" font-size="14.00" fill="#000000">S</text>
<polyline fill="none" stroke="#000000" points="1196.3154,-132.5 1196.3154,-201.5 "/>
<text text-anchor="middle" x="1221.3154" y="-170.8" font-family="Times,serif" font-size="14.00" fill="#000000">$221</text>
<text text-anchor="middle" x="1221.3154" y="-155.8" font-family="Times,serif" font-size="14.00" fill="#000000">$mux</text>
<polyline fill="none" stroke="#000000" points="1246.3154,-132.5 1246.3154,-201.5 "/>
<text text-anchor="middle" x="1259.8154" y="-163.3" font-family="Times,serif" font-size="14.00" fill="#000000">Y</text>
</g>
<!-- n7&#45;&gt;c20 -->
<g id="edge10" class="edge">
<title>n7:e&#45;&gt;c20:w</title>
<path fill="none" stroke="#000000" d="M95.675,-61C218.8384,-61 247.0115,-23 370.175,-23 370.175,-23 370.175,-23 809.5709,-23 952.8401,-23 987.484,-56.7453 1118.8154,-114 1139.194,-122.8842 1142.5547,-138.3923 1159.2244,-142.8005"/>
<polygon fill="#000000" stroke="#000000" points="1158.9721,-146.295 1169.3154,-144 1159.7985,-139.344 1158.9721,-146.295"/>
</g>
<!-- n8 -->
<g id="node4" class="node">
<title>n8</title>
<polygon fill="none" stroke="#000000" points="1012.1932,-159 905.4485,-141 1012.1932,-123 1118.9378,-141 1012.1932,-159"/>
<text text-anchor="middle" x="1012.1932" y="-137.3" font-family="Times,serif" font-size="14.00" fill="#000000">clk_slow_done_r</text>
</g>
<!-- c14 -->
<g id="node7" class="node">
<title>c14</title>
<polygon fill="none" stroke="#000000" points="1154.8154,-72 1154.8154,-110 1287.8154,-110 1287.8154,-72 1154.8154,-72"/>
<text text-anchor="middle" x="1168.3154" y="-87.3" font-family="Times,serif" font-size="14.00" fill="#000000">A</text>
<polyline fill="none" stroke="#000000" points="1181.8154,-72 1181.8154,-110 "/>
<text text-anchor="middle" x="1221.3154" y="-94.8" font-family="Times,serif" font-size="14.00" fill="#000000">$215</text>
<text text-anchor="middle" x="1221.3154" y="-79.8" font-family="Times,serif" font-size="14.00" fill="#000000">$logic_not</text>
<polyline fill="none" stroke="#000000" points="1260.8154,-72 1260.8154,-110 "/>
<text text-anchor="middle" x="1274.3154" y="-87.3" font-family="Times,serif" font-size="14.00" fill="#000000">Y</text>
</g>
<!-- n8&#45;&gt;c14 -->
<g id="edge12" class="edge">
<title>n8:e&#45;&gt;c14:w</title>
<path fill="none" stroke="#000000" d="M1118.8154,-141C1141.9198,-141 1132.1701,-105.4043 1145.0076,-94.2806"/>
<polygon fill="#000000" stroke="#000000" points="1146.4421,-97.4915 1154.8154,-91 1144.2216,-90.853 1146.4421,-97.4915"/>
</g>
<!-- n8&#45;&gt;c20 -->
<g id="edge13" class="edge">
<title>n8:e&#45;&gt;c20:w</title>
<path fill="none" stroke="#000000" d="M1118.8154,-141C1140.1154,-141 1143.4514,-159.5098 1159.1377,-165.2941"/>
<polygon fill="#000000" stroke="#000000" points="1158.8744,-168.7987 1169.3154,-167 1160.0316,-161.895 1158.8744,-168.7987"/>
</g>
<!-- c13 -->
<g id="node6" class="node">
<title>c13</title>
<polygon fill="none" stroke="#000000" points="302.675,-59 302.675,-105 437.675,-105 437.675,-59 302.675,-59"/>
<text text-anchor="middle" x="316.175" y="-89.8" font-family="Times,serif" font-size="14.00" fill="#000000">A</text>
<polyline fill="none" stroke="#000000" points="302.675,-82 329.675,-82 "/>
<text text-anchor="middle" x="316.175" y="-66.8" font-family="Times,serif" font-size="14.00" fill="#000000">B</text>
<polyline fill="none" stroke="#000000" points="329.675,-59 329.675,-105 "/>
<text text-anchor="middle" x="370.175" y="-85.8" font-family="Times,serif" font-size="14.00" fill="#000000">$216</text>
<text text-anchor="middle" x="370.175" y="-70.8" font-family="Times,serif" font-size="14.00" fill="#000000">$logic_and</text>
<polyline fill="none" stroke="#000000" points="410.675,-59 410.675,-105 "/>
<text text-anchor="middle" x="424.175" y="-78.3" font-family="Times,serif" font-size="14.00" fill="#000000">Y</text>
</g>
<!-- c12&#45;&gt;c13 -->
<g id="edge3" class="edge">
<title>c12:e&#45;&gt;c13:w</title>
<path fill="none" stroke="#000000" d="M266.675,-94C278.675,-94 283.925,-94 292.55,-94"/>
<polygon fill="#000000" stroke="#000000" points="292.675,-97.5001 302.675,-94 292.6749,-90.5001 292.675,-97.5001"/>
</g>
<!-- c13&#45;&gt;n6 -->
<g id="edge7" class="edge">
<title>c13:e&#45;&gt;n6:w</title>
<path fill="none" stroke="#000000" d="M437.675,-82C453.0456,-82 454.4454,-97.5655 463.922,-104.1322"/>
<polygon fill="#000000" stroke="#000000" points="463.0938,-107.5367 473.675,-107 465.0685,-100.821 463.0938,-107.5367"/>
</g>
<!-- c14&#45;&gt;c13 -->
<g id="edge4" class="edge">
<title>c14:e&#45;&gt;c13:w</title>
<path fill="none" stroke="#000000" d="M1288.3154,-91C1288.3154,-91 1154.8154,-110.5 1154.8154,-110.5 1000.1971,-99.4721 964.582,-61 809.5709,-61 661.5709,-61 661.5709,-61 661.5709,-61 562.0554,-61 537.1889,-59.0556 437.675,-58.5 437.675,-58.5 343.8716,-66.4612 312.3595,-69.1356"/>
<polygon fill="#000000" stroke="#000000" points="311.8431,-65.6668 302.175,-70 312.4352,-72.6417 311.8431,-65.6668"/>
</g>
<!-- c18&#45;&gt;n8 -->
<g id="edge11" class="edge">
<title>c18:e&#45;&gt;n8:w</title>
<path fill="none" stroke="#000000" d="M869.5709,-141C881.5709,-141 886.8209,-141 895.4459,-141"/>
<polygon fill="#000000" stroke="#000000" points="895.571,-144.5001 905.5709,-141 895.5709,-137.5001 895.571,-144.5001"/>
</g>
<!-- v0 -->
<g id="node9" class="node">
<title>v0</title>
<ellipse fill="none" stroke="#000000" cx="1012.1932" cy="-239" rx="27" ry="18"/>
<text text-anchor="middle" x="1012.1932" y="-235.3" font-family="Times,serif" font-size="14.00" fill="#000000">1&#39;0</text>
</g>
<!-- v0&#45;&gt;c20 -->
<g id="edge14" class="edge">
<title>v0:e&#45;&gt;c20:w</title>
<path fill="none" stroke="#000000" d="M1039.1932,-239C1067.0741,-239 1125.4292,-199.103 1159.2621,-191.3106"/>
<polygon fill="#000000" stroke="#000000" points="1159.8518,-194.7635 1169.3154,-190 1158.9468,-187.8222 1159.8518,-194.7635"/>
</g>
<!-- c20&#45;&gt;c21 -->
<g id="edge2" class="edge">
<title>c20:e&#45;&gt;c21:w</title>
<path fill="none" stroke="#000000" d="M1273.3154,-167C1288.871,-167 1284.1643,-190.8521 1273.3154,-202 1259.0615,-216.6468 925.8765,-209.6794 905.5709,-212 819.0581,-221.8872 800.2101,-242.2896 713.5709,-251 713.5709,-251 645.5732,-243.1541 619.5429,-240.1506"/>
<polygon fill="#000000" stroke="#000000" points="619.9062,-236.6694 609.5709,-239 619.1038,-243.6233 619.9062,-236.6694"/>
</g>
<!-- v1 -->
<g id="node11" class="node">
<title>v1</title>
<ellipse fill="none" stroke="#000000" cx="523.6229" cy="-216" rx="27" ry="18"/>
<text text-anchor="middle" x="523.6229" y="-212.3" font-family="Times,serif" font-size="14.00" fill="#000000">1&#39;1</text>
</g>
<!-- v1&#45;&gt;c21 -->
<g id="edge15" class="edge">
<title>v1:e&#45;&gt;c21:w</title>
<path fill="none" stroke="#000000" d="M550.6229,-216C573.0355,-216 581.0681,-216 599.3239,-216"/>
<polygon fill="#000000" stroke="#000000" points="599.571,-219.5001 609.5709,-216 599.5709,-212.5001 599.571,-219.5001"/>
</g>
<!-- c21&#45;&gt;c18 -->
<g id="edge1" class="edge">
<title>c21:e&#45;&gt;c18:w</title>
<path fill="none" stroke="#000000" d="M713.5709,-216C751.3306,-216 716.1857,-145.1625 739.7062,-131.327"/>
<polygon fill="#000000" stroke="#000000" points="740.6417,-134.7025 749.5709,-129 739.0344,-127.8895 740.6417,-134.7025"/>
</g>
</g>
</svg>
