<?xml version="1.0" encoding="UTF-8" standalone="no"?>
<!DOCTYPE svg PUBLIC "-//W3C//DTD SVG 1.1//EN"
 "http://www.w3.org/Graphics/SVG/1.1/DTD/svg11.dtd">
<!-- Generated by graphviz version 2.40.1 (20161225.0304)
 -->
<!-- Title: mux Pages: 1 -->
<svg width="435pt" height="154pt"
 viewBox="0.00 0.00 435.00 154.00" xmlns="http://www.w3.org/2000/svg" xmlns:xlink="http://www.w3.org/1999/xlink">
<g id="graph0" class="graph" transform="scale(1 1) rotate(0) translate(4 150)">
<title>mux</title>
<polygon fill="#ffffff" stroke="transparent" points="-4,4 -4,-150 431,-150 431,4 -4,4"/>
<text text-anchor="middle" x="213.5" y="-7.8" font-family="Times,serif" font-size="14.00" fill="#000000">mux</text>
<!-- n2 -->
<g id="node1" class="node">
<title>n2</title>
<polygon fill="none" stroke="#000000" points="167.5,-120.5442 167.5,-135.4558 151.6838,-146 129.3162,-146 113.5,-135.4558 113.5,-120.5442 129.3162,-110 151.6838,-110 167.5,-120.5442"/>
<text text-anchor="middle" x="140.5" y="-124.3" font-family="Times,serif" font-size="14.00" fill="#000000">ch</text>
</g>
<!-- c9 -->
<g id="node6" class="node">
<title>c9</title>
<polygon fill="none" stroke="#000000" points="227,-75 227,-121 337,-121 337,-75 227,-75"/>
<text text-anchor="middle" x="240.5" y="-105.8" font-family="Times,serif" font-size="14.00" fill="#000000">A</text>
<polyline fill="none" stroke="#000000" points="227,-98 254,-98 "/>
<text text-anchor="middle" x="240.5" y="-82.8" font-family="Times,serif" font-size="14.00" fill="#000000">B</text>
<polyline fill="none" stroke="#000000" points="254,-75 254,-121 "/>
<text text-anchor="middle" x="282" y="-101.8" font-family="Times,serif" font-size="14.00" fill="#000000">$210</text>
<text text-anchor="middle" x="282" y="-86.8" font-family="Times,serif" font-size="14.00" fill="#000000">$shiftx</text>
<polyline fill="none" stroke="#000000" points="310,-75 310,-121 "/>
<text text-anchor="middle" x="323.5" y="-94.3" font-family="Times,serif" font-size="14.00" fill="#000000">Y</text>
</g>
<!-- n2&#45;&gt;c9 -->
<g id="edge2" class="edge">
<title>n2:e&#45;&gt;c9:w</title>
<path fill="none" stroke="#000000" stroke-width="3" d="M167.5,-128C191.3508,-128 197.7744,-114.5854 216.86,-110.9174"/>
<polygon fill="#000000" stroke="#000000" stroke-width="3" points="217.3561,-114.3869 227,-110 216.7253,-107.4153 217.3561,-114.3869"/>
</g>
<!-- n3 -->
<g id="node2" class="node">
<title>n3</title>
<polygon fill="none" stroke="#000000" points="427,-90.5442 427,-105.4558 411.1838,-116 388.8162,-116 373,-105.4558 373,-90.5442 388.8162,-80 411.1838,-80 427,-90.5442"/>
<text text-anchor="middle" x="400" y="-94.3" font-family="Times,serif" font-size="14.00" fill="#000000">out</text>
</g>
<!-- n4 -->
<g id="node3" class="node">
<title>n4</title>
<polygon fill="none" stroke="#000000" points="54,-33.5442 54,-48.4558 38.1838,-59 15.8162,-59 0,-48.4558 0,-33.5442 15.8162,-23 38.1838,-23 54,-33.5442"/>
<text text-anchor="middle" x="27" y="-37.3" font-family="Times,serif" font-size="14.00" fill="#000000">sel</text>
</g>
<!-- c8 -->
<g id="node5" class="node">
<title>c8</title>
<polygon fill="none" stroke="#000000" points="90,-45 90,-91 191,-91 191,-45 90,-45"/>
<text text-anchor="middle" x="103.5" y="-75.8" font-family="Times,serif" font-size="14.00" fill="#000000">A</text>
<polyline fill="none" stroke="#000000" points="90,-68 117,-68 "/>
<text text-anchor="middle" x="103.5" y="-52.8" font-family="Times,serif" font-size="14.00" fill="#000000">B</text>
<polyline fill="none" stroke="#000000" points="117,-45 117,-91 "/>
<text text-anchor="middle" x="140.5" y="-71.8" font-family="Times,serif" font-size="14.00" fill="#000000">$208</text>
<text text-anchor="middle" x="140.5" y="-56.8" font-family="Times,serif" font-size="14.00" fill="#000000">$sub</text>
<polyline fill="none" stroke="#000000" points="164,-45 164,-91 "/>
<text text-anchor="middle" x="177.5" y="-64.3" font-family="Times,serif" font-size="14.00" fill="#000000">Y</text>
</g>
<!-- n4&#45;&gt;c8 -->
<g id="edge4" class="edge">
<title>n4:e&#45;&gt;c8:w</title>
<path fill="none" stroke="#000000" stroke-width="3" d="M54,-41C67.2708,-41 71.1628,-49.7927 80.0372,-53.9143"/>
<polygon fill="#000000" stroke="#000000" stroke-width="3" points="79.495,-57.3766 90,-56 80.9294,-50.5251 79.495,-57.3766"/>
</g>
<!-- v0 -->
<g id="node4" class="node">
<title>v0</title>
<ellipse fill="none" stroke="#000000" cx="27" cy="-95" rx="27" ry="18"/>
<text text-anchor="middle" x="27" y="-91.3" font-family="Times,serif" font-size="14.00" fill="#000000">3</text>
</g>
<!-- v0&#45;&gt;c8 -->
<g id="edge5" class="edge">
<title>v0:e&#45;&gt;c8:w</title>
<path fill="none" stroke="#000000" stroke-width="3" d="M54,-95C67.2708,-95 71.1628,-86.2073 80.0372,-82.0857"/>
<polygon fill="#000000" stroke="#000000" stroke-width="3" points="80.9294,-85.4749 90,-80 79.495,-78.6234 80.9294,-85.4749"/>
</g>
<!-- c8&#45;&gt;c9 -->
<g id="edge1" class="edge">
<title>c8:e&#45;&gt;c9:w</title>
<path fill="none" stroke="#000000" stroke-width="3" d="M191,-68C204.8357,-68 208.1037,-78.7677 217.1509,-83.6468"/>
<polygon fill="#000000" stroke="#000000" stroke-width="3" points="216.4604,-87.0803 227,-86 218.0871,-80.2719 216.4604,-87.0803"/>
</g>
<!-- c9&#45;&gt;n3 -->
<g id="edge3" class="edge">
<title>c9:e&#45;&gt;n3:w</title>
<path fill="none" stroke="#000000" d="M337,-98C349,-98 354.25,-98 362.875,-98"/>
<polygon fill="#000000" stroke="#000000" points="363,-101.5001 373,-98 363,-94.5001 363,-101.5001"/>
</g>
</g>
</svg>
