<?xml version="1.0" encoding="UTF-8" standalone="no"?>
<!DOCTYPE svg PUBLIC "-//W3C//DTD SVG 1.1//EN"
 "http://www.w3.org/Graphics/SVG/1.1/DTD/svg11.dtd">
<!-- Generated by graphviz version 2.40.1 (20161225.0304)
 -->
<!-- Title: REG_BANK Pages: 1 -->
<svg width="995pt" height="469pt"
 viewBox="0.00 0.00 994.87 469.40" xmlns="http://www.w3.org/2000/svg" xmlns:xlink="http://www.w3.org/1999/xlink">
<g id="graph0" class="graph" transform="scale(1 1) rotate(0) translate(4 465.4042)">
<title>REG_BANK</title>
<polygon fill="#ffffff" stroke="transparent" points="-4,4 -4,-465.4042 990.8686,-465.4042 990.8686,4 -4,4"/>
<text text-anchor="middle" x="493.4343" y="-7.8" font-family="Times,serif" font-size="14.00" fill="#000000">REG_BANK</text>
<!-- n7 -->
<g id="node1" class="node">
<title>n7</title>
<polygon fill="none" stroke="#000000" points="374.3836,-435.9484 374.3836,-450.86 350.5971,-461.4042 316.9579,-461.4042 293.1714,-450.86 293.1714,-435.9484 316.9579,-425.4042 350.5971,-425.4042 374.3836,-435.9484"/>
<text text-anchor="middle" x="333.7775" y="-439.7042" font-family="Times,serif" font-size="14.00" fill="#000000">ADDR</text>
</g>
<!-- c15 -->
<g id="node8" class="node">
<title>c15</title>
<polygon fill="none" stroke="#000000" points="469.8686,-354.9042 469.8686,-423.9042 648.8686,-423.9042 648.8686,-354.9042 469.8686,-354.9042"/>
<text text-anchor="middle" x="498.8686" y="-408.7042" font-family="Times,serif" font-size="14.00" fill="#000000">ADDR</text>
<polyline fill="none" stroke="#000000" points="469.8686,-400.9042 527.8686,-400.9042 "/>
<text text-anchor="middle" x="498.8686" y="-385.7042" font-family="Times,serif" font-size="14.00" fill="#000000">CLK</text>
<polyline fill="none" stroke="#000000" points="469.8686,-377.9042 527.8686,-377.9042 "/>
<text text-anchor="middle" x="498.8686" y="-362.7042" font-family="Times,serif" font-size="14.00" fill="#000000">EN</text>
<polyline fill="none" stroke="#000000" points="527.8686,-354.9042 527.8686,-423.9042 "/>
<text text-anchor="middle" x="560.3686" y="-393.2042" font-family="Times,serif" font-size="14.00" fill="#000000">$191</text>
<text text-anchor="middle" x="560.3686" y="-378.2042" font-family="Times,serif" font-size="14.00" fill="#000000">$memrd</text>
<polyline fill="none" stroke="#000000" points="592.8686,-354.9042 592.8686,-423.9042 "/>
<text text-anchor="middle" x="620.8686" y="-385.7042" font-family="Times,serif" font-size="14.00" fill="#000000">DATA</text>
</g>
<!-- n7&#45;&gt;c15 -->
<g id="edge15" class="edge">
<title>n7:e&#45;&gt;c15:w</title>
<path fill="none" stroke="#000000" stroke-width="3" d="M374.7775,-443.4042C415.5829,-443.4042 424.1442,-417.2815 459.6595,-412.9958"/>
<polygon fill="#000000" stroke="#000000" stroke-width="3" points="460.0879,-416.4769 469.8686,-412.4042 459.6829,-409.4886 460.0879,-416.4769"/>
</g>
<!-- c28 -->
<g id="node22" class="node">
<title>c28</title>
<polygon fill="none" stroke="#000000" points="507.3686,-233.9042 507.3686,-302.9042 611.3686,-302.9042 611.3686,-233.9042 507.3686,-233.9042"/>
<text text-anchor="middle" x="520.8686" y="-287.7042" font-family="Times,serif" font-size="14.00" fill="#000000">A</text>
<polyline fill="none" stroke="#000000" points="507.3686,-279.9042 534.3686,-279.9042 "/>
<text text-anchor="middle" x="520.8686" y="-264.7042" font-family="Times,serif" font-size="14.00" fill="#000000">B</text>
<polyline fill="none" stroke="#000000" points="507.3686,-256.9042 534.3686,-256.9042 "/>
<text text-anchor="middle" x="520.8686" y="-241.7042" font-family="Times,serif" font-size="14.00" fill="#000000">S</text>
<polyline fill="none" stroke="#000000" points="534.3686,-233.9042 534.3686,-302.9042 "/>
<text text-anchor="middle" x="559.3686" y="-272.2042" font-family="Times,serif" font-size="14.00" fill="#000000">$254</text>
<text text-anchor="middle" x="559.3686" y="-257.2042" font-family="Times,serif" font-size="14.00" fill="#000000">$mux</text>
<polyline fill="none" stroke="#000000" points="584.3686,-233.9042 584.3686,-302.9042 "/>
<text text-anchor="middle" x="597.8686" y="-264.7042" font-family="Times,serif" font-size="14.00" fill="#000000">Y</text>
</g>
<!-- n7&#45;&gt;c28 -->
<g id="edge16" class="edge">
<title>n7:e&#45;&gt;c28:w</title>
<path fill="none" stroke="#000000" stroke-width="3" d="M374.7775,-443.4042C403.6519,-443.4042 413.1238,-436.4886 433.8686,-416.4042 483.954,-367.9132 439.0071,-278.1289 497.1257,-269.1353"/>
<polygon fill="#000000" stroke="#000000" stroke-width="3" points="497.6432,-272.6073 507.3686,-268.4042 497.1448,-265.6251 497.6432,-272.6073"/>
</g>
<!-- n8 -->
<g id="node2" class="node">
<title>n8</title>
<polygon fill="none" stroke="#000000" points="385.8945,-62.9484 385.8945,-77.86 355.3651,-88.4042 312.19,-88.4042 281.6605,-77.86 281.6605,-62.9484 312.19,-52.4042 355.3651,-52.4042 385.8945,-62.9484"/>
<text text-anchor="middle" x="333.7775" y="-66.7042" font-family="Times,serif" font-size="14.00" fill="#000000">DATA_in</text>
</g>
<!-- c27 -->
<g id="node20" class="node">
<title>c27</title>
<polygon fill="none" stroke="#000000" points="507.3686,-35.9042 507.3686,-104.9042 611.3686,-104.9042 611.3686,-35.9042 507.3686,-35.9042"/>
<text text-anchor="middle" x="520.8686" y="-89.7042" font-family="Times,serif" font-size="14.00" fill="#000000">A</text>
<polyline fill="none" stroke="#000000" points="507.3686,-81.9042 534.3686,-81.9042 "/>
<text text-anchor="middle" x="520.8686" y="-66.7042" font-family="Times,serif" font-size="14.00" fill="#000000">B</text>
<polyline fill="none" stroke="#000000" points="507.3686,-58.9042 534.3686,-58.9042 "/>
<text text-anchor="middle" x="520.8686" y="-43.7042" font-family="Times,serif" font-size="14.00" fill="#000000">S</text>
<polyline fill="none" stroke="#000000" points="534.3686,-35.9042 534.3686,-104.9042 "/>
<text text-anchor="middle" x="559.3686" y="-74.2042" font-family="Times,serif" font-size="14.00" fill="#000000">$251</text>
<text text-anchor="middle" x="559.3686" y="-59.2042" font-family="Times,serif" font-size="14.00" fill="#000000">$mux</text>
<polyline fill="none" stroke="#000000" points="584.3686,-35.9042 584.3686,-104.9042 "/>
<text text-anchor="middle" x="597.8686" y="-66.7042" font-family="Times,serif" font-size="14.00" fill="#000000">Y</text>
</g>
<!-- n8&#45;&gt;c27 -->
<g id="edge17" class="edge">
<title>n8:e&#45;&gt;c27:w</title>
<path fill="none" stroke="#000000" stroke-width="3" d="M385.7775,-70.4042C436.2294,-70.4042 451.3551,-70.4042 497.1152,-70.4042"/>
<polygon fill="#000000" stroke="#000000" stroke-width="3" points="497.3687,-73.9043 507.3686,-70.4042 497.3686,-66.9043 497.3687,-73.9043"/>
</g>
<!-- n9 -->
<g id="node3" class="node">
<title>n9</title>
<polygon fill="none" stroke="#000000" points="802.742,-381.9484 802.742,-396.86 768.8406,-407.4042 720.8967,-407.4042 686.9952,-396.86 686.9952,-381.9484 720.8967,-371.4042 768.8406,-371.4042 802.742,-381.9484"/>
<text text-anchor="middle" x="744.8686" y="-385.7042" font-family="Times,serif" font-size="14.00" fill="#000000">DATA_out</text>
</g>
<!-- n10 -->
<g id="node4" class="node">
<title>n10</title>
<polygon fill="none" stroke="#000000" points="57.5304,-218.9484 57.5304,-233.86 40.7258,-244.4042 16.9606,-244.4042 .156,-233.86 .156,-218.9484 16.9606,-208.4042 40.7258,-208.4042 57.5304,-218.9484"/>
<text text-anchor="middle" x="28.8432" y="-222.7042" font-family="Times,serif" font-size="14.00" fill="#000000">WD</text>
</g>
<!-- c26 -->
<g id="node17" class="node">
<title>c26</title>
<polygon fill="none" stroke="#000000" points="93.6864,-254.9042 93.6864,-323.9042 197.6864,-323.9042 197.6864,-254.9042 93.6864,-254.9042"/>
<text text-anchor="middle" x="107.1864" y="-308.7042" font-family="Times,serif" font-size="14.00" fill="#000000">A</text>
<polyline fill="none" stroke="#000000" points="93.6864,-300.9042 120.6864,-300.9042 "/>
<text text-anchor="middle" x="107.1864" y="-285.7042" font-family="Times,serif" font-size="14.00" fill="#000000">B</text>
<polyline fill="none" stroke="#000000" points="93.6864,-277.9042 120.6864,-277.9042 "/>
<text text-anchor="middle" x="107.1864" y="-262.7042" font-family="Times,serif" font-size="14.00" fill="#000000">S</text>
<polyline fill="none" stroke="#000000" points="120.6864,-254.9042 120.6864,-323.9042 "/>
<text text-anchor="middle" x="145.6864" y="-293.2042" font-family="Times,serif" font-size="14.00" fill="#000000">$248</text>
<text text-anchor="middle" x="145.6864" y="-278.2042" font-family="Times,serif" font-size="14.00" fill="#000000">$mux</text>
<polyline fill="none" stroke="#000000" points="170.6864,-254.9042 170.6864,-323.9042 "/>
<text text-anchor="middle" x="184.1864" y="-285.7042" font-family="Times,serif" font-size="14.00" fill="#000000">Y</text>
</g>
<!-- n10&#45;&gt;c26 -->
<g id="edge4" class="edge">
<title>n10:e&#45;&gt;c26:w</title>
<path fill="none" stroke="#000000" d="M57.6864,-226.4042C77.4931,-226.4042 72.781,-253.8358 84.1593,-263.2655"/>
<polygon fill="#000000" stroke="#000000" points="83.0933,-266.5993 93.6864,-266.4042 85.2838,-259.9508 83.0933,-266.5993"/>
</g>
<!-- n10&#45;&gt;c27 -->
<g id="edge5" class="edge">
<title>n10:e&#45;&gt;c27:w</title>
<path fill="none" stroke="#000000" d="M57.6864,-226.4042C170.5306,-226.4042 129.8578,-87.602 233.6864,-43.4042 342.4469,2.8931 383.3901,-44.5585 497.2259,-47.2834"/>
<polygon fill="#000000" stroke="#000000" points="497.3276,-50.7847 507.3686,-47.4042 497.4111,-43.7852 497.3276,-50.7847"/>
</g>
<!-- n10&#45;&gt;c28 -->
<g id="edge6" class="edge">
<title>n10:e&#45;&gt;c28:w</title>
<path fill="none" stroke="#000000" d="M57.6864,-226.4042C254.3049,-226.4042 305.592,-244.7603 497.2431,-245.3877"/>
<polygon fill="#000000" stroke="#000000" points="497.3629,-248.8878 507.3686,-245.4042 497.3744,-241.8878 497.3629,-248.8878"/>
</g>
<!-- n11 -->
<g id="node5" class="node">
<title>n11</title>
<polygon fill="none" stroke="#000000" points="586.3686,-189.9484 586.3686,-204.86 570.5524,-215.4042 548.1849,-215.4042 532.3686,-204.86 532.3686,-189.9484 548.1849,-179.4042 570.5524,-179.4042 586.3686,-189.9484"/>
<text text-anchor="middle" x="559.3686" y="-193.7042" font-family="Times,serif" font-size="14.00" fill="#000000">clk</text>
</g>
<!-- c19 -->
<g id="node11" class="node">
<title>c19</title>
<polygon fill="none" stroke="#000000" points="684.8686,-254.4042 684.8686,-300.4042 804.8686,-300.4042 804.8686,-254.4042 684.8686,-254.4042"/>
<text text-anchor="middle" x="707.8686" y="-285.2042" font-family="Times,serif" font-size="14.00" fill="#000000">CLK</text>
<polyline fill="none" stroke="#000000" points="684.8686,-277.4042 730.8686,-277.4042 "/>
<text text-anchor="middle" x="707.8686" y="-262.2042" font-family="Times,serif" font-size="14.00" fill="#000000">D</text>
<polyline fill="none" stroke="#000000" points="730.8686,-254.4042 730.8686,-300.4042 "/>
<text text-anchor="middle" x="754.3686" y="-281.2042" font-family="Times,serif" font-size="14.00" fill="#000000">$608</text>
<text text-anchor="middle" x="754.3686" y="-266.2042" font-family="Times,serif" font-size="14.00" fill="#000000">$dff</text>
<polyline fill="none" stroke="#000000" points="777.8686,-254.4042 777.8686,-300.4042 "/>
<text text-anchor="middle" x="791.3686" y="-273.7042" font-family="Times,serif" font-size="14.00" fill="#000000">Q</text>
</g>
<!-- n11&#45;&gt;c19 -->
<g id="edge7" class="edge">
<title>n11:e&#45;&gt;c19:w</title>
<path fill="none" stroke="#000000" d="M586.3686,-197.4042C616.6276,-197.4042 626.4499,-204.0816 648.8686,-224.4042 670.2774,-243.8112 656.4995,-279.0216 674.8439,-287.5209"/>
<polygon fill="#000000" stroke="#000000" points="674.3943,-290.9976 684.8686,-289.4042 675.6868,-284.118 674.3943,-290.9976"/>
</g>
<!-- c20 -->
<g id="node12" class="node">
<title>c20</title>
<polygon fill="none" stroke="#000000" points="684.8686,-69.4042 684.8686,-115.4042 804.8686,-115.4042 804.8686,-69.4042 684.8686,-69.4042"/>
<text text-anchor="middle" x="707.8686" y="-100.2042" font-family="Times,serif" font-size="14.00" fill="#000000">CLK</text>
<polyline fill="none" stroke="#000000" points="684.8686,-92.4042 730.8686,-92.4042 "/>
<text text-anchor="middle" x="707.8686" y="-77.2042" font-family="Times,serif" font-size="14.00" fill="#000000">D</text>
<polyline fill="none" stroke="#000000" points="730.8686,-69.4042 730.8686,-115.4042 "/>
<text text-anchor="middle" x="754.3686" y="-96.2042" font-family="Times,serif" font-size="14.00" fill="#000000">$609</text>
<text text-anchor="middle" x="754.3686" y="-81.2042" font-family="Times,serif" font-size="14.00" fill="#000000">$dff</text>
<polyline fill="none" stroke="#000000" points="777.8686,-69.4042 777.8686,-115.4042 "/>
<text text-anchor="middle" x="791.3686" y="-88.7042" font-family="Times,serif" font-size="14.00" fill="#000000">Q</text>
</g>
<!-- n11&#45;&gt;c20 -->
<g id="edge8" class="edge">
<title>n11:e&#45;&gt;c20:w</title>
<path fill="none" stroke="#000000" d="M586.3686,-197.4042C616.6276,-197.4042 626.5155,-190.7989 648.8686,-170.4042 670.5629,-150.6106 656.1209,-114.627 674.9905,-106.2025"/>
<polygon fill="#000000" stroke="#000000" points="675.6572,-109.6387 684.8686,-104.4042 674.4034,-102.7519 675.6572,-109.6387"/>
</g>
<!-- c21 -->
<g id="node13" class="node">
<title>c21</title>
<polygon fill="none" stroke="#000000" points="684.8686,-134.4042 684.8686,-180.4042 804.8686,-180.4042 804.8686,-134.4042 684.8686,-134.4042"/>
<text text-anchor="middle" x="707.8686" y="-165.2042" font-family="Times,serif" font-size="14.00" fill="#000000">CLK</text>
<polyline fill="none" stroke="#000000" points="684.8686,-157.4042 730.8686,-157.4042 "/>
<text text-anchor="middle" x="707.8686" y="-142.2042" font-family="Times,serif" font-size="14.00" fill="#000000">D</text>
<polyline fill="none" stroke="#000000" points="730.8686,-134.4042 730.8686,-180.4042 "/>
<text text-anchor="middle" x="754.3686" y="-161.2042" font-family="Times,serif" font-size="14.00" fill="#000000">$610</text>
<text text-anchor="middle" x="754.3686" y="-146.2042" font-family="Times,serif" font-size="14.00" fill="#000000">$dff</text>
<polyline fill="none" stroke="#000000" points="777.8686,-134.4042 777.8686,-180.4042 "/>
<text text-anchor="middle" x="791.3686" y="-153.7042" font-family="Times,serif" font-size="14.00" fill="#000000">Q</text>
</g>
<!-- n11&#45;&gt;c21 -->
<g id="edge9" class="edge">
<title>n11:e&#45;&gt;c21:w</title>
<path fill="none" stroke="#000000" d="M586.3686,-197.4042C628.3252,-197.4042 637.9562,-173.6083 674.8619,-169.8902"/>
<polygon fill="#000000" stroke="#000000" points="675.0502,-173.3853 684.8686,-169.4042 674.7106,-166.3935 675.0502,-173.3853"/>
</g>
<!-- v0 -->
<g id="node6" class="node">
<title>v0</title>
<ellipse fill="none" stroke="#000000" cx="333.7775" cy="-389.4042" rx="27" ry="18"/>
<text text-anchor="middle" x="333.7775" y="-385.7042" font-family="Times,serif" font-size="14.00" fill="#000000">1&#39;x</text>
</g>
<!-- v0&#45;&gt;c15 -->
<g id="edge19" class="edge">
<title>v0:e&#45;&gt;c15:w</title>
<path fill="none" stroke="#000000" d="M360.7775,-389.4042C405.664,-389.4042 419.3841,-389.4042 459.6443,-389.4042"/>
<polygon fill="#000000" stroke="#000000" points="459.8687,-392.9043 469.8686,-389.4042 459.8686,-385.9043 459.8687,-392.9043"/>
</g>
<!-- v1 -->
<g id="node7" class="node">
<title>v1</title>
<ellipse fill="none" stroke="#000000" cx="333.7775" cy="-335.4042" rx="27" ry="18"/>
<text text-anchor="middle" x="333.7775" y="-331.7042" font-family="Times,serif" font-size="14.00" fill="#000000">1&#39;x</text>
</g>
<!-- v1&#45;&gt;c15 -->
<g id="edge20" class="edge">
<title>v1:e&#45;&gt;c15:w</title>
<path fill="none" stroke="#000000" d="M360.7775,-335.4042C407.638,-335.4042 418.0912,-362.1981 459.8319,-365.966"/>
<polygon fill="#000000" stroke="#000000" points="459.7254,-369.4646 469.8686,-366.4042 460.0308,-362.4712 459.7254,-369.4646"/>
</g>
<!-- c15&#45;&gt;n9 -->
<g id="edge18" class="edge">
<title>c15:e&#45;&gt;n9:w</title>
<path fill="none" stroke="#000000" stroke-width="3" d="M648.8686,-389.4042C661.7992,-389.4042 667.3048,-389.4042 676.7549,-389.4042"/>
<polygon fill="#000000" stroke="#000000" stroke-width="3" points="676.8687,-392.9043 686.8686,-389.4042 676.8686,-385.9043 676.8687,-392.9043"/>
</g>
<!-- v2 -->
<g id="node9" class="node">
<title>v2</title>
<ellipse fill="none" stroke="#000000" cx="744.8686" cy="-217.4042" rx="27" ry="18"/>
<text text-anchor="middle" x="744.8686" y="-213.7042" font-family="Times,serif" font-size="14.00" fill="#000000">1&#39;x</text>
</g>
<!-- c16 -->
<g id="node10" class="node">
<title>c16</title>
<polygon fill="none" stroke="#000000" points="840.8686,-152.4042 840.8686,-244.4042 986.8686,-244.4042 986.8686,-152.4042 840.8686,-152.4042"/>
<text text-anchor="middle" x="869.8686" y="-229.2042" font-family="Times,serif" font-size="14.00" fill="#000000">ADDR</text>
<polyline fill="none" stroke="#000000" points="840.8686,-221.4042 898.8686,-221.4042 "/>
<text text-anchor="middle" x="869.8686" y="-206.2042" font-family="Times,serif" font-size="14.00" fill="#000000">CLK</text>
<polyline fill="none" stroke="#000000" points="840.8686,-198.4042 898.8686,-198.4042 "/>
<text text-anchor="middle" x="869.8686" y="-183.2042" font-family="Times,serif" font-size="14.00" fill="#000000">DATA</text>
<polyline fill="none" stroke="#000000" points="840.8686,-175.4042 898.8686,-175.4042 "/>
<text text-anchor="middle" x="869.8686" y="-160.2042" font-family="Times,serif" font-size="14.00" fill="#000000">EN</text>
<polyline fill="none" stroke="#000000" points="898.8686,-152.4042 898.8686,-244.4042 "/>
<text text-anchor="middle" x="932.8686" y="-202.2042" font-family="Times,serif" font-size="14.00" fill="#000000">$196</text>
<text text-anchor="middle" x="932.8686" y="-187.2042" font-family="Times,serif" font-size="14.00" fill="#000000">$memwr</text>
<polyline fill="none" stroke="#000000" points="966.8686,-152.4042 966.8686,-244.4042 "/>
<text text-anchor="middle" x="976.8686" y="-194.7042" font-family="Times,serif" font-size="14.00" fill="#000000"> </text>
</g>
<!-- v2&#45;&gt;c16 -->
<g id="edge21" class="edge">
<title>v2:e&#45;&gt;c16:w</title>
<path fill="none" stroke="#000000" d="M771.8686,-217.4042C798.9601,-217.4042 807.9198,-211.9969 830.62,-210.6873"/>
<polygon fill="#000000" stroke="#000000" points="830.9691,-214.1791 840.8686,-210.4042 830.7758,-207.1817 830.9691,-214.1791"/>
</g>
<!-- c19&#45;&gt;c16 -->
<g id="edge12" class="edge">
<title>c19:e&#45;&gt;c16:w</title>
<path fill="none" stroke="#000000" stroke-width="3" d="M804.8686,-277.4042C825.9902,-277.4042 819.2993,-246.6574 831.2949,-236.5686"/>
<polygon fill="#000000" stroke="#000000" stroke-width="3" points="832.4722,-239.8657 840.8686,-233.4042 830.2754,-233.2194 832.4722,-239.8657"/>
</g>
<!-- c20&#45;&gt;c16 -->
<g id="edge13" class="edge">
<title>c20:e&#45;&gt;c16:w</title>
<path fill="none" stroke="#000000" stroke-width="3" d="M804.8686,-92.4042C845.5861,-92.4042 804.9476,-170.2723 831.0464,-184.2643"/>
<polygon fill="#000000" stroke="#000000" stroke-width="3" points="830.3527,-187.6952 840.8686,-186.4042 831.8429,-180.8556 830.3527,-187.6952"/>
</g>
<!-- c21&#45;&gt;c16 -->
<g id="edge14" class="edge">
<title>c21:e&#45;&gt;c16:w</title>
<path fill="none" stroke="#000000" stroke-width="3" d="M804.8686,-157.4042C817.0341,-157.4042 822.0772,-160.7792 830.6816,-162.4667"/>
<polygon fill="#000000" stroke="#000000" stroke-width="3" points="830.5899,-165.973 840.8686,-163.4042 831.2315,-159.0024 830.5899,-165.973"/>
</g>
<!-- x3 -->
<g id="node14" class="node">
<title>x3</title>
<path fill="none" stroke="#000000" d="M528.8686,-124.4042C528.8686,-124.4042 589.8686,-124.4042 589.8686,-124.4042 595.8686,-124.4042 601.8686,-130.4042 601.8686,-136.4042 601.8686,-136.4042 601.8686,-148.4042 601.8686,-148.4042 601.8686,-154.4042 595.8686,-160.4042 589.8686,-160.4042 589.8686,-160.4042 528.8686,-160.4042 528.8686,-160.4042 522.8686,-160.4042 516.8686,-154.4042 516.8686,-148.4042 516.8686,-148.4042 516.8686,-136.4042 516.8686,-136.4042 516.8686,-130.4042 522.8686,-124.4042 528.8686,-124.4042"/>
<text text-anchor="middle" x="559.3686" y="-138.7042" font-family="Times,serif" font-size="14.00" fill="#000000">8x 7:7 &#45; 7:0</text>
</g>
<!-- x3&#45;&gt;c21 -->
<g id="edge1" class="edge">
<title>x3:e&#45;&gt;c21:w</title>
<path fill="none" stroke="#000000" stroke-width="3" d="M614.5827,-142.5255C637.9685,-143.01 649.3253,-144.8033 672.7407,-145.2847"/>
<polygon fill="none" stroke="#000000" stroke-width="3" points="614.368,-142.5235 608.3286,-146.4636 602.3686,-142.4042 608.4081,-138.464 614.368,-142.5235"/>
<polygon fill="none" stroke="#000000" stroke-width="3" points="672.8692,-145.2858 678.9084,-141.3452 684.8686,-145.4042 678.8295,-149.3448 672.8692,-145.2858"/>
</g>
<!-- v4 -->
<g id="node15" class="node">
<title>v4</title>
<ellipse fill="none" stroke="#000000" cx="28.8432" cy="-338.4042" rx="27" ry="18"/>
<text text-anchor="middle" x="28.8432" y="-334.7042" font-family="Times,serif" font-size="14.00" fill="#000000">1&#39;0</text>
</g>
<!-- v4&#45;&gt;c26 -->
<g id="edge22" class="edge">
<title>v4:e&#45;&gt;c26:w</title>
<path fill="none" stroke="#000000" d="M55.8432,-338.4042C72.1044,-338.4042 73.5219,-321.8939 83.7529,-315.1866"/>
<polygon fill="#000000" stroke="#000000" points="85.0011,-318.4718 93.6864,-312.4042 83.1129,-311.7313 85.0011,-318.4718"/>
</g>
<!-- v5 -->
<g id="node16" class="node">
<title>v5</title>
<ellipse fill="none" stroke="#000000" cx="28.8432" cy="-284.4042" rx="27" ry="18"/>
<text text-anchor="middle" x="28.8432" y="-280.7042" font-family="Times,serif" font-size="14.00" fill="#000000">1&#39;1</text>
</g>
<!-- v5&#45;&gt;c26 -->
<g id="edge23" class="edge">
<title>v5:e&#45;&gt;c26:w</title>
<path fill="none" stroke="#000000" d="M55.8432,-284.4042C68.8323,-284.4042 74.17,-287.3351 83.5726,-288.709"/>
<polygon fill="#000000" stroke="#000000" points="83.4699,-292.2101 93.6864,-289.4042 83.95,-285.2266 83.4699,-292.2101"/>
</g>
<!-- x6 -->
<g id="node18" class="node">
<title>x6</title>
<path fill="none" stroke="#000000" d="M312.7775,-161.4042C312.7775,-161.4042 354.7775,-161.4042 354.7775,-161.4042 360.7775,-161.4042 366.7775,-167.4042 366.7775,-173.4042 366.7775,-173.4042 366.7775,-185.4042 366.7775,-185.4042 366.7775,-191.4042 360.7775,-197.4042 354.7775,-197.4042 354.7775,-197.4042 312.7775,-197.4042 312.7775,-197.4042 306.7775,-197.4042 300.7775,-191.4042 300.7775,-185.4042 300.7775,-185.4042 300.7775,-173.4042 300.7775,-173.4042 300.7775,-167.4042 306.7775,-161.4042 312.7775,-161.4042"/>
<text text-anchor="middle" x="333.7775" y="-175.7042" font-family="Times,serif" font-size="14.00" fill="#000000">0:0 &#45; 7:7</text>
</g>
<!-- c26&#45;&gt;x6 -->
<g id="edge2" class="edge">
<title>c26:e&#45;&gt;x6:w</title>
<path fill="none" stroke="#000000" d="M208.2928,-282.8526C229.5256,-263.2418 269.2344,-205.1674 290.3581,-185.7836"/>
<polygon fill="none" stroke="#000000" points="207.8957,-283.0978 204.8932,-289.6541 197.6864,-289.4042 200.6889,-282.8479 207.8957,-283.0978"/>
<polygon fill="none" stroke="#000000" points="290.5434,-185.6702 293.5718,-179.1258 300.7775,-179.4042 297.7491,-185.9486 290.5434,-185.6702"/>
</g>
<!-- x6&#45;&gt;x3 -->
<g id="edge11" class="edge">
<title>x6:e&#45;&gt;x3:w</title>
<path fill="none" stroke="#000000" d="M366.7775,-179.4042C431.788,-179.4042 446.455,-146.0666 506.3525,-142.6807"/>
<polygon fill="#000000" stroke="#000000" points="506.4691,-146.179 516.3686,-142.4042 506.2758,-139.1816 506.4691,-146.179"/>
</g>
<!-- v7 -->
<g id="node19" class="node">
<title>v7</title>
<ellipse fill="none" stroke="#000000" cx="333.7775" cy="-124.4042" rx="55.7903" ry="18"/>
<text text-anchor="middle" x="333.7775" y="-120.7042" font-family="Times,serif" font-size="14.00" fill="#000000">8&#39;xxxxxxxx</text>
</g>
<!-- v7&#45;&gt;c27 -->
<g id="edge24" class="edge">
<title>v7:e&#45;&gt;c27:w</title>
<path fill="none" stroke="#000000" stroke-width="3" d="M389.7775,-124.4042C440.2367,-124.4042 451.8629,-97.3847 497.1645,-93.7961"/>
<polygon fill="#000000" stroke="#000000" stroke-width="3" points="497.5104,-97.2855 507.3686,-93.4042 497.2416,-90.2907 497.5104,-97.2855"/>
</g>
<!-- c27&#45;&gt;c20 -->
<g id="edge10" class="edge">
<title>c27:e&#45;&gt;c20:w</title>
<path fill="none" stroke="#000000" stroke-width="3" d="M611.3686,-70.4042C640.6016,-70.4042 649.8611,-78.2669 674.5689,-80.0483"/>
<polygon fill="#000000" stroke="#000000" stroke-width="3" points="674.7537,-83.5567 684.8686,-80.4042 674.9955,-76.5608 674.7537,-83.5567"/>
</g>
<!-- v8 -->
<g id="node21" class="node">
<title>v8</title>
<ellipse fill="none" stroke="#000000" cx="333.7775" cy="-281.4042" rx="100.1823" ry="18"/>
<text text-anchor="middle" x="333.7775" y="-277.7042" font-family="Times,serif" font-size="14.00" fill="#000000">16&#39;xxxxxxxxxxxxxxxx</text>
</g>
<!-- v8&#45;&gt;c28 -->
<g id="edge25" class="edge">
<title>v8:e&#45;&gt;c28:w</title>
<path fill="none" stroke="#000000" stroke-width="3" d="M433.7775,-281.4042C463.0461,-281.4042 472.3182,-289.2669 497.0563,-291.0483"/>
<polygon fill="#000000" stroke="#000000" stroke-width="3" points="497.2538,-294.5571 507.3686,-291.4042 497.4953,-287.5613 497.2538,-294.5571"/>
</g>
<!-- c28&#45;&gt;c19 -->
<g id="edge3" class="edge">
<title>c28:e&#45;&gt;c19:w</title>
<path fill="none" stroke="#000000" stroke-width="3" d="M611.3686,-268.4042C640.3589,-268.4042 650.0214,-266.0454 674.6327,-265.511"/>
<polygon fill="#000000" stroke="#000000" stroke-width="3" points="674.9057,-269.0084 684.8686,-265.4042 674.8326,-262.0088 674.9057,-269.0084"/>
</g>
</g>
</svg>
