<?xml version="1.0" encoding="UTF-8" standalone="no"?>
<!-- Created with Inkscape (http://www.inkscape.org/) -->

<svg
   xmlns:dc="http://purl.org/dc/elements/1.1/"
   xmlns:cc="http://creativecommons.org/ns#"
   xmlns:rdf="http://www.w3.org/1999/02/22-rdf-syntax-ns#"
   xmlns:svg="http://www.w3.org/2000/svg"
   xmlns="http://www.w3.org/2000/svg"
   xmlns:sodipodi="http://sodipodi.sourceforge.net/DTD/sodipodi-0.dtd"
   xmlns:inkscape="http://www.inkscape.org/namespaces/inkscape"
   width="117.75468mm"
   height="35.023327mm"
   viewBox="0 0 117.75468 35.023327"
   version="1.1"
   id="svg8"
   inkscape:version="0.92.4 5da689c313, 2019-01-14"
   sodipodi:docname="esquema-captura-software.svg">
  <title
     id="title10">Esquema captura Software</title>
  <defs
     id="defs2" />
  <sodipodi:namedview
     id="base"
     pagecolor="#ffffff"
     bordercolor="#666666"
     borderopacity="1.0"
     inkscape:pageopacity="0.0"
     inkscape:pageshadow="2"
     inkscape:zoom="1.2374579"
     inkscape:cx="157.41444"
     inkscape:cy="140.02628"
     inkscape:document-units="mm"
     inkscape:current-layer="layer1"
     showgrid="false"
     inkscape:window-width="1920"
     inkscape:window-height="1054"
     inkscape:window-x="0"
     inkscape:window-y="26"
     inkscape:window-maximized="1"
     fit-margin-top="0"
     fit-margin-left="0"
     fit-margin-right="0"
     fit-margin-bottom="0" />
  <metadata
     id="metadata5">
    <rdf:RDF>
      <cc:Work
         rdf:about="">
        <dc:format>image/svg+xml</dc:format>
        <dc:type
           rdf:resource="http://purl.org/dc/dcmitype/StillImage" />
        <dc:title>Esquema captura Software</dc:title>
        <dc:creator>
          <cc:Agent>
            <dc:title>Mario Rubio Asensio</dc:title>
          </cc:Agent>
        </dc:creator>
        <dc:language>Español</dc:language>
        <cc:license
           rdf:resource="http://creativecommons.org/licenses/by/4.0/" />
      </cc:Work>
      <cc:License
         rdf:about="http://creativecommons.org/licenses/by/4.0/">
        <cc:permits
           rdf:resource="http://creativecommons.org/ns#Reproduction" />
        <cc:permits
           rdf:resource="http://creativecommons.org/ns#Distribution" />
        <cc:requires
           rdf:resource="http://creativecommons.org/ns#Notice" />
        <cc:requires
           rdf:resource="http://creativecommons.org/ns#Attribution" />
        <cc:permits
           rdf:resource="http://creativecommons.org/ns#DerivativeWorks" />
      </cc:License>
    </rdf:RDF>
  </metadata>
  <g
     inkscape:label="Layer 1"
     inkscape:groupmode="layer"
     id="layer1"
     transform="translate(-36.383401,-23.364783)">
    <g
       id="g4801"
       transform="translate(-20.671891,3.7330346)">
      <rect
         y="19.881748"
         x="140.03665"
         height="34.523327"
         width="34.523327"
         id="rect4585"
         style="fill:#d7fffb;fill-opacity:1;stroke:#000000;stroke-width:0.5;stroke-linecap:round;stroke-linejoin:bevel;stroke-miterlimit:4;stroke-dasharray:none;stroke-opacity:1" />
      <text
         id="text4611"
         y="26.210217"
         x="144.12593"
         style="font-style:normal;font-weight:normal;font-size:10.58333302px;line-height:1.25;font-family:sans-serif;letter-spacing:0px;word-spacing:0px;fill:#000000;fill-opacity:1;stroke:none;stroke-width:0.26458332"
         xml:space="preserve"><tspan
           style="font-style:normal;font-variant:normal;font-weight:normal;font-stretch:normal;font-size:7.05555534px;font-family:'TeX Gyre Termes';-inkscape-font-specification:'TeX Gyre Termes';stroke-width:0.26458332"
           y="26.210217"
           x="144.12593"
           id="tspan4609"
           sodipodi:role="line">Equipo B</tspan></text>
    </g>
    <g
       id="g4829"
       transform="translate(-15.511066,-45.444546)">
      <path
         inkscape:connector-curvature="0"
         style="fill:none;stroke:#000000;stroke-width:0.1;stroke-linecap:round;stroke-linejoin:bevel;stroke-miterlimit:4;stroke-dasharray:none;stroke-opacity:1"
         d="m 86.968301,91.345697 c 0.54721,0.54285 1.09441,1.08534 1.64162,1.57808 0.54721,0.49273 1.09442,0.93484 1.64162,1.28637 0.54721,0.35153 1.09442,0.61154 1.64162,0.75688 0.54721,0.14534 1.09442,0.17519 1.64163,0.0875 0.5472,-0.0877 1.09441,-0.29354 1.64162,-0.59809 0.5472,-0.30455 1.09441,-0.70802 1.64162,-1.17311 0.54721,-0.46509 1.09442,-0.99161 1.64162,-1.53127 0.54721,-0.53966 1.09442,-1.09191 1.641619,-1.60638 0.54721,-0.51448 1.09442,-0.99037 1.64163,-1.38456 0.5472,-0.39419 1.09441,-0.70576 1.64162,-0.9068 0.54721,-0.20104 1.09441,-0.29069 1.64162,-0.26142 0.54721,0.0293 1.09441,0.17812 1.64162,0.43229 0.54721,0.25418 1.09441,0.61399 1.64162,1.04609 0.54721,0.43209 1.09442,0.93637 1.64162,1.46651 0.54721,0.53014 1.09442,1.08566 1.64162,1.61585 0.54721,0.53019 1.09442,1.03428 1.64163,1.46652 0.5472,0.43223 1.09441,0.7917 1.64162,1.04608 0.54721,0.25438 1.09441,0.40278 1.64162,0.43229 0.54721,0.0295 1.09441,-0.0606 1.64162,-0.26142 0.54721,-0.20082 1.09442,-0.51277 1.64162,-0.9068 0.54721,-0.39403 1.09442,-0.87015 1.64162,-1.38455 0.54721,-0.51441 1.09442,-1.0667 1.64162,-1.60639 0.54721,-0.53969 1.09442,-1.06606 1.64163,-1.53127 0.54721,-0.46521 1.09441,-0.86837 1.64162,-1.17311 0.54721,-0.30474 1.09441,-0.51015 1.64162,-0.59809 0.5472,-0.0879 1.09441,-0.0576 1.64162,0.0875 0.54721,0.14512 1.09442,0.40554 1.64163,0.75688 0.5472,0.35135 1.09441,0.79374 1.64162,1.28637 0.5472,0.49264 1.09441,1.03523 1.64161,1.57809"
         title="sin(t) t"
         id="path4660" />
      <path
         inkscape:connector-curvature="0"
         style="fill:none;stroke:#000000;stroke-width:0.1;stroke-linecap:round;stroke-linejoin:bevel;stroke-miterlimit:4;stroke-dasharray:none;stroke-opacity:1"
         d="m 134.57532,91.345697 c -0.54719,0.54285 -1.0944,1.08534 -1.64161,1.57808 -0.54721,0.49273 -1.09442,0.93484 -1.64162,1.28637 -0.54721,0.35153 -1.09441,0.61154 -1.64162,0.75688 -0.54721,0.14534 -1.09443,0.17519 -1.64162,0.0875 -0.54721,-0.0877 -1.09442,-0.29354 -1.64163,-0.59809 -0.54721,-0.30455 -1.09441,-0.70802 -1.64162,-1.1731 -0.5472,-0.46509 -1.09441,-0.99162 -1.64162,-1.53128 -0.54721,-0.53966 -1.09441,-1.0919 -1.64162,-1.60638 -0.54721,-0.51448 -1.09442,-0.99037 -1.64163,-1.38456 -0.5472,-0.39419 -1.09441,-0.70576 -1.64162,-0.9068 -0.5472,-0.20104 -1.09441,-0.29069 -1.64162,-0.26141 -0.5472,0.0293 -1.09441,0.17811 -1.64162,0.43228 -0.54721,0.25418 -1.09442,0.61399 -1.64163,1.04609 -0.54719,0.43209 -1.0944,0.93637 -1.64161,1.46651 -0.54721,0.53014 -1.09442,1.08567 -1.64163,1.61586 -0.5472,0.53019 -1.09441,1.03427 -1.64162,1.46651 -0.54721,0.43223 -1.09441,0.7917 -1.64161,1.04608 -0.54721,0.25438 -1.09442,0.40278 -1.64163,0.43229 -0.54721,0.0295 -1.09441,-0.0606 -1.64162,-0.26142 -0.54721,-0.20082 -1.09442,-0.51277 -1.64162,-0.90679 -0.54721,-0.39404 -1.09442,-0.87016 -1.64162,-1.38456 -0.547209,-0.51441 -1.094419,-1.0667 -1.641629,-1.60639 -0.54721,-0.53968 -1.09441,-1.06606 -1.64162,-1.53127 -0.5472,-0.46521 -1.09442,-0.86837 -1.64162,-1.17311 -0.5472,-0.30474 -1.09441,-0.51015 -1.64162,-0.59809 -0.54721,-0.0879 -1.09442,-0.0576 -1.64163,0.0875 -0.5472,0.14512 -1.09441,0.40554 -1.64162,0.75689 -0.5472,0.35134 -1.09441,0.79373 -1.64162,1.28637 -0.5472,0.49263 -1.09441,1.03522 -1.64162,1.57808"
         title="sin(t) t"
         id="path4660-3" />
    </g>
    <g
       id="g4825">
      <g
         transform="translate(5.7729233,0.4276242)"
         id="g4796">
        <rect
           style="fill:#ffd7d7;fill-opacity:1;stroke:#000000;stroke-width:0.5;stroke-linecap:round;stroke-linejoin:bevel;stroke-miterlimit:4;stroke-dasharray:none;stroke-opacity:1"
           id="rect4585-3"
           width="34.523327"
           height="34.523327"
           x="30.860477"
           y="23.187159" />
        <text
           xml:space="preserve"
           style="font-style:normal;font-weight:normal;font-size:10.58333302px;line-height:1.25;font-family:sans-serif;letter-spacing:0px;word-spacing:0px;fill:#000000;fill-opacity:1;stroke:none;stroke-width:0.26458332"
           x="34.551109"
           y="29.515627"
           id="text4607"><tspan
             sodipodi:role="line"
             id="tspan4605"
             x="34.551109"
             y="29.515627"
             style="font-style:normal;font-variant:normal;font-weight:normal;font-stretch:normal;font-size:7.05555534px;font-family:'TeX Gyre Termes';-inkscape-font-specification:'TeX Gyre Termes';stroke-width:0.26458332">Equipo A</tspan></text>
      </g>
      <g
         transform="translate(-45.074458,-36.721934)"
         id="g4751">
        <a
           id="a1040">
          <rect
             y="72.502876"
             x="93.874016"
             height="20.240505"
             width="20.240505"
             id="rect4585-2"
             style="fill:#fcffd7;fill-opacity:1;stroke:#000000;stroke-width:0.43971363;stroke-linecap:round;stroke-linejoin:bevel;stroke-miterlimit:4;stroke-dasharray:none;stroke-opacity:1" />
        </a>
        <text
           xml:space="preserve"
           style="font-style:normal;font-weight:normal;font-size:10.58333302px;line-height:1.25;font-family:sans-serif;letter-spacing:0px;word-spacing:0px;fill:#000000;fill-opacity:1;stroke:none;stroke-width:0.26458332"
           x="103.94308"
           y="73.195641"
           id="text1028"><tspan
             sodipodi:role="line"
             x="103.94308"
             y="73.195641"
             style="font-style:normal;font-variant:normal;font-weight:normal;font-stretch:normal;font-size:3.52777767px;line-height:0;font-family:'TeX Gyre Termes';-inkscape-font-specification:'TeX Gyre Termes';text-align:center;text-anchor:middle;stroke-width:0.26458332"
             id="tspan1034"
             dy="8">Capturador</tspan><tspan
             sodipodi:role="line"
             x="103.94308"
             y="86.424805"
             style="font-style:normal;font-variant:normal;font-weight:normal;font-stretch:normal;font-size:3.52777767px;line-height:0;font-family:'TeX Gyre Termes';-inkscape-font-specification:'TeX Gyre Termes';text-align:center;text-anchor:middle;stroke-width:0.26458332"
             id="tspan1038">de trama</tspan></text>
      </g>
    </g>
    <text
       xml:space="preserve"
       style="font-style:normal;font-weight:normal;font-size:8.46666622px;line-height:1.25;font-family:sans-serif;letter-spacing:0px;word-spacing:0px;fill:#000000;fill-opacity:1;stroke:none;stroke-width:0.26458332"
       x="89.852768"
       y="40.422756"
       id="text4833"><tspan
         sodipodi:role="line"
         id="tspan4831"
         x="89.852768"
         y="40.422756"
         style="font-style:normal;font-variant:normal;font-weight:normal;font-stretch:normal;font-size:7.05555534px;font-family:'TeX Gyre Termes';-inkscape-font-specification:'TeX Gyre Termes';stroke-width:0.26458332">Bus</tspan></text>
  </g>
</svg>
